<svg width="13" height="23" viewBox="0 0 13 23" fill="none" xmlns="http://www.w3.org/2000/svg">
<path d="M2.89098 0.722647L12.453 10.2847C12.5868 10.418 12.6929 10.5763 12.7653 10.7507C12.8376 10.925 12.8749 11.1119 12.8749 11.3007C12.8749 11.4895 12.8376 11.6764 12.7653 11.8507C12.6929 12.0251 12.5868 12.1834 12.453 12.3167L2.89098 21.8787C2.62152 22.1482 2.25607 22.2996 1.87501 22.2996C1.49394 22.2996 1.12849 22.1482 0.859036 21.8787C0.589584 21.6093 0.438207 21.2438 0.438207 20.8628C0.438207 20.4817 0.589583 20.1162 0.859035 19.8468L9.40633 11.2995L0.85784 2.7522C0.588388 2.48275 0.437011 2.11729 0.437011 1.73623C0.437011 1.35516 0.588388 0.98971 0.85784 0.720257C1.12729 0.450806 1.49275 0.299425 1.87381 0.299425C2.25487 0.299425 2.62033 0.450806 2.88978 0.720257L2.89098 0.722647Z" fill="black"/>
</svg>
