<svg width="15" height="15" viewBox="0 0 15 15" fill="none" xmlns="http://www.w3.org/2000/svg">
<path d="M2.6605 1.36798C2.66024 1.51605 2.68921 1.66271 2.74576 1.79955C2.8023 1.9364 2.8853 2.06073 2.99 2.16543C3.0947 2.27013 3.21903 2.35313 3.35588 2.40967C3.49272 2.46622 3.63938 2.49519 3.78745 2.49494L10.6141 2.49494L0.869309 12.2398C0.65833 12.4507 0.539804 12.7369 0.539805 13.0352C0.539805 13.3336 0.65833 13.6198 0.869309 13.8307C1.08029 14.0417 1.36644 14.1602 1.6648 14.1602C1.96317 14.1602 2.24932 14.0417 2.4603 13.8307L12.2051 4.08593L12.2064 10.9139C12.2064 11.2128 12.3252 11.4995 12.5365 11.7108C12.7479 11.9221 13.0345 12.0409 13.3334 12.0409C13.6323 12.0409 13.9189 11.9221 14.1303 11.7108C14.3416 11.4995 14.4603 11.2128 14.4603 10.9139L14.4603 1.36798C14.4606 1.21992 14.4316 1.07326 14.3751 0.936414C14.3185 0.79957 14.2355 0.675234 14.1308 0.570536C14.0261 0.465838 13.9018 0.382836 13.765 0.326293C13.6281 0.269749 13.4815 0.240775 13.3334 0.241032L3.78745 0.241033C3.63938 0.240776 3.49272 0.26975 3.35588 0.326294C3.21903 0.382837 3.0947 0.465837 2.99 0.570535C2.8853 0.675234 2.8023 0.799571 2.74576 0.936415C2.68921 1.07326 2.66024 1.21992 2.6605 1.36798Z" fill="white"/>
</svg>
