<svg width="234" height="462" viewBox="0 0 234 462" fill="none" xmlns="http://www.w3.org/2000/svg">
<path d="M189.932 81.2676C171.63 73.6816 180.962 57.4706 187.383 70.0376C186.96 63.4346 192.582 61.1686 194.466 65.1716C197.192 70.9536 192.737 77.2746 189.932 81.2676Z" fill="#0D7DE8"/>
<path d="M15.8957 412.469C-2.40673 404.884 6.92528 388.673 13.3468 401.239C12.9243 394.636 18.5451 392.371 20.4298 396.373C23.1558 402.155 18.701 408.478 15.8957 412.469Z" fill="#0D7DE8"/>
<path fill-rule="evenodd" clip-rule="evenodd" d="M4.42578 311.304L11.7126 308.019L12.1637 299.177L16.9054 305.869L24.6313 303.7L20.492 310.407C20.492 310.407 24.5141 316.981 25.2199 318.13L17.1046 315.42L11.8694 322.969L11.4525 313.859L4.42578 311.304Z" fill="white"/>
<path d="M4.73185 312.509C7.16079 311.414 9.58973 310.32 12.0187 309.224C12.5224 308.996 12.8332 308.634 12.8646 308.019C13.015 305.072 13.1653 302.124 13.3157 299.177C12.5998 299.387 11.8831 299.598 11.1672 299.808C12.7474 302.038 14.3286 304.27 15.9089 306.5C16.2336 306.958 16.6598 307.23 17.2114 307.074C19.787 306.351 22.3617 305.629 24.9374 304.905C24.5029 304.293 24.0693 303.681 23.6348 303.069C22.2547 305.304 20.8756 307.541 19.4955 309.776C19.2797 310.126 19.2815 310.688 19.4955 311.038C21.0712 313.613 22.645 316.188 24.2234 318.761C24.6569 318.149 25.0914 317.537 25.5259 316.925C22.8202 316.022 20.1155 315.118 17.4107 314.215C16.8756 314.036 16.4162 314.345 16.1081 314.789C14.3627 317.306 12.6174 319.821 10.8729 322.338C11.5888 322.548 12.3056 322.759 13.0214 322.969C12.8831 319.932 12.7438 316.896 12.6045 313.859C12.5777 313.275 12.2668 312.839 11.7585 312.654C9.41538 311.802 7.07315 310.951 4.73093 310.099C3.31673 309.584 2.71526 311.999 4.11746 312.509C5.15435 312.886 6.19032 313.263 7.22721 313.64C8.00488 313.922 8.78162 314.204 9.55929 314.488C11.4624 315.179 10.3628 315.24 10.3047 313.975C10.4412 316.973 10.5787 319.971 10.7161 322.969C10.7761 324.287 12.1893 324.574 12.8646 323.6C14.5878 321.116 16.3101 318.631 18.0334 316.148C17.3932 317.072 16.3065 316.461 17.6422 316.908C18.5786 317.221 19.5149 317.533 20.4503 317.846C21.9383 318.343 23.4263 318.84 24.9134 319.336C25.8525 319.649 26.7778 318.416 26.216 317.5C24.6597 314.965 23.109 312.426 21.5564 309.889C22.0186 310.644 21.2677 311.397 22.0481 310.133C22.4715 309.445 22.8959 308.759 23.3193 308.072C24.0887 306.826 24.858 305.58 25.6265 304.333C26.2104 303.387 25.2538 302.235 24.3239 302.497C21.7861 303.209 19.2483 303.922 16.7105 304.634C17.5675 304.394 18.2566 305.743 17.3406 304.45C16.7363 303.597 16.133 302.746 15.5297 301.893C14.7391 300.778 13.9495 299.663 13.1589 298.547C12.4744 297.581 11.0777 297.853 11.0104 299.178C10.8619 302.082 10.7143 304.987 10.5657 307.891C10.6156 306.908 11.9154 306.584 10.5454 307.202C9.61833 307.62 8.6903 308.038 7.76226 308.457C6.54825 309.004 5.33332 309.552 4.11838 310.1C2.76692 310.708 3.35917 313.128 4.73185 312.509Z" fill="#222221"/>
<path fill-rule="evenodd" clip-rule="evenodd" d="M82.3967 12.787L89.8653 10.023L90.8459 1.22998L95.1761 8.24398L103.016 6.62498L98.4833 13.026C98.4833 13.026 102.102 19.871 102.737 21.065L94.8016 17.788L89.1236 24.951L89.2546 15.833L82.3967 12.787Z" fill="white"/>
<path d="M82.7029 13.9928C85.1927 13.0718 87.6816 12.1498 90.1714 11.2288C90.7074 11.0298 90.9519 10.6128 91.0174 10.0238C91.3439 7.09278 91.6714 4.16177 91.998 1.23077C91.2821 1.44177 90.5653 1.65078 89.8485 1.86178C91.2923 4.19978 92.735 6.53778 94.1788 8.87578C94.4869 9.37477 94.9417 9.56178 95.4813 9.45078C98.0948 8.91078 100.708 8.37077 103.322 7.83177C102.887 7.21977 102.454 6.60678 102.019 5.99578C100.508 8.12978 98.997 10.2638 97.4859 12.3968C97.2415 12.7408 97.2996 13.3078 97.4859 13.6588C98.9029 16.3388 100.318 19.0198 101.74 21.6978C102.173 21.0858 102.608 20.4738 103.042 19.8618C100.397 18.7698 97.7525 17.6768 95.1068 16.5848C94.7535 16.4388 94.2286 16.5988 93.985 16.9068C92.0921 19.2948 90.2 21.6818 88.307 24.0698C88.9629 24.3648 89.6188 24.6588 90.2757 24.9538C90.319 21.9148 90.3633 18.8748 90.4067 15.8358C90.415 15.2308 90.0377 14.8428 89.5598 14.6298C87.2729 13.6148 84.987 12.5998 82.701 11.5838C81.3237 10.9728 80.7306 13.3928 82.0876 13.9948C83.0995 14.4438 84.1106 14.8928 85.1226 15.3418C85.8809 15.6788 86.6401 16.0158 87.3984 16.3528C89.3218 17.2068 88.082 17.1068 88.0986 15.9518C88.0561 18.9518 88.0128 21.9528 87.9694 24.9538C87.9547 25.9918 89.2701 26.6808 89.938 25.8378C91.807 23.4808 93.6751 21.1238 95.5441 18.7658C95.0053 19.4458 94.0828 18.8268 95.3199 19.3368C96.235 19.7148 97.1501 20.0928 98.0662 20.4708C99.521 21.0718 100.975 21.6728 102.43 22.2738C103.417 22.6818 104.2 21.3188 103.732 20.4378C102.332 17.7988 100.936 15.1558 99.5394 12.5148C99.9951 13.3758 99.2691 13.9548 100.091 12.7958C100.555 12.1398 101.019 11.4848 101.484 10.8288C102.327 9.63877 103.169 8.44978 104.012 7.25978C104.695 6.29578 103.573 5.24478 102.709 5.42378C100.133 5.95578 97.5588 6.48778 94.9832 7.01978C95.9472 6.82078 96.4703 8.10277 95.6594 6.78977C95.1086 5.89677 94.557 5.00378 94.0063 4.11078C93.2849 2.94178 92.5625 1.77278 91.8411 0.603776C91.164 -0.493224 89.8282 0.0167744 89.6917 1.23477C89.3688 4.12877 89.046 7.02178 88.7231 9.91578C88.8458 8.81578 90.034 8.64578 88.6751 9.14878C87.724 9.49978 86.7739 9.85278 85.8228 10.2038C84.5774 10.6648 83.3329 11.1248 82.0885 11.5858C80.6909 12.0998 81.2914 14.5148 82.7029 13.9928Z" fill="#222221"/>
<path d="M204.911 358.878C203.901 353.791 202.294 348.904 200.948 343.919C200.705 343.023 199.641 342.691 199.021 343.367C195.999 346.662 193.024 350.009 190.05 353.356C189.418 354.068 189.746 355.132 190.559 355.445C194.869 357.102 199.181 358.758 203.492 360.415C204.898 360.955 205.497 358.539 204.106 358.005C199.795 356.348 195.483 354.692 191.172 353.035C191.342 353.731 191.512 354.428 191.68 355.124C194.654 351.776 197.628 348.43 200.651 345.135C200.009 344.951 199.366 344.768 198.724 344.583C200.071 349.568 201.677 354.455 202.687 359.542C202.999 361.118 205.223 360.449 204.911 358.878Z" fill="#222221"/>
<path d="M127.285 440.372C123.67 443.794 120.504 447.685 117.134 451.377C116.52 452.049 116.806 453.209 117.642 453.466C121.766 454.737 125.908 455.937 130.049 457.135C130.964 457.4 131.608 456.514 131.468 455.598C130.716 450.706 129.964 445.815 129.212 440.924C128.968 439.336 126.745 440.012 126.988 441.588C127.74 446.48 128.492 451.371 129.244 456.262C129.717 455.749 130.189 455.237 130.662 454.725C126.52 453.527 122.378 452.327 118.256 451.056C118.425 451.752 118.595 452.449 118.764 453.145C122.134 449.453 125.3 445.562 128.915 442.14C130.038 441.077 128.4 439.316 127.285 440.372Z" fill="#222221"/>
<path d="M188.182 108.928C189.393 113.963 191.191 118.77 192.733 123.689C192.998 124.532 194.042 124.975 194.66 124.24C197.55 120.807 200.389 117.324 203.228 113.841C203.805 113.133 203.581 112.038 202.719 111.752C198.347 110.298 193.973 108.844 189.6 107.39C188.174 106.916 187.57 109.329 188.987 109.801C193.36 111.255 197.732 112.709 202.106 114.163C201.936 113.466 201.766 112.77 201.598 112.074C198.759 115.556 195.92 119.039 193.03 122.472C193.672 122.656 194.315 122.84 194.957 123.023C193.415 118.105 191.617 113.297 190.406 108.262C190.031 106.705 187.806 107.367 188.182 108.928Z" fill="#222221"/>
<path d="M66.3228 277.153C69.8265 278.319 73.331 279.485 76.8347 280.65C78.26 281.125 78.8651 278.712 77.4482 278.24C73.9445 277.074 70.4399 275.908 66.9363 274.743C65.511 274.269 64.9059 276.682 66.3228 277.153Z" fill="#222221"/>
<path d="M61.8672 281.943C65.2509 286.019 68.6346 290.095 72.0174 294.171C73.0147 295.372 74.6401 293.598 73.6484 292.403C70.2647 288.327 66.8819 284.251 63.4981 280.175C62.5009 278.975 60.8755 280.749 61.8672 281.943Z" fill="#222221"/>
<path d="M55.9308 285.671C57.2841 289.764 58.6374 293.857 59.9907 297.948C60.4888 299.454 62.7176 298.805 62.2148 297.284C60.8615 293.191 59.5082 289.099 58.1549 285.007C57.6568 283.501 55.428 284.149 55.9308 285.671Z" fill="#222221"/>
<path d="M24.9154 439.476C21.3527 442.749 17.7891 446.024 14.2264 449.297C13.0908 450.341 14.73 452.101 15.8573 451.065C19.42 447.792 22.9837 444.517 26.5463 441.244C27.6819 440.199 26.0427 438.44 24.9154 439.476Z" fill="#222221"/>
<path d="M29.0989 444.824C27.8572 448.322 26.6164 451.82 25.3747 455.319C24.8397 456.826 27.0703 457.471 27.5989 455.983C28.8406 452.485 30.0822 448.987 31.323 445.488C31.8581 443.982 29.6274 443.336 29.0989 444.824Z" fill="#222221"/>
<path d="M23.3434 432.239C19.064 432.748 14.7845 433.256 10.505 433.764C9.04376 433.938 9.02715 436.44 10.505 436.264C14.7845 435.755 19.064 435.247 23.3434 434.739C24.8047 434.565 24.8204 432.064 23.3434 432.239Z" fill="#222221"/>
<path d="M21.4825 136.735C15.7307 136.872 6.20309 141.139 12.2326 148.558C14.7537 151.66 18.9631 148.421 21.8118 148.13C23.7029 147.937 26.3957 150.399 25.5295 152.541C25.0184 153.803 23.7444 154.681 22.7297 155.387C20.5867 156.878 17.9244 157.643 15.393 157.524C13.906 157.454 13.9115 159.954 15.393 160.024C19.9576 160.239 31.3883 155.692 27.2425 148.826C25.2204 145.477 21.6162 145.303 18.5222 146.45C17.2703 146.914 16.0369 147.504 14.668 147.266C10.9263 146.617 13.0001 142.06 14.6071 140.945C16.5452 139.601 19.2417 139.288 21.4834 139.235C22.9677 139.2 22.9705 136.7 21.4825 136.735Z" fill="#222221"/>
<path d="M13.3591 135.34C17.943 144.013 19.1183 153.625 21.1376 163.217C21.4688 164.788 23.692 164.122 23.3618 162.552C21.2954 152.737 20.0343 142.942 15.3499 134.079C14.6109 132.68 12.6183 133.938 13.3591 135.34Z" fill="#222221"/>
<path d="M141.009 351.793C137.781 351.279 134.749 352.707 133.828 356.305C132.988 359.59 134.87 362.672 137.71 363.725C144.94 366.407 148.718 353.518 141.009 351.793C139.557 351.468 138.94 353.878 140.395 354.203C144.996 355.232 143.002 362.37 138.678 361.418C136.876 361.022 135.715 359.242 135.991 357.273C136.323 354.907 138.365 353.879 140.395 354.203C141.85 354.435 142.476 352.026 141.009 351.793Z" fill="#222221"/>
<path d="M154.881 363.826C151.653 363.312 148.621 364.74 147.702 368.338C146.861 371.623 148.744 374.705 151.583 375.758C158.814 378.44 162.591 365.551 154.881 363.826C153.429 363.501 152.812 365.911 154.268 366.236C158.867 367.265 156.876 374.403 152.551 373.451C150.749 373.055 149.588 371.275 149.865 369.306C150.197 366.94 152.237 365.912 154.267 366.236C155.722 366.468 156.348 364.06 154.881 363.826Z" fill="#222221"/>
<path d="M152.294 349.74C147.526 358.52 142.759 367.3 137.991 376.08C137.235 377.473 139.228 378.729 139.982 377.342C144.749 368.562 149.517 359.782 154.284 351.002C155.041 349.609 153.047 348.353 152.294 349.74Z" fill="#222221"/>
<path d="M164.489 442.033C158.557 443.122 154.52 449.385 157.267 455.732C159.793 461.566 166.04 462.667 171.056 460.026C174.966 457.966 176.242 452.926 174.947 448.688C173.514 443.999 169.171 441.522 164.795 441.988C163.329 442.144 163.315 444.645 164.795 444.488C170.728 443.856 176.214 451.161 171.464 456.64C168.757 459.763 163.62 459.625 160.778 456.944C158.778 455.056 158.421 451.643 159.102 449.043C159.842 446.218 162.698 444.885 165.102 444.443C166.566 444.175 165.943 441.766 164.489 442.033Z" fill="#222221"/>
<path d="M165.438 447.876C163.572 448.139 161.766 449.724 162.29 452.431C162.659 454.674 164.569 455.705 166.252 455.495C171.761 454.812 170.15 447.21 165.438 447.876Z" fill="#222221"/>
<path d="M165.132 446.671C162.023 447.239 160.107 450.623 161.502 453.846C162.792 456.826 166.033 457.362 168.574 456.024C170.575 454.97 171.282 452.325 170.617 450.146C169.89 447.762 167.697 446.385 165.438 446.626C163.972 446.782 163.958 449.284 165.438 449.126C166.596 449.002 167.588 449.338 168.223 450.444C168.762 451.386 168.689 452.613 167.989 453.421C167.018 454.541 165.106 454.526 164.078 453.558C163.343 452.865 163.238 451.622 163.487 450.671C163.756 449.641 164.897 449.237 165.745 449.081C167.209 448.813 166.586 446.404 165.132 446.671Z" fill="#222221"/>
<path d="M203.009 436.597C197.076 437.684 193.041 443.95 195.788 450.296C198.313 456.13 204.561 457.232 209.576 454.59C213.485 452.53 214.762 447.49 213.467 443.252C212.035 438.562 207.692 436.086 203.316 436.552C201.85 436.708 201.836 439.209 203.316 439.052C209.249 438.42 214.733 445.725 209.984 451.204C207.277 454.327 202.14 454.189 199.299 451.508C197.299 449.62 196.942 446.206 197.622 443.607C198.362 440.781 201.218 439.449 203.622 439.007C205.085 438.738 204.463 436.33 203.009 436.597Z" fill="#222221"/>
<path d="M203.958 442.438C202.094 442.702 200.287 444.286 200.811 446.992C201.18 449.235 203.09 450.267 204.773 450.058C210.283 449.375 208.67 441.773 203.958 442.438Z" fill="#222221"/>
<path d="M203.652 441.233C200.545 441.803 198.627 445.184 200.023 448.407C201.313 451.387 204.553 451.924 207.095 450.587C209.096 449.533 209.803 446.888 209.138 444.709C208.41 442.325 206.216 440.948 203.958 441.188C202.492 441.344 202.478 443.845 203.958 443.688C205.117 443.565 206.108 443.9 206.744 445.007C207.284 445.949 207.21 447.176 206.511 447.984C205.538 449.105 203.626 449.088 202.599 448.119C201.864 447.426 201.759 446.184 202.008 445.233C202.277 444.204 203.418 443.799 204.266 443.643C205.729 443.375 205.106 440.966 203.652 441.233Z" fill="#222221"/>
<path d="M153.863 444.768C164.767 443.683 175.627 442.204 186.484 440.669C196.753 439.218 207.099 438.485 217.343 436.817C218.809 436.579 218.184 434.17 216.729 434.407C206.162 436.127 195.482 436.897 184.887 438.394C174.563 439.853 164.232 441.235 153.863 442.267C152.394 442.414 152.381 444.915 153.863 444.768Z" fill="#222221"/>
<path d="M146.629 402.591C147.648 411.194 148.292 419.838 149.243 428.447C149.589 431.583 149.829 435.788 152.229 438.004C154.331 439.944 157.634 439.434 160.148 439.192C169.314 438.312 178.452 437.155 187.573 435.84C196.018 434.624 205.014 434.515 213.307 432.403C217.646 431.299 218.515 426.761 218.703 422.513C219.322 408.431 217.616 393.497 215.99 379.535C215.903 378.793 215.31 378.029 214.53 378.33C203.719 382.494 192.611 385.808 181.638 389.425C170.22 393.189 159.056 398.296 147.475 401.384C146.031 401.769 146.644 404.18 148.089 403.794C159.668 400.707 170.836 395.606 182.251 391.836C193.222 388.212 204.331 384.905 215.142 380.74C214.655 380.339 214.169 379.936 213.682 379.535C215.156 392.185 215.937 405.041 216.353 417.78C216.474 421.496 217.238 428.192 213.29 429.801C210.619 430.888 207.381 430.805 204.573 431.094C199.409 431.624 194.264 432.377 189.122 433.117C180.576 434.344 172.032 435.391 163.456 436.332C160.746 436.629 156.709 437.782 154.118 436.39C151.604 435.039 151.628 429.268 151.374 426.834C150.528 418.755 149.888 410.657 148.933 402.59C148.749 401.015 146.44 400.995 146.629 402.591Z" fill="#222221"/>
<path d="M217.095 393.573C216.775 386.962 216.456 380.349 216.136 373.738C216.09 372.797 216.044 371.855 215.999 370.915C215.963 370.175 214.588 371.994 215.461 371.854C216.212 371.733 216.963 371.613 217.714 371.492C222.626 370.706 227.539 369.915 232.461 369.209C233.913 369.001 233.933 366.498 232.461 366.709C226.475 367.568 220.501 368.531 214.529 369.495C214.048 369.572 213.658 370.198 213.683 370.7C214.052 378.325 214.42 385.949 214.789 393.574C214.866 395.177 217.174 395.186 217.095 393.573Z" fill="#222221"/>
<path d="M179.596 391.691C180.924 405.821 182.844 419.905 183.983 434.048C184.111 435.641 186.418 435.654 186.289 434.048C185.15 419.904 183.23 405.82 181.903 391.691C181.753 390.103 179.446 390.087 179.596 391.691Z" fill="#222221"/>
<path d="M198.678 385.543C200.917 400.845 200.969 416.323 202.585 431.675C202.752 433.258 205.06 433.276 204.891 431.675C203.252 416.102 203.174 400.402 200.903 384.879C200.67 383.29 198.448 383.967 198.678 385.543Z" fill="#222221"/>
<path d="M160.903 399.132C162.227 411.589 164.452 424.543 164.294 437.079C164.274 438.692 166.58 438.689 166.6 437.079C166.758 424.543 164.533 411.589 163.209 399.132C163.041 397.55 160.733 397.532 160.903 399.132Z" fill="#222221"/>
<path d="M150.895 429.766C173.037 427.144 195.188 424.512 217.278 421.408C218.731 421.204 218.75 418.701 217.278 418.908C195.188 422.012 173.037 424.644 150.895 427.266C149.433 427.438 149.417 429.941 150.895 429.766Z" fill="#222221"/>
<path d="M150.02 420.536C163.898 419.128 177.569 415.707 191.33 413.372C199.982 411.903 208.583 409.989 217.149 408.024C218.604 407.691 217.987 405.281 216.536 405.614C208.31 407.501 200.055 409.28 191.76 410.777C177.907 413.279 164.006 416.616 150.02 418.036C148.552 418.186 148.538 420.687 150.02 420.536Z" fill="#222221"/>
<path d="M149.741 411.726C160.291 409.821 170.612 406.918 180.983 404.129C192.352 401.071 203.89 398.892 215.167 395.412C216.595 394.972 215.987 392.559 214.554 393.002C203.767 396.33 192.745 398.476 181.852 401.324C170.966 404.171 160.186 407.318 149.127 409.315C147.663 409.58 148.287 411.988 149.741 411.726Z" fill="#222221"/>
<path d="M10.2388 61.0094C18.7747 105.767 15.7811 110.479 22.1464 109.855C27.6694 109.314 43.5226 106.664 49.9681 105.486C54.4791 104.661 62.9892 103.038 67.6902 102.244C77.3783 100.607 75.2649 100.868 73.2963 82.8934C72.1404 72.3384 69.7612 60.1844 68.241 50.4014" fill="white"/>
<path d="M9.12604 61.3414C11.0587 71.5404 12.7948 81.7754 14.305 92.0574C15.0217 96.9364 15.4553 101.996 16.7071 106.762C17.2044 108.655 18.0927 110.485 19.97 111.008C24.1563 112.173 30.0613 110.054 34.2051 109.403C41.8582 108.2 49.4863 106.842 57.1071 105.422C61.2934 104.642 65.4843 103.892 69.678 103.159C71.3173 102.872 73.5276 102.623 74.7979 101.294C77.7831 98.1734 75.4372 90.8404 74.9556 87.1514C73.3348 74.7284 71.3053 62.4344 69.3524 50.0674C69.1014 48.4814 66.8791 49.1554 67.1282 50.7324C68.821 61.4484 70.9059 72.0954 72.1429 82.8924C72.5747 86.6624 73.1069 90.4144 73.5728 94.1794C73.7868 95.9104 74.4464 98.7454 72.7472 99.7854C70.9935 100.859 68.3312 100.875 66.3939 101.207C62.2473 101.917 58.1117 102.709 53.9743 103.48C47.193 104.744 40.3997 105.909 33.5917 106.992C29.7042 107.61 24.5373 109.414 20.5826 108.597C18.9913 108.268 18.7173 105.317 18.4507 103.985C15.5918 89.6804 14.0688 75.0324 11.3493 60.6774C11.0513 59.0984 8.82807 59.7684 9.12604 61.3414Z" fill="#222221"/>
<path d="M3.70264 46.1036C4.41204 50.6646 5.54395 58.9006 6.25427 63.4616C6.25427 63.4616 15.1841 61.6926 18.0927 61.2956C36.325 58.2306 55.0305 55.3446 72.9972 51.5226L70.1134 34.8936C70.1134 34.8936 49.4623 37.6876 38.4957 39.7396C29.1157 41.4926 10.7736 44.8086 3.70264 46.1036Z" fill="#222221"/>
<path d="M2.59022 46.4354C3.47674 52.2154 4.25533 58.0144 5.14185 63.7934C5.25163 64.5064 5.99516 64.7784 6.56066 64.6664C28.7468 60.2824 51.1562 57.3954 73.3035 52.7274C73.9567 52.5894 74.2177 51.8174 74.1089 51.1894C73.1476 45.6464 72.1864 40.1034 71.2252 34.5604C71.1394 34.0684 70.584 33.5794 70.1126 33.6434C47.7632 36.6734 25.6001 40.8354 3.39556 44.8974C1.93155 45.1654 2.55424 47.5744 4.00902 47.3084C20.6315 44.2674 37.2356 40.9934 53.9329 38.4624C58.0638 37.8364 62.1976 37.2444 66.3341 36.6644C67.3239 36.5254 68.3137 36.3894 69.3045 36.2534C70.8405 36.0424 68.9189 34.7524 69.1071 35.8384C70.0333 41.1774 70.9595 46.5154 71.8847 51.8544C72.1532 51.3414 72.4216 50.8294 72.6901 50.3164C50.5436 54.9854 28.1342 57.8724 5.94719 62.2554C6.42044 62.5464 6.89276 62.8374 7.366 63.1284C6.47948 57.3484 5.70089 51.5504 4.81436 45.7704C4.57082 44.1834 2.34944 44.8584 2.59022 46.4354Z" fill="#222221"/>
<path d="M40.3893 36.8555C38.4096 37.2175 34.822 37.7135 32.8423 38.0765C32.8423 38.0765 34.3875 47.6305 34.8109 50.7255C37.7223 70.1845 40.5922 90.1245 43.82 109.367L51.0128 107.735C51.0128 107.735 48.0183 85.7535 46.1752 74.0315C44.5977 64.0075 41.5645 44.4115 40.3893 36.8555Z" fill="#0D7DE8"/>
<path d="M40.0822 35.6504C37.5702 36.0834 35.0472 36.4384 32.5352 36.8714C31.8738 36.9854 31.6321 37.7994 31.7299 38.4094C35.5638 62.1414 38.7492 85.9894 42.7067 109.7C42.8239 110.4 43.5545 110.703 44.1255 110.573C46.5231 110.029 48.9207 109.485 51.3182 108.941C51.9871 108.789 52.2103 108.042 52.1236 107.403C48.8948 83.7204 45.1725 60.1294 41.501 36.5234C41.2538 34.9364 39.0315 35.6114 39.2768 37.1884C42.9484 60.7944 46.6707 84.3844 49.8994 108.068C50.1679 107.555 50.4363 107.043 50.7048 106.53C48.3072 107.074 45.9096 107.618 43.512 108.162C43.9853 108.453 44.4576 108.744 44.9308 109.035C40.9724 85.3254 37.787 61.4764 33.954 37.7444C33.6856 38.2574 33.4171 38.7694 33.1487 39.2824C35.6606 38.8494 38.1828 38.4944 40.6957 38.0614C42.1615 37.8084 41.537 35.3994 40.0822 35.6504Z" fill="#222221"/>
<path d="M31.8841 39.2653C21.6924 40.8603 4.32906 20.3223 16.4415 11.9073C28.9967 3.14333 36.2125 27.1563 35.4644 36.7243C33.4441 33.3213 28.8657 19.8763 23.3888 21.4173C16.4415 23.5333 30.2818 36.4193 31.8841 39.2653Z" fill="#0D7DE8"/>
<path d="M31.8841 38.0156C21.8418 39.0566 5.69896 20.2696 17.911 12.4166C29.0733 5.23856 34.7577 28.8206 34.3112 36.7246C35.0271 36.5136 35.7439 36.3036 36.4597 36.0936C34.4625 32.5086 27.8869 14.5736 21.4516 21.0946C16.3382 26.2766 28.565 36.2076 30.8878 39.8966C31.7199 41.2196 33.7199 39.9706 32.8786 38.6346C29.9727 34.0186 25.6425 30.7166 23.1425 25.7216C21.6019 22.6436 24.6213 21.9966 26.6462 23.7106C28.0641 24.9106 29.052 26.6926 29.9948 28.3196C31.6756 31.2196 32.8371 34.4276 34.468 37.3546C35.0824 38.4586 36.5474 37.9426 36.6166 36.7236C37.2697 25.1506 28.9109 0.886563 15.043 11.4486C2.50342 20.9996 21.1038 41.6326 31.8832 40.5146C33.3509 40.3626 33.3647 37.8616 31.8841 38.0156Z" fill="#222221"/>
<path d="M41.4212 37.5217C51.5309 35.4017 61.7181 9.82472 47.7302 6.18372C33.2174 2.37272 33.6667 27.6207 37.269 36.3937C38.1491 32.4597 38.4037 18.1317 44.0448 17.6377C51.2486 17.1667 42.0725 34.2627 41.4212 37.5217Z" fill="#0D7DE8"/>
<path d="M41.7274 38.7275C52.968 35.7985 62.9735 10.9705 48.9339 5.25353C32.7182 -1.34947 32.4175 27.0525 36.1564 36.7265C36.5512 37.7475 38.1149 38.0745 38.3805 36.7265C38.9368 33.9005 39.137 30.9955 39.5899 28.1475C39.863 26.4255 40.2624 24.7425 40.7652 23.0845C41.2357 21.5325 45.2356 16.0255 45.6314 20.4125C46.1544 26.2025 41.6536 31.8025 40.3076 37.1885C39.9183 38.7475 42.1434 39.4075 42.5318 37.8535C43.601 33.5735 52.1507 19.7155 45.8546 16.6885C37.7136 12.7745 36.9959 31.7935 36.1555 36.0605C36.8972 36.0605 37.6379 36.0605 38.3796 36.0605C35.3206 28.1485 33.7145 6.40853 45.8814 7.09353C60.8517 7.93553 50.6673 33.8255 41.1121 36.3155C39.6683 36.6935 40.2827 39.1045 41.7274 38.7275Z" fill="#222221"/>
<path d="M36.7354 38.9171C38.822 42.7231 51.2278 71.3611 55.5783 76.7771L63.4685 71.7532C60.1087 65.5912 47.2472 47.0871 41.6873 37.2021" fill="#0D7DE8"/>
<path d="M35.7398 39.5483C42.2914 51.8503 46.3264 66.6513 54.7626 77.6613C55.0892 78.0873 55.7442 78.1213 56.1602 77.8563C58.7903 76.1813 61.4203 74.5063 64.0504 72.8323C64.5863 72.4913 64.7893 71.7063 64.4636 71.1223C57.8133 59.1863 49.4426 48.4453 42.6825 36.5713C41.903 35.2023 39.9076 36.4573 40.6917 37.8333C47.4518 49.7083 55.8226 60.4483 62.4729 72.3843C62.6103 71.8143 62.7487 71.2443 62.8862 70.6743C61.7026 71.4283 60.519 72.1813 59.3345 72.9353C58.3493 73.5623 57.3641 74.1893 56.3798 74.8173C54.5735 75.9673 55.7506 75.0163 55.9886 75.3523C53.4979 71.8393 51.6492 67.6823 49.7359 63.7883C45.605 55.3823 42.1225 46.5323 37.7296 38.2863C36.9879 36.8913 34.9944 38.1493 35.7398 39.5483Z" fill="#222221"/>
<path d="M36.493 38.9614C35.6729 43.2994 32.6194 74.7674 30.1489 81.4294L21.1758 79.4914C22.4839 72.4724 29.0336 50.4194 31.2956 39.1034" fill="#0D7DE8"/>
<path d="M35.3811 38.6285C34.1948 45.3365 33.6828 52.2285 32.8286 58.9905C31.9144 66.2265 31.4227 74.2055 29.0371 81.0955C29.5103 80.8045 29.9827 80.5135 30.4559 80.2225C27.4642 79.5765 24.4735 78.9305 21.4827 78.2845C21.7512 78.7975 22.0196 79.3095 22.2881 79.8225C24.956 66.1805 29.6146 53.0565 32.4079 39.4345C32.7299 37.8635 30.5066 37.1965 30.1838 38.7695C27.3914 52.3915 22.7318 65.5155 20.0639 79.1575C19.9412 79.7855 20.2272 80.5565 20.8693 80.6955C23.8609 81.3415 26.8517 81.9875 29.8434 82.6335C30.5039 82.7765 31.0288 82.4345 31.2622 81.7605C33.6487 74.8655 34.1274 66.8925 35.0527 59.6555C35.918 52.8905 36.4189 46.0025 37.6062 39.2935C37.8829 37.7185 35.6606 37.0465 35.3811 38.6285Z" fill="#222221"/>
<path d="M136.781 38.1342C134.52 30.3352 132.259 22.5362 129.998 14.7382C129.525 15.2512 129.053 15.7632 128.58 16.2762C137.409 18.9352 146.445 20.5762 155.401 22.6272C155.232 21.9302 155.062 21.2342 154.893 20.5382C150.165 26.6652 145.438 32.7932 140.711 38.9212C139.764 40.1492 141.387 41.9272 142.342 40.6892C147.07 34.5622 151.797 28.4342 156.524 22.3062C157.039 21.6392 156.934 20.4272 156.016 20.2172C147.059 18.1672 138.022 16.5262 129.194 13.8662C128.369 13.6182 127.51 14.4862 127.775 15.4042C130.036 23.2032 132.296 31.0022 134.557 38.8002C135 40.3322 137.227 39.6772 136.781 38.1342Z" fill="#222221"/>
<path d="M130.316 15.6212C132.647 13.0732 134.979 10.5252 137.31 7.97722C138.011 7.21222 136.061 7.52722 138.236 8.03322C140.303 8.51422 142.369 8.99422 144.437 9.47522C146.307 9.91022 148.177 10.3452 150.047 10.7792C150.654 10.9202 151.26 11.0612 151.867 11.2022C152.034 11.2412 151.137 9.74822 151.564 11.2312C152.575 14.7382 153.586 18.2462 154.597 21.7532C155.039 23.2862 157.266 22.6312 156.821 21.0882C155.729 17.3002 154.638 13.5132 153.545 9.72522C153.43 9.32422 153.137 8.94422 152.74 8.85222C147.7 7.68022 142.661 6.50822 137.621 5.33622C136.146 4.99322 135.208 6.72622 134.282 7.73722C132.416 9.77622 130.551 11.8142 128.687 13.8532C127.637 14.9992 129.268 16.7672 130.316 15.6212Z" fill="#222221"/>
<path d="M141.299 8.0901C139.398 10.8201 137.497 13.5491 135.596 16.2791C134.699 17.5671 136.703 18.8101 137.587 17.5411C139.488 14.8121 141.388 12.0821 143.29 9.3521C144.187 8.0641 142.183 6.8201 141.299 8.0901Z" fill="#222221"/>
<path d="M146.229 9.05546C146.023 12.7705 145.818 16.4855 145.612 20.2015C145.522 21.8125 147.83 21.8035 147.918 20.2015C148.124 16.4865 148.33 12.7715 148.535 9.05546C148.625 7.44446 146.318 7.45346 146.229 9.05546Z" fill="#222221"/>
<path d="M135.592 17.7454C136.106 24.6535 136.621 31.5604 137.135 38.4684C137.254 40.0644 139.561 40.0764 139.441 38.4684C138.927 31.5604 138.412 24.6535 137.899 17.7454C137.78 16.1494 135.472 16.1374 135.592 17.7454Z" fill="#222221"/>
<path d="M145.77 19.5691C143.2 25.8251 140.631 32.0821 138.062 38.3381C137.463 39.7971 139.45 41.0701 140.053 39.6001C142.622 33.3441 145.191 27.0871 147.76 20.8301C148.36 19.3721 146.373 18.0991 145.77 19.5691Z" fill="#222221"/>
<path d="M139.523 35.7932C122.565 31.4952 104.993 37.7992 103.145 58.5232C101.294 75.9042 111.521 89.5072 126.882 91.9472C145.841 94.9582 162.336 87.9362 162.336 64.5392C161.72 46.4892 153.857 38.9702 139.523 35.7932Z" fill="white"/>
<path d="M139.83 34.5874C124.389 30.9024 106.95 35.6294 102.644 54.0624C98.1336 73.3654 110.086 90.7124 127.783 93.3304C143.261 95.6204 159.49 90.0854 162.905 71.7894C164.471 63.3994 163.17 53.6104 158.843 46.3834C154.644 39.3694 147.034 36.2674 139.83 34.5874C138.38 34.2494 137.762 36.6594 139.216 36.9984C145.525 38.4684 151.533 40.8524 155.881 46.2454C160.663 52.1764 161.578 61.3174 160.984 68.8204C159.593 86.4104 144.764 92.2924 130.479 91.1494C113.052 89.7554 101.825 74.8654 104.615 56.0574C107.301 37.9424 124.997 33.6044 139.216 36.9984C140.666 37.3434 141.282 34.9344 139.83 34.5874Z" fill="#222221"/>
<path d="M138.176 41.2512C126.065 38.4142 112.713 42.2092 109.493 56.6542C106.343 70.7902 115.042 84.4732 128.262 86.3832C140.316 88.1252 152.98 84.4652 155.868 70.1082C157.198 63.4992 156.094 55.7242 152.612 50.0752C149.383 44.8362 143.6 42.5342 138.176 41.2512C136.725 40.9092 136.109 43.3182 137.562 43.6622C142.084 44.7312 146.338 46.3602 149.632 50.0252C153.546 54.3792 154.291 61.3982 153.939 67.1522C153.141 80.1902 142.435 84.8712 131.82 84.2932C119.149 83.6032 110.226 73.6722 111.374 59.7302C112.586 45.0192 126.081 40.9722 137.562 43.6622C139.012 44.0022 139.629 41.5922 138.176 41.2512Z" fill="#222221"/>
<path d="M63.947 184.785C54.0615 183.096 45.2138 180.814 35.3283 179.125C17.5674 176.091 20.6098 179.293 16.2206 206.052C7.6699 258.197 3.76496 271.465 10.7344 272.853C16.9014 274.076 29.2177 276.839 37.1419 277.75C52.5606 279.521 56.6039 285.449 59.8899 264.986C70.9064 196.385 75.1877 185.933 63.947 184.785Z" fill="white"/>
<path d="M64.2542 183.58C52.5265 181.525 40.8753 178.05 29.0147 177.015C24.8718 176.654 20.906 177.53 19.1966 182.06C16.0444 190.416 15.9309 200.75 14.4761 209.558C12.454 221.804 10.2769 234.02 8.27786 246.27C7.25296 252.553 6.08692 258.973 5.99191 265.374C5.95316 268.035 6.19117 271.439 8.38118 273.132C9.81475 274.24 11.752 274.323 13.4162 274.666C19.1255 275.843 24.8303 277.039 30.5701 278.035C35.0193 278.806 39.5036 279.247 43.9417 280.102C46.7526 280.644 49.6815 281.43 52.5514 281.062C55.5025 280.683 57.4508 278.322 58.5477 275.469C61.5135 267.758 62.0504 258.785 63.3991 250.628C65.805 236.074 68.5024 221.558 70.5439 206.938C71.6859 198.763 74.7043 184.735 63.9471 183.535C62.4683 183.37 62.483 185.871 63.9471 186.035C71.2569 186.85 69.5005 196.215 68.8667 201.971C66.4535 223.879 62.1989 245.899 58.2783 267.529C57.651 270.991 56.8955 275.999 53.8927 278.041C51.4029 279.734 47.1677 278.203 44.5552 277.692C34.4049 275.708 24.1753 274.358 14.0296 272.256C10.0251 271.426 8.47989 271.061 8.30738 266.35C8.0703 259.897 9.48265 253.249 10.502 246.934C12.1856 236.512 14.037 226.122 15.7852 215.713C17.4097 206.04 18.4623 196.194 20.3414 186.579C21.5296 180.499 24.2694 179.101 29.7841 179.582C41.1604 180.575 52.3881 184.019 63.6399 185.991C65.0946 186.245 65.7192 183.837 64.2542 183.58Z" fill="#222221"/>
<path d="M61.5684 189.649C63.0555 189.649 63.0555 187.149 61.5684 187.149C60.0814 187.149 60.0814 189.649 61.5684 189.649Z" fill="#222221"/>
<path d="M44.9487 186.809C46.4357 186.809 46.4357 184.309 44.9487 184.309C43.4616 184.309 43.4607 186.809 44.9487 186.809Z" fill="#222221"/>
<path d="M48.448 187.408C49.9351 187.408 49.9351 184.908 48.448 184.908C46.96 184.908 46.96 187.408 48.448 187.408Z" fill="#222221"/>
<path d="M41.4488 186.212C42.9359 186.212 42.9359 183.712 41.4488 183.712C39.9617 183.712 39.9617 186.212 41.4488 186.212Z" fill="#222221"/>
<path d="M31.877 272.131C33.3641 272.131 33.3641 269.631 31.877 269.631C30.39 269.631 30.39 272.131 31.877 272.131Z" fill="#222221"/>
<path d="M59.4539 193.494C51.2944 192.1 43.9882 190.247 35.8287 188.853C21.1674 186.348 23.6951 188.882 20.2357 209.844C13.4959 250.694 10.3557 261.075 16.1103 262.214C21.2016 263.215 31.3703 265.468 37.909 266.237C50.6302 267.735 53.9992 272.414 56.5859 256.383C65.2602 202.642 68.7269 194.472 59.4539 193.494Z" fill="#222221"/>
<path d="M39.5885 189.736C32.8718 196.371 26.1551 203.006 19.4384 209.641C18.3369 210.729 19.9725 212.492 21.0684 211.409C27.7851 204.774 34.5019 198.139 41.2186 191.504C42.32 190.416 40.6845 188.653 39.5885 189.736Z" fill="white"/>
<path d="M56.5219 191.631C42.0848 205.724 27.4512 219.908 14.2991 235.428C12.2908 237.797 15.5445 241.343 17.5601 238.963C30.7113 223.443 45.3449 209.259 59.783 195.166C61.9979 193.004 58.7258 189.479 56.5219 191.631Z" fill="white"/>
<path d="M63.1593 207.975C47.4629 225.511 31.7666 243.048 16.0703 260.584C15.0343 261.741 16.6644 263.511 17.7013 262.352C33.3976 244.816 49.0939 227.279 64.7903 209.743C65.8253 208.585 64.1962 206.816 63.1593 207.975Z" fill="white"/>
<path d="M57.441 236.198C49.7086 245.197 41.9762 254.197 34.2447 263.197C32.2208 265.553 35.4744 269.096 37.5058 266.732C45.2382 257.733 52.9706 248.733 60.702 239.733C62.7269 237.378 59.4723 233.834 57.441 236.198Z" fill="white"/>
<path d="M59.7609 192.289C53.0101 191.102 46.3173 189.572 39.5849 188.271C35.7427 187.529 31.6219 186.554 27.693 186.879C22.6312 187.297 21.67 192.491 20.9569 197.037C19.0335 209.306 17.0944 221.558 14.992 233.796C13.754 241 12.1904 248.364 11.9588 255.716C11.8749 258.395 12.1701 261.856 14.7651 263.067C17.9385 264.548 22.0768 264.706 25.4559 265.38C30.9365 266.475 36.4558 267.137 41.9502 268.108C46.7666 268.961 52.3874 271.062 55.3597 265.529C57.6014 261.356 57.8587 255.691 58.6161 251.067C59.7425 244.187 60.9104 237.315 62.0783 230.443C63.7554 220.571 66.64 209.741 66.057 199.6C65.7969 195.077 63.5247 192.721 59.4528 192.245C57.975 192.072 57.9897 194.574 59.4528 194.745C62.2729 195.075 63.5035 196.542 63.7508 199.6C64.236 205.586 62.7987 211.933 61.8596 217.784C59.9141 229.914 57.7582 242.005 55.784 254.131C55.2222 257.583 54.8892 264.968 51.2426 266.532C48.2472 267.818 43.5194 265.841 40.4927 265.346C35.2104 264.483 29.9384 263.743 24.6801 262.692C22.2152 262.2 17.1082 262.326 15.1525 260.407C12.635 257.938 14.8001 249.508 15.2143 246.678C16.9053 235.111 19.1091 223.625 21.0288 212.1C21.8766 207.009 22.5251 201.886 23.325 196.786C23.7493 194.079 24.1386 190.416 26.955 189.527C30.5518 188.391 35.4669 190.033 38.9715 190.682C45.7122 191.93 52.3948 193.513 59.1465 194.7C60.6013 194.955 61.2259 192.546 59.7609 192.289Z" fill="#222221"/>
<path d="M102.398 435.897C100.372 435.359 98.3393 434.844 96.3117 434.309C93.4602 433.554 89.975 432.041 87.1291 433.635C82.6135 436.161 80.6486 441.699 74.9429 441.761C71.5666 441.797 68.4116 440.686 65.2022 439.677C61.6801 438.572 58.1313 437.576 54.6221 436.412C47.7688 434.138 40.9534 431.712 33.9922 429.847C33.2644 430.871 33.6204 431.947 35.542 433.126C45.207 438.039 59.5574 442.707 77.2722 445.604C81.5582 446.304 85.9788 434.091 91.4418 436.9C95.153 438.807 87.5018 448.935 91.1309 449.956C100.536 452.599 97.903 452.712 101.302 439.996C101.668 438.629 102.034 437.262 102.398 435.897Z" fill="#0D7DE8"/>
<path d="M67.2446 411.452C68.2354 411.812 69.2252 412.178 70.2317 412.483C71.4079 412.841 72.5462 413.087 73.7584 413.281C74.1911 413.35 75.0757 413.581 75.4669 413.28C76.346 412.603 76.5656 410.232 76.8368 409.219C77.299 407.486 77.7611 405.754 78.2251 404.021C79.2786 400.091 80.3801 396.174 81.3533 392.22C82.1624 388.932 82.5858 385.44 83.5498 382.21C83.8958 381.056 84.4935 380.666 85.6116 380.897C88.5396 381.5 91.4824 382.188 94.3458 383.087L114.228 389.331C114.746 386.164 114.648 383.578 113.08 382.937C104.876 379.579 89.2822 373.939 77.1366 372.588C75.704 381.93 71.5942 401.279 67.2446 411.452Z" fill="#0D7DE8"/>
<path d="M76.024 372.258C74.334 383.014 71.9226 393.726 68.6984 404.064C67.4651 408.019 66.2529 412.891 63.0564 415.52C60.1672 417.896 56.515 419.228 53.134 420.515C47.1571 422.791 40.5797 424.109 34.9848 427.419C31.1296 429.7 32.5466 433.001 35.9432 434.696C46.206 439.822 57.3489 442.872 68.3959 445.221C72.0351 445.994 76.8644 448.115 80.3256 445.871C83.4566 443.843 86.1798 437.166 90.3633 437.804C92.7941 438.174 89.1263 446.208 89.0183 447.754C88.7868 451.063 91.2683 451.291 93.7231 451.986C99.7719 453.698 100.158 450.067 101.421 444.37C103.978 432.832 107.466 421.515 110.216 410.024C112.026 402.455 115.277 394.378 115.663 386.529C115.96 380.487 108.421 379.75 104.431 378.317C95.557 375.131 86.44 372.481 77.1365 371.338C75.6596 371.156 75.6762 373.658 77.1365 373.838C89.0174 375.297 100.651 379.293 111.833 383.76C115.662 385.289 111.598 395.473 110.76 398.283C108.757 404.997 107.398 411.94 105.683 418.749C103.799 426.231 101.749 433.662 99.8116 441.128C99.1409 443.711 99.1243 450.641 95.7812 449.949C94.3098 449.645 91.0534 449.347 91.4122 447.378C91.724 445.664 92.475 444.001 93.0035 442.357C93.7609 440.002 94.1511 437.369 92.0248 435.82C89.986 434.334 87.1088 435.711 85.4787 437.179C84.0304 438.483 82.7619 439.966 81.4649 441.442C80.7444 442.261 80 443.033 79.1605 443.712C77.4382 445.105 74.3183 443.84 72.3672 443.478C60.3452 441.247 48.2771 437.923 37.1065 432.537C33.899 430.99 35.0512 430.065 37.6332 428.77C40.8334 427.166 44.3481 426.188 47.7051 425.052C53.7216 423.018 60.5205 421.106 65.4457 416.623C69.7953 412.664 71.3303 403.666 72.8497 398.118C75.1107 389.863 76.9133 381.408 78.2482 372.92C78.4954 371.346 76.2731 370.671 76.024 372.258Z" fill="#222221"/>
<path d="M76.3239 379.742C88.5277 383.542 100.873 386.779 113.075 390.578C114.508 391.024 115.115 388.612 113.689 388.168C101.485 384.368 89.1402 381.131 76.9374 377.332C75.5048 376.886 74.8968 379.298 76.3239 379.742Z" fill="#222221"/>
<path d="M34.8766 431.087C48.251 435.316 61.8154 440.495 75.6105 442.844C79.0837 443.436 81.5025 440.245 83.3789 437.644C88.0135 431.219 95.1906 434.271 101.317 436.214C102.748 436.668 103.355 434.255 101.93 433.804C97.7321 432.472 92.84 430.492 88.3844 431.278C83.4351 432.15 82.2202 436.624 78.58 439.599C76.1179 441.612 69.8015 438.937 67.1014 438.239C63.8818 437.406 60.6881 436.451 57.4769 435.583C50.0766 433.583 42.8092 430.991 35.4901 428.678C34.0583 428.224 33.4513 430.637 34.8766 431.087Z" fill="#222221"/>
<path d="M98.472 386.352C95.5781 401.856 91.5708 417.054 87.5145 432.239C87.1003 433.791 89.3254 434.449 89.7387 432.903C93.794 417.719 97.8023 402.521 100.696 387.016C100.99 385.442 98.7672 384.772 98.472 386.352Z" fill="#222221"/>
<path d="M83.1401 381.303C81.5064 387.564 80.1826 393.91 78.643 400.198C77.94 403.07 77.131 405.906 76.2528 408.72C75.5849 410.86 75.6716 412.832 72.8681 412.227C71.3672 411.904 69.8847 411.309 68.4217 410.831C66.9936 410.364 66.3885 412.777 67.8082 413.241C70.4106 414.091 72.9179 414.887 75.6264 415.176C76.1753 415.235 76.5544 414.741 76.738 414.258C80.7149 403.86 82.5479 392.758 85.3634 381.968C85.7693 380.413 83.5442 379.754 83.1401 381.303Z" fill="#222221"/>
<path d="M73.41 385.785C77.0751 386.936 80.7392 388.087 84.4034 389.237C85.8351 389.687 86.4421 387.274 85.0169 386.827C81.3518 385.676 77.6876 384.525 74.0234 383.375C72.5908 382.925 71.9838 385.338 73.41 385.785Z" fill="#222221"/>
<path d="M72.0197 390.986C75.6847 392.136 79.3489 393.288 83.014 394.438C84.4457 394.888 85.0527 392.475 83.6275 392.028C79.9624 390.877 76.2982 389.725 72.6331 388.576C71.2014 388.127 70.5944 390.539 72.0197 390.986Z" fill="#222221"/>
<path d="M70.63 396.187C74.2951 397.338 77.9593 398.489 81.6234 399.638C83.0552 400.087 83.6622 397.675 82.2369 397.228C78.5718 396.078 74.9076 394.927 71.2435 393.777C69.8118 393.327 69.2047 395.74 70.63 396.187Z" fill="#222221"/>
<path d="M69.2408 401.39C72.9059 402.54 76.5701 403.691 80.2343 404.842C81.666 405.292 82.273 402.879 80.8477 402.432C77.1836 401.28 73.5185 400.129 69.8543 398.98C68.4226 398.53 67.8156 400.942 69.2408 401.39Z" fill="#222221"/>
<path d="M67.8517 406.591C71.5168 407.74 75.1809 408.893 78.8451 410.043C80.2768 410.493 80.8848 408.08 79.4586 407.633C75.7944 406.482 72.1302 405.33 68.4651 404.181C67.0334 403.731 66.4264 406.144 67.8517 406.591Z" fill="#222221"/>
<path d="M65.9613 379.671C64.1855 378.483 62.3986 377.317 60.6209 376.128C58.1228 374.459 55.2363 371.857 52.0758 372.423C47.062 373.321 43.6202 377.935 38.1737 376.089C34.9505 374.996 32.2642 372.888 29.4976 370.856C26.4607 368.629 23.3658 366.497 20.3575 364.219C14.4812 359.768 8.68694 355.186 2.5929 351.087C1.61044 351.819 1.64365 352.961 3.13718 354.728C10.9388 362.625 23.2671 371.856 39.2992 380.523C43.1783 382.621 50.8516 372.475 55.251 376.97C58.2409 380.023 48.086 387.107 51.2492 389.289C59.4475 394.941 56.9097 394.17 63.7547 383.206C64.4908 382.027 65.226 380.85 65.9613 379.671Z" fill="#0D7DE8"/>
<path d="M39.4531 344.683C40.2935 345.357 41.1321 346.033 42.0029 346.661C43.0214 347.394 44.0333 348.009 45.132 348.599C45.5241 348.808 46.3018 349.324 46.7584 349.166C47.7861 348.813 48.6689 346.636 49.2141 345.76C50.1467 344.266 51.0785 342.771 52.012 341.279C54.1301 337.889 56.2897 334.532 58.3376 331.093C60.0396 328.235 61.4354 325.053 63.2693 322.303C63.9252 321.319 64.6051 321.15 65.6032 321.739C68.2185 323.29 70.8218 324.928 73.2913 326.739L90.4369 339.314C91.8271 336.474 92.4692 333.981 91.1583 332.847C84.306 326.914 71.07 316.345 59.8976 311.007C55.8819 319.417 46.4798 336.456 39.4531 344.683Z" fill="#0D7DE8"/>
<path d="M58.9022 310.376C54.2399 320.046 48.9051 329.434 42.9024 338.193C40.5925 341.565 37.9993 345.769 34.1912 347.192C30.694 348.498 26.755 348.513 23.0991 348.6C16.7827 348.752 10.0328 347.713 3.81422 349.211C-1.20971 350.422 1.43048 354.763 3.94337 357.207C12.4959 365.525 22.4478 372.175 32.5049 378.108C35.9919 380.166 39.1201 382.988 43.1173 381.424C44.7059 380.802 46.1846 379.794 47.6634 378.925C49.2132 378.014 56.3737 375.282 54.1135 379.932C52.8119 382.609 50.1043 384.597 49.5259 387.672C48.9983 390.475 53.1468 392.143 54.8322 393.181C56.3672 394.126 57.7565 394.267 59.1651 393.076C60.0941 392.29 60.7122 390.835 61.3035 389.776C63.059 386.637 64.9096 383.586 66.8062 380.544C72.8597 370.84 78.8587 361.097 84.5035 351.106C87.3512 346.066 91.9739 341.514 92.9619 335.47C93.7146 330.87 85.8033 326.794 83.0736 324.652C75.9593 319.07 68.4925 313.863 60.4797 309.925C59.1365 309.265 57.9631 311.418 59.3155 312.083C70.2158 317.44 80.1732 325.061 89.556 333.05C92.8419 335.848 86.8706 343.237 85.1723 345.813C81.5284 351.34 78.3264 357.174 74.9095 362.871C70.9372 369.493 66.844 376.03 62.7611 382.573C61.3819 384.782 60.1209 387.066 58.846 389.346C57.5139 391.728 56.7371 391.544 54.6384 390.153C54.1846 389.852 51.7279 388.449 51.8516 387.794C51.9973 387.02 52.7298 386.143 53.1495 385.519C54.1311 384.062 55.2141 382.724 56.1043 381.195C57.4539 378.878 57.0692 376.916 55.1504 375.322C52.9143 373.465 49.5158 375.152 47.3857 376.266C45.478 377.264 43.7234 378.538 41.7197 379.321C38.8951 380.427 33.206 375.689 30.7134 374.19C25.373 370.978 20.2034 367.44 15.2016 363.643C11.4175 360.77 5.71088 357.151 3.22105 352.774C2.40095 351.333 8.38244 351.133 9.06509 351.106C12.8132 350.953 16.5752 351.116 20.3242 351.126C25.7024 351.139 33.5113 351.699 38.0565 347.877C42.9882 343.73 46.6791 336.971 50.0804 331.422C53.9899 325.043 57.6209 318.425 60.893 311.638C61.5812 310.211 59.5913 308.946 58.9022 310.376Z" fill="#222221"/>
<path d="M57.1467 317.576C67.6789 325.265 78.5072 332.461 89.0385 340.15C90.2756 341.053 91.4287 338.887 90.2027 337.992C79.6714 330.303 68.8431 323.106 58.3109 315.418C57.0729 314.515 55.9207 316.682 57.1467 317.576Z" fill="#222221"/>
<path d="M3.1361 352.596C14.5354 360.995 25.9218 369.282 37.7446 376.969C41.1523 379.185 44.5573 377.055 47.4272 374.952C53.6273 370.41 59.6798 375.797 64.8965 379.645C66.1299 380.555 67.2821 378.388 66.0607 377.487C62.0405 374.52 57.9308 371.26 53.0148 370.447C48.7537 369.742 45.8691 373.88 42.1911 375.26C39.4918 376.273 35.217 372.39 33.0555 371.004C29.7392 368.878 26.5289 366.554 23.2586 364.345C16.7863 359.972 10.6056 355.083 4.30029 350.438C3.06599 349.528 1.91379 351.695 3.1361 352.596Z" fill="#222221"/>
<path d="M76.2609 331.278C69.1051 345.063 60.9769 358.186 52.8091 371.281C51.9733 372.621 53.9724 373.87 54.7998 372.543C62.9677 359.448 71.0967 346.325 78.2516 332.54C78.9823 331.134 76.9897 329.874 76.2609 331.278Z" fill="#222221"/>
<path d="M63.105 321.357C59.9408 326.494 57.0229 331.799 53.9565 337.004C52.0516 340.238 50.0322 343.388 47.8579 346.416C45.5858 349.581 43.0554 346.217 40.6984 344.449C39.4724 343.529 38.3202 345.697 39.5342 346.607C41.6799 348.217 43.7445 349.776 46.1448 350.912C46.5968 351.126 47.1817 351.175 47.5424 350.717C54.3477 342.071 59.296 332.034 65.0957 322.618C65.9241 321.273 63.926 320.023 63.105 321.357Z" fill="#222221"/>
<path d="M52.6587 322.354C55.8183 324.672 58.9788 326.99 62.1374 329.309C63.3727 330.216 64.5249 328.049 63.3016 327.151C60.143 324.832 56.9825 322.513 53.8229 320.196C52.5868 319.289 51.4346 321.456 52.6587 322.354Z" fill="#222221"/>
<path d="M49.8602 326.837C53.0198 329.156 56.1803 331.474 59.3398 333.791C60.5751 334.697 61.7282 332.53 60.504 331.633C57.3445 329.315 54.184 326.997 51.0244 324.679C49.7892 323.772 48.6361 325.939 49.8602 326.837Z" fill="#222221"/>
<path d="M47.0614 331.322C50.221 333.64 53.3815 335.958 56.5419 338.275C57.7772 339.181 58.9303 337.014 57.7061 336.117C54.5456 333.8 51.3852 331.481 48.2256 329.164C46.9904 328.258 45.8372 330.425 47.0614 331.322Z" fill="#222221"/>
<path d="M44.2632 335.808C47.4228 338.126 50.5824 340.445 53.7419 342.762C54.9772 343.668 56.1303 341.501 54.9061 340.604C51.7466 338.286 48.5861 335.968 45.4274 333.65C44.1913 332.742 43.0391 334.909 44.2632 335.808Z" fill="#222221"/>
<path d="M41.4644 340.294C44.6249 342.61 47.7845 344.93 50.9431 347.248C52.1783 348.155 53.3305 345.987 52.1073 345.09C48.9477 342.772 45.7891 340.452 42.6286 338.136C41.3925 337.229 40.2403 339.397 41.4644 340.294Z" fill="#222221"/>
<path d="M58.417 134.882C64.8699 132.669 93.6648 124.22 93.6648 124.22L112.4 135.85L101.7 155.644L66.7905 167.015L58.417 134.882Z" fill="white"/>
<path d="M58.7242 136.087C69.8265 132.325 81.1345 129.204 92.3585 125.899C92.8493 125.754 93.3401 125.61 93.8318 125.466C93.5541 125.548 92.7331 125.081 93.7257 125.697C95.8603 127.022 97.995 128.348 100.131 129.673C104.026 132.092 107.922 134.51 111.819 136.928C111.681 136.358 111.543 135.788 111.405 135.218C108.809 140.021 106.213 144.824 103.617 149.627C102.925 150.907 102.233 152.186 101.541 153.466C100.917 154.62 100.299 154.794 101.366 154.447C99.9728 154.901 98.5808 155.354 97.1878 155.807C86.9536 159.141 76.7194 162.474 66.4842 165.808C66.9575 166.099 67.4298 166.39 67.9031 166.681C65.1116 155.97 62.3201 145.259 59.5295 134.548C59.1255 132.999 56.9004 133.658 57.3054 135.213C60.0969 145.924 62.8883 156.635 65.6789 167.346C65.8468 167.99 66.4926 168.416 67.0977 168.219C77.7046 164.764 88.3106 161.309 98.9175 157.854C102.527 156.678 102.85 155.988 104.818 152.349C107.678 147.06 110.536 141.769 113.396 136.479C113.712 135.896 113.527 135.107 112.983 134.769C108.836 132.195 104.691 129.621 100.545 127.047C98.3419 125.68 95.1943 122.473 92.5144 123.261C81.0339 126.636 69.4676 129.827 58.1116 133.675C56.6956 134.156 57.2998 136.569 58.7242 136.087Z" fill="#222221"/>
<path d="M104.892 137.603C104.079 135.94 102.433 134.77 100.676 135.447C99.0188 136.086 98.1728 137.939 98.5603 139.764C98.9994 141.834 101 143.193 102.881 142.701C104.838 142.189 105.617 139.815 105.009 137.902C104.528 136.387 102.299 137.038 102.785 138.567C103.025 139.321 102.953 140.057 102.269 140.29C101.636 140.506 100.985 139.829 100.784 139.1C100.622 138.508 100.938 138.06 101.449 137.786C101.576 137.718 101.804 137.736 102.071 137.827C102.419 137.945 102.718 138.492 102.902 138.866C103.598 140.289 105.589 139.025 104.892 137.603Z" fill="#222221"/>
<path d="M102.128 139.846C109.21 139.487 111.326 133.034 113.612 126.8C115.592 121.401 118.554 117.064 124.426 116.958C130.539 116.847 135.961 123.045 137.063 129.147C137.349 130.728 139.571 130.057 139.287 128.482C137.475 118.445 126.995 111.381 118.217 116.118C110.171 120.459 112.074 136.842 102.129 137.347C100.647 137.421 100.64 139.921 102.128 139.846Z" fill="#222221"/>
</svg>
