<svg width="329" height="457" viewBox="0 0 329 457" fill="none" xmlns="http://www.w3.org/2000/svg">
<path d="M47.3387 76.2419C52.5213 77.7619 55.2168 82.9649 56.2417 88.3419C56.5425 89.9199 58.7648 89.2509 58.465 87.6769C57.2759 81.4399 53.8903 75.5729 47.9503 73.8309C46.514 73.4099 45.9051 75.8209 47.3387 76.2419Z" fill="#222221"/>
<path d="M27.7233 22.8179C36.6762 21.0829 47.9583 18.6599 54.104 10.6909C56.1944 7.98085 56.3826 4.39985 54.3088 1.72785C50.9417 -2.60915 45.7904 2.33485 42.9519 4.41585C41.7277 5.31285 42.88 7.47986 44.1161 6.57385C45.189 5.78786 46.2203 4.94985 47.2655 4.12085C50.272 1.73685 54.1714 6.71985 51.7646 9.84185C49.8651 12.3039 46.9676 13.8289 44.3384 15.1629C38.9612 17.8919 32.9234 19.2799 27.1098 20.4059C25.6477 20.6909 26.2694 23.0999 27.7233 22.8179Z" fill="#222221"/>
<path d="M52.456 11.6717C56.5602 16.1947 63.2179 15.9507 68.5665 14.9587C71.3174 14.4487 73.6587 13.2647 75.9834 11.6597C79.0083 9.5717 83.0941 6.7077 82.5784 12.9367C82.4446 14.5427 84.7527 14.5287 84.8846 12.9367C85.4326 6.3157 81.7832 5.2917 76.9447 8.1097C70.5508 11.8337 60.4144 16.8787 54.087 9.90469C53.0427 8.75369 51.4126 10.5217 52.456 11.6717Z" fill="#222221"/>
<path d="M83.6634 21.993C75.5971 22.518 68.7245 26.852 65.861 35.289C65.3454 36.806 67.575 37.454 68.0843 35.954C70.5722 28.623 76.7013 24.946 83.6634 24.493C85.1413 24.397 85.1505 21.896 83.6634 21.993Z" fill="#222221"/>
<path d="M2.97289 29.2667C15.1351 34.0167 28.1239 34.2847 40.836 35.8527C47.8073 36.7127 54.8451 37.0347 61.8533 37.2657C68.9916 37.5007 76.295 36.7577 83.3918 37.5487C84.8715 37.7137 84.8558 35.2117 83.3918 35.0487C76.8725 34.3217 70.1669 34.9717 63.6107 34.8157C56.5895 34.6487 49.5757 34.2377 42.5823 33.5427C29.5621 32.2477 15.9857 31.7007 3.58635 26.8577C2.18415 26.3077 1.58545 28.7237 2.97289 29.2667Z" fill="#222221"/>
<path d="M75.4126 25.682C73.5178 26.552 71.6968 27.696 70.2724 29.331C68.7521 31.08 68.3149 32.724 67.4911 34.844C66.4643 37.49 64.2393 37.345 61.8887 37.029C57.8085 36.479 53.7209 36.088 49.6287 35.635C45.2634 35.153 40.7635 34.302 36.3696 34.328C34.1888 34.341 31.044 34.878 29.0486 33.686C27.3014 32.642 28.1935 29.179 28.1483 27.468C28.033 23.171 25.3688 19.043 22.1115 16.791C21.5303 17.049 20.9463 17.311 20.3735 17.562C16.5368 19.239 5 23.555 2.93913 27.445C-3.53405 39.653 29.1418 41.128 35.9028 41.717C46.9636 42.68 66.9496 44.171 77.1552 44.303C84.9771 44.407 85.4033 33.858 84.7686 24.014C81.5813 23.971 78.3323 24.34 75.4126 25.682Z" fill="#0D7DE8"/>
<path d="M77.0576 9.92706C74.4718 11.3271 71.9811 12.7081 69.1564 13.4901C63.7256 14.9881 57.2977 15.1931 53.1907 10.4941C52.4094 11.6871 51.164 12.4841 50.5081 13.7191C49.0699 16.4171 54.8235 18.3121 56.3263 18.7301C60.6583 19.9311 65.3963 20.3611 69.8437 19.7401C73.0568 19.2941 76.0336 18.1721 78.9229 16.5971C80.3057 15.8421 81.7495 15.0531 82.933 13.9581C83.302 13.6131 83.7605 13.0711 84.1092 12.4581C84.0511 11.3031 84.0013 10.2421 83.9579 9.35406C82.2531 7.89506 78.7384 9.01506 77.0576 9.92706Z" fill="#0D7DE8"/>
<path d="M73.9613 59.9719C78.7583 62.6699 84.2831 60.8269 88.9067 58.5499C91.355 57.3439 93.7166 55.6199 95.4684 53.3939C97.271 51.1029 101.612 44.4809 103.032 51.1459C103.366 52.7159 105.589 52.0499 105.255 50.4809C103.989 44.5309 100.617 43.8729 96.747 47.9849C94.3384 50.5459 92.712 53.2439 89.7665 55.2219C85.7923 57.8909 79.5968 60.3269 75.1245 57.8129C73.8072 57.0729 72.6403 59.2299 73.9613 59.9719Z" fill="#222221"/>
<path d="M31.8438 93.202C44.7661 93.672 57.1987 89.636 69.7474 86.9C76.6265 85.4 83.4161 83.368 90.1531 81.257C97.0147 79.108 103.755 75.974 110.734 74.366C112.189 74.03 111.572 71.621 110.122 71.955C104.267 73.304 98.6401 75.89 92.9114 77.765C86.1873 79.967 79.406 81.953 72.5629 83.672C59.3287 86.996 45.5171 91.198 31.8438 90.701C30.3558 90.647 30.3604 93.148 31.8438 93.202Z" fill="#222221"/>
<path d="M62.9641 56.21C56.0897 64.714 48.1488 71.958 40.111 79.115C36.4625 82.364 28.6849 88.169 30.1554 94.419C32.6157 104.88 52.145 99.005 58.3654 97.551C73.7325 93.96 89.0773 89.727 104.175 84.999C110.361 83.061 113.324 79.864 112.583 72.535C111.778 64.582 107.853 57.238 105.207 49.895C104.673 48.411 102.442 49.056 102.984 50.56C105.272 56.911 108.114 63.007 109.732 69.623C110.558 73 111.158 77.292 108.857 80.149C106.923 82.55 101.82 83.138 99.1104 83.953C86.4473 87.761 73.655 91.089 60.8691 94.373C56.2234 95.566 33.4303 102.382 32.35 93.498C31.6452 87.706 41.2678 81.279 44.8259 78.167C51.8683 72.008 58.6284 65.36 64.596 57.978C65.5702 56.77 63.9457 54.995 62.9641 56.21Z" fill="#222221"/>
<path d="M22.5224 18.2928C27.0178 21.4988 28.0528 27.3328 27.5233 32.7898C27.3683 34.3928 29.6755 34.3758 29.8295 32.7898C30.4504 26.3908 28.8517 19.8178 23.6866 16.1348C22.4403 15.2448 21.2863 17.4108 22.5224 18.2928Z" fill="#222221"/>
<path d="M75.323 439.083C85.0296 442.94 95.023 445.947 105.148 448.191C115.312 450.443 126.019 452.001 136.346 450.266C137.813 450.02 137.188 447.612 135.734 447.856C125.35 449.599 114.586 447.736 104.397 445.478C94.7379 443.337 85.191 440.349 75.9356 436.672C74.537 436.117 73.9383 438.534 75.323 439.083Z" fill="#222221"/>
<path d="M53.5764 78.8691C61.592 74.2491 73.0126 67.6341 75.6242 57.3551C76.5402 53.7521 74.9046 50.4441 71.6417 49.4921C67.4471 48.2691 65.068 53.3391 62.9638 56.2091C62.0487 57.4571 63.6695 59.2381 64.5947 57.9771C65.8955 56.2041 71.1796 47.0911 73.4166 54.2381C74.5513 57.8641 70.8954 62.0621 68.8798 64.3671C64.318 69.5861 58.2231 73.3611 52.4131 76.7101C51.0995 77.4671 52.2637 79.6251 53.5764 78.8691Z" fill="#222221"/>
<path d="M49.4306 14.928C57.5163 25.228 75.4442 21.956 84.2605 14.551C85.4348 13.565 83.79 11.809 82.6295 12.783C74.7348 19.414 58.2395 22.304 51.0606 13.16C50.0966 11.931 48.473 13.708 49.4306 14.928Z" fill="#222221"/>
<path d="M66.0435 372.039C72.9539 370.587 90.5202 361.87 97.6935 362.375C101.395 362.636 104.613 360.811 105.121 364.589C107.421 381.71 126.508 380.079 129.765 370.113C131.145 365.889 136.447 369.178 139.481 370.685C143.237 372.556 143.997 373.194 148.434 376.511C155.781 382.005 160.66 387.346 167.48 394.894C164.078 402.846 161.677 407.037 157.115 414.026C149.294 409.578 143.137 404.631 137.454 399.124C134.881 413.309 136.861 439.224 137.301 454.646C124.886 457.12 85.0248 449.208 72.9225 442.369C72.9225 442.369 77.0277 434.202 81.6845 422.903C85.3293 413.56 89.713 400.04 92.0755 390.43C83.3274 394.746 76.2325 397.243 68.0379 398.426C67.0951 392.459 66.8626 378.703 66.0435 372.039Z" fill="white"/>
<path d="M66.3502 373.244C77.2836 370.716 87.5068 363.455 98.907 363.645C100.315 363.668 103.411 362.531 104.01 364.92C104.392 366.441 104.608 367.916 105.132 369.405C105.862 371.477 107.075 373.253 108.512 374.803C111.456 377.982 115.857 379.071 119.875 378.717C123.437 378.404 126.878 376.607 129.206 373.664C131.197 371.146 131.454 368.597 135.262 369.984C138.425 371.136 141.605 373.052 144.394 375.019C151.303 379.894 157.399 385.666 163.21 391.973C164.913 393.821 166.339 394.627 165.169 397.257C164.391 399.006 163.545 400.718 162.68 402.418C160.736 406.237 158.432 409.83 156.12 413.393C156.645 413.244 157.171 413.094 157.697 412.945C150.665 408.863 144.247 403.964 138.269 398.238C137.675 397.67 136.51 397.8 136.342 398.79C134.461 409.855 134.899 421.335 135.27 432.522C135.475 438.685 135.787 444.844 136.025 451.005C136.135 453.857 136.66 453.597 134.03 453.781C132.071 453.918 130.099 453.857 128.138 453.781C118.097 453.386 108.06 451.507 98.2382 449.307C89.9542 447.452 81.1092 445.45 73.5032 441.285C73.6416 441.855 73.7791 442.425 73.9165 442.995C82.1793 426.484 88.6424 408.883 93.1857 390.758C93.4726 389.613 92.3757 388.917 91.492 389.347C83.826 393.072 76.0632 395.918 67.7302 397.217C68.2035 397.508 68.6749 397.799 69.1481 398.09C67.9092 389.478 68.174 380.682 67.1943 372.035C67.0153 370.456 64.7072 370.437 64.888 372.035C65.8945 380.906 65.6528 389.917 66.9249 398.754C67.0301 399.486 67.781 399.715 68.3428 399.627C76.8722 398.299 84.8168 395.313 92.6553 391.505C92.0907 391.034 91.5252 390.565 90.9616 390.094C86.469 408.013 80.0936 425.41 71.9248 441.734C71.6389 442.304 71.7643 443.13 72.3381 443.444C82.2255 448.858 93.8886 451.081 104.686 453.202C115.167 455.261 126.958 457.771 137.605 455.847C138.092 455.759 138.468 455.153 138.452 454.642C137.899 436.494 135.504 417.452 138.563 399.452C137.921 399.637 137.278 399.82 136.636 400.004C142.754 405.865 149.326 410.921 156.53 415.102C157.12 415.445 157.736 415.227 158.108 414.654C162.076 408.542 165.541 402.293 168.472 395.522C168.697 395.002 168.679 394.436 168.292 394.007C159.001 383.734 149.408 374.136 137.196 368.16C134.164 366.676 130.175 365.682 128.649 369.777C126.705 374.995 120.959 376.856 116.19 376.137C110.41 375.266 107.177 370.099 106.229 364.252C105.439 359.38 99.4365 361.002 96.2272 361.13C85.6719 361.549 75.9313 368.47 65.7321 370.829C64.2838 371.169 64.9 373.58 66.3502 373.244Z" fill="#222221"/>
<path d="M106.687 59.4397C99.1751 62.6057 93.784 68.9877 93.4538 77.9747C93.3947 79.5877 95.701 79.5807 95.76 77.9747C96.0469 70.1837 100.792 64.5937 107.3 61.8517C108.67 61.2737 108.075 58.8547 106.687 59.4397Z" fill="#222221"/>
<path d="M103.24 363.586C111.245 360.538 108.394 369.799 112.846 373.263C115.203 375.096 118.828 374.851 121.464 373.96C125.599 372.562 126.411 365.344 131.617 368.722C132.897 369.552 134.056 367.39 132.781 366.564C130.451 365.051 126.647 363.792 124.743 366.847C122.838 369.903 121.621 371.907 117.884 372.092C114.942 372.238 113.637 371.182 112.709 368.415C110.766 362.61 109.062 358.725 102.627 361.176C101.234 361.706 101.834 364.122 103.24 363.586Z" fill="#222221"/>
<path d="M111.528 413.535C94.9915 395.697 112.369 382.944 113.758 399.98C116.239 392.573 123.365 393.05 123.633 398.393C124.023 406.115 116.36 410.66 111.528 413.535Z" fill="#0D7DE8"/>
<path d="M112.344 412.651C108.637 408.542 103.405 401.274 106.395 395.145C107.045 393.811 108.29 392.912 109.68 393.361C111.89 394.074 112.408 397.976 112.606 399.98C112.747 401.418 114.377 401.64 114.871 400.312C115.767 397.905 117.661 395.258 120.363 395.695C123.051 396.129 122.612 399.761 122.061 401.779C120.643 406.984 114.994 410.045 110.947 412.456C109.644 413.232 110.807 415.392 112.111 414.614C117.552 411.373 126.401 405.745 124.689 397.488C124.1 394.646 121.951 393.004 119.289 393.178C115.95 393.397 113.787 396.581 112.647 399.649C113.402 399.759 114.157 399.871 114.912 399.981C114.595 396.757 113.851 393.217 111.154 391.368C109.268 390.075 106.973 390.836 105.46 392.37C103.444 394.413 103.023 397.944 103.421 400.744C104.188 406.129 107.282 410.615 110.714 414.42C111.755 415.573 113.384 413.804 112.344 412.651Z" fill="#222221"/>
<path d="M99.8288 65.7077C98.2735 67.1657 96.8612 68.8607 95.9691 70.8917C95.0162 73.0627 95.0651 74.7707 94.8806 77.0637C94.6509 79.9247 92.4913 80.5257 90.1657 81.0047C86.1261 81.8377 82.1243 82.8237 78.1022 83.7537C73.8098 84.7457 69.2849 85.4317 65.1124 86.9167C63.0386 87.6537 60.1973 89.2117 57.963 88.7407C56.0027 88.3277 55.8745 84.7337 55.3468 83.1197C54.0212 79.0697 50.3183 76.0247 46.5812 74.9657C46.1015 75.4037 45.6191 75.8477 45.144 76.2767C41.9678 79.1487 32.2068 87.0927 31.3443 91.4787C28.6358 105.25 60.1549 95.7927 66.7572 94.1067C77.5588 91.3457 97.0032 86.1237 106.753 82.8557C114.228 80.3537 111.652 70.1707 108.262 61.0127C105.217 62.0297 102.23 63.4617 99.8288 65.7077Z" fill="#0D7DE8"/>
<path d="M96.9396 50.1659C94.876 52.3589 92.8936 54.5019 90.4249 56.1839C85.6805 59.4149 79.6197 61.7479 74.3818 58.6399C73.9768 60.0349 73.0155 61.2089 72.7406 62.6019C72.1373 65.6479 78.1474 65.5399 79.6954 65.4369C84.1584 65.1409 88.7884 63.9729 92.8465 61.9049C95.7801 60.4109 98.2948 58.3549 100.601 55.8949C101.703 54.7179 102.853 53.4859 103.67 52.0509C103.925 51.5999 104.208 50.9319 104.367 50.2329C103.987 49.1519 103.636 48.1589 103.345 47.3289C101.311 46.5059 98.2819 48.7399 96.9396 50.1659Z" fill="#0D7DE8"/>
<path d="M95.4349 363.551C97.2652 373.208 95.9912 382.987 90.53 391.034C89.6471 392.335 91.6499 393.58 92.5207 392.296C98.3463 383.713 99.6083 373.168 97.6581 362.887C97.3593 361.308 95.1369 361.978 95.4349 363.551Z" fill="#222221"/>
<path d="M138.585 370.436C133.129 378.582 132.272 392.179 136.646 401.056C137.348 402.479 139.338 401.216 138.637 399.794C134.634 391.667 135.609 379.115 140.576 371.697C141.451 370.39 139.448 369.145 138.585 370.436Z" fill="#222221"/>
<path d="M42.9532 4.41778C33.7512 10.3928 23.8602 14.6258 13.9452 18.9578C9.13155 21.0608 1.38439 23.7288 0.942514 30.4178C0.645469 34.9138 5.78102 37.3138 8.89262 38.5568C14.9313 40.9688 21.6388 41.6638 28.005 42.3098C44.0002 43.9338 60.1412 45.1738 76.201 45.5388C90.6556 45.8678 85.5256 21.7468 85.0044 12.3608C84.9149 10.7588 82.6087 10.7498 82.6982 12.3608C83.0459 18.6188 83.9002 24.8178 83.8005 31.1018C83.7498 34.3328 83.3725 37.6808 81.8365 40.5048C79.8808 44.1038 75.0931 43.0258 71.9068 42.9068C58.2584 42.3978 44.6321 41.2038 31.0179 40.0838C25.7107 39.6468 20.4128 39.0078 15.1979 37.8358C11.7385 37.0578 3.48215 35.4538 3.24784 30.4178C2.97201 24.4708 15.5309 20.9248 19.3141 19.3478C27.8509 15.7888 36.265 11.6748 44.1164 6.57579C45.3904 5.74879 44.2317 3.58678 42.9532 4.41778Z" fill="#222221"/>
<path d="M72.0031 64.0771C82.634 71.1651 98.7252 62.2571 105.074 52.2341C105.918 50.9011 103.919 49.6521 103.083 50.9721C97.4392 59.8821 82.6267 68.2251 73.1673 61.9181C71.8971 61.0711 70.7393 63.2341 72.0031 64.0771Z" fill="#222221"/>
<path d="M70.0264 371.212C70.2395 379.848 70.5125 388.48 70.9452 397.105C71.0255 398.708 73.3326 398.716 73.2514 397.105C72.8188 388.479 72.5457 379.847 72.3326 371.212C72.293 369.602 69.9867 369.598 70.0264 371.212Z" fill="#222221"/>
<path d="M163.067 391.48C159.552 397.644 156.787 404.93 151.516 409.624C150.366 410.648 152.007 412.406 153.147 411.392C158.578 406.558 161.443 399.085 165.059 392.742C165.842 391.367 163.847 390.112 163.067 391.48Z" fill="#222221"/>
<path d="M41.6846 7.22579C43.7077 11.0008 45.0305 15.1728 47.3229 18.7828C48.1596 20.1008 50.1596 18.8528 49.3137 17.5208C47.0213 13.9118 45.6993 9.73879 43.6754 5.96379C42.9282 4.57079 40.9355 5.82979 41.6846 7.22579Z" fill="#222221"/>
<path d="M35.8928 10.242C37.7848 13.928 39.6759 17.615 41.568 21.301C42.2903 22.71 44.2829 21.449 43.5588 20.039C41.6667 16.353 39.7746 12.666 37.8835 8.97998C37.1612 7.57098 35.1686 8.83198 35.8928 10.242Z" fill="#222221"/>
<path d="M30.3146 13.5276C31.929 16.6706 33.5545 19.8046 35.429 22.7766C36.262 24.0986 38.262 22.8496 37.4197 21.5146C35.5452 18.5426 33.9198 15.4096 32.3054 12.2656C31.5831 10.8566 29.5905 12.1176 30.3146 13.5276Z" fill="#222221"/>
<path d="M62.4614 59.306C65.5388 62.294 68.0324 65.898 71.3294 68.628C72.5111 69.607 73.6587 67.434 72.4936 66.47C69.3654 63.879 67.0148 60.375 64.0924 57.538C62.9872 56.466 61.3516 58.229 62.4614 59.306Z" fill="#222221"/>
<path d="M57.8018 64.103C60.6449 66.982 63.4871 69.862 66.3303 72.741C67.4151 73.84 69.0498 72.076 67.9613 70.973C65.1181 68.094 62.2759 65.214 59.4327 62.335C58.347 61.236 56.7132 63 57.8018 64.103Z" fill="#222221"/>
<path d="M53.4219 69.0859C55.8462 71.5409 58.2798 73.9839 60.9043 76.1879C62.0648 77.1619 63.7096 75.4059 62.5353 74.4209C59.9098 72.2169 57.4781 69.7739 55.0529 67.3179C53.9671 66.2189 52.3333 67.9829 53.4219 69.0859Z" fill="#222221"/>
<path d="M317.059 280.438C302.885 265.772 317.271 254.733 318.713 269.013C320.677 262.746 326.67 263.012 326.982 267.493C327.434 273.97 321.069 277.934 317.059 280.438Z" fill="#0D7DE8"/>
<path fill-rule="evenodd" clip-rule="evenodd" d="M306.918 111.937L314.648 113.66L319.603 106.62L320.057 115.045L327.572 117.958L320.671 120.984C320.671 120.984 320.591 128.873 320.58 130.253L315.272 123.067L307.03 126.121L311.405 118.333L306.918 111.937Z" fill="white"/>
<path d="M306.612 113.143C309.188 113.717 311.765 114.291 314.341 114.866C314.902 114.991 315.307 114.768 315.643 114.291C317.295 111.944 318.947 109.598 320.599 107.251C319.883 107.041 319.166 106.831 318.45 106.62C318.601 109.428 318.753 112.237 318.904 115.045C318.935 115.638 319.239 116.052 319.751 116.251C322.255 117.222 324.761 118.193 327.266 119.164C327.266 118.36 327.266 117.557 327.266 116.753C324.965 117.762 322.665 118.771 320.365 119.779C319.877 119.993 319.525 120.378 319.518 120.985C319.487 124.074 319.454 127.164 319.427 130.254C320.083 129.959 320.74 129.665 321.396 129.37C319.626 126.975 317.857 124.579 316.088 122.184C315.85 121.862 315.316 121.732 314.966 121.862C312.219 122.88 309.47 123.898 306.722 124.916C307.157 125.528 307.589 126.141 308.024 126.752C309.482 124.156 310.941 121.56 312.399 118.964C312.593 118.619 312.638 118.042 312.399 117.702C310.904 115.57 309.409 113.438 307.912 111.306C307.025 110.041 305.02 111.284 305.922 112.568C306.583 113.511 307.245 114.454 307.906 115.398C308.402 116.105 308.899 116.812 309.395 117.52C310.432 118.998 309.789 118.806 310.352 117.801C308.912 120.364 307.472 122.927 306.032 125.49C305.524 126.393 306.364 127.685 307.334 127.326C310.046 126.321 312.76 125.316 315.472 124.311C314.673 124.607 314.186 123.587 315.007 124.698C315.619 125.527 316.231 126.356 316.844 127.185C317.817 128.502 318.79 129.819 319.763 131.136C320.422 132.029 321.722 131.251 321.731 130.252C321.757 127.207 321.79 124.162 321.822 121.117C321.811 122.093 320.449 122.42 321.909 121.78C322.616 121.47 323.323 121.16 324.029 120.85C325.313 120.287 326.595 119.725 327.877 119.163C328.935 118.699 329.007 117.19 327.877 116.752C325.409 115.795 322.94 114.838 320.472 113.881C321.388 114.236 321.241 115.623 321.156 114.049C321.097 112.976 321.04 111.904 320.981 110.831C320.906 109.427 320.83 108.023 320.754 106.619C320.683 105.299 319.29 105.016 318.606 105.988C316.975 108.305 315.344 110.621 313.713 112.938C314.334 112.056 315.451 112.565 314.039 112.25C313.055 112.031 312.071 111.811 311.087 111.592C309.798 111.305 308.51 111.018 307.221 110.731C305.773 110.408 305.155 112.818 306.612 113.143Z" fill="#222221"/>
<path fill-rule="evenodd" clip-rule="evenodd" d="M303.643 376.579L311.518 377.142L315.543 369.436L317.051 377.714L324.862 379.489L318.407 383.509C318.407 383.509 319.32 391.335 319.482 392.704L313.32 386.368L305.538 390.612L308.894 382.25L303.643 376.579Z" fill="white"/>
<path d="M303.643 377.829C306.268 378.017 308.893 378.205 311.518 378.392C311.912 378.42 312.325 378.135 312.514 377.773C313.856 375.205 315.197 372.635 316.539 370.067C315.836 369.967 315.134 369.868 314.432 369.768C314.934 372.528 315.437 375.288 315.94 378.046C316.012 378.445 316.381 378.836 316.745 378.919C319.348 379.511 321.953 380.103 324.556 380.694C324.464 379.932 324.372 379.171 324.28 378.41C322.129 379.75 319.977 381.09 317.825 382.43C317.507 382.627 317.206 383.09 317.254 383.509C317.612 386.574 317.967 389.64 318.329 392.704C318.985 392.409 319.642 392.115 320.298 391.82C318.243 389.708 316.19 387.596 314.135 385.484C313.74 385.078 313.215 385.028 312.738 385.289C310.143 386.703 307.55 388.118 304.955 389.533C305.481 390.102 306.006 390.673 306.532 391.243C307.651 388.456 308.77 385.668 309.888 382.881C310.099 382.358 310.107 381.798 309.708 381.366C307.958 379.475 306.208 377.585 304.458 375.694C303.404 374.555 301.773 376.323 302.827 377.462C304.577 379.353 306.327 381.243 308.077 383.134C308.017 382.629 307.957 382.124 307.897 381.619C306.778 384.406 305.659 387.194 304.541 389.981C304.086 391.118 305.024 392.288 306.119 391.691C308.714 390.277 311.307 388.862 313.901 387.447C313.435 387.382 312.969 387.317 312.504 387.252C314.558 389.364 316.611 391.476 318.666 393.588C319.319 394.26 320.77 393.859 320.634 392.704C320.454 391.165 320.274 389.626 320.094 388.086C319.986 387.163 319.879 386.239 319.77 385.315C319.56 383.506 320.024 383.943 319.083 384.529C321.203 383.209 323.323 381.888 325.443 380.568C326.272 380.051 326.164 378.51 325.168 378.284C322.602 377.701 320.036 377.117 317.471 376.534C318.264 376.715 318.241 377.811 317.985 376.404C317.793 375.35 317.6 374.296 317.408 373.242C317.158 371.862 316.906 370.483 316.655 369.103C316.457 368.02 315.016 367.908 314.548 368.804C313.222 371.34 311.898 373.876 310.574 376.411C310.996 375.602 311.895 375.918 310.588 375.824C309.586 375.752 308.583 375.681 307.58 375.609C306.267 375.514 304.955 375.42 303.643 375.327C302.157 375.222 302.167 377.723 303.643 377.829Z" fill="#222221"/>
<path d="M205.177 29.3367C208.401 25.4807 211.126 21.2197 214.077 17.1257C214.545 16.4777 214.526 15.2047 213.568 15.0367C209.336 14.2947 205.094 13.6257 200.852 12.9577C200.026 12.8277 199.166 13.4897 199.434 14.4957C200.706 19.2587 201.978 24.0217 203.25 28.7857C203.662 30.3307 205.887 29.6727 205.473 28.1207C204.202 23.3577 202.93 18.5947 201.658 13.8307C201.184 14.3437 200.713 14.8557 200.24 15.3687C204.481 16.0367 208.724 16.7057 212.955 17.4477C212.785 16.7507 212.616 16.0547 212.446 15.3587C209.496 19.4507 206.768 23.7157 203.546 27.5697C202.551 28.7607 204.176 30.5337 205.177 29.3367Z" fill="#222221"/>
<path d="M275.975 264.102C271.177 264.247 266.451 265.053 261.683 265.572C260.892 265.658 260.143 266.596 260.687 267.453C263.119 271.28 265.605 275.067 268.093 278.851C268.581 279.593 269.62 279.719 270.084 278.851C272.379 274.562 274.675 270.272 276.97 265.983C277.717 264.586 275.725 263.328 274.979 264.721C272.684 269.01 270.388 273.3 268.093 277.589C268.757 277.589 269.42 277.589 270.084 277.589C267.597 273.805 265.109 270.018 262.678 266.191C262.347 266.818 262.014 267.445 261.683 268.072C266.451 267.553 271.177 266.747 275.975 266.602C277.459 266.557 277.464 264.057 275.975 264.102Z" fill="#222221"/>
<path d="M242.22 434.591C243.142 439.697 244.662 444.616 245.924 449.628C246.155 450.547 247.232 450.83 247.851 450.18C250.93 446.946 253.962 443.659 256.992 440.372C257.647 439.661 257.274 438.604 256.482 438.283C252.201 436.54 247.92 434.797 243.637 433.053C242.243 432.485 241.646 434.902 243.025 435.463C247.306 437.206 251.588 438.949 255.87 440.692C255.699 439.996 255.53 439.299 255.361 438.603C252.331 441.89 249.299 445.176 246.22 448.411C246.862 448.595 247.505 448.778 248.148 448.963C246.887 443.95 245.365 439.032 244.443 433.926C244.157 432.345 241.934 433.017 242.22 434.591Z" fill="#222221"/>
<path d="M190.38 91.5232C191.319 96.4152 192.259 101.306 193.199 106.198C193.502 107.776 195.725 107.106 195.422 105.533C194.482 100.641 193.543 95.7502 192.603 90.8582C192.3 89.2812 190.077 89.9502 190.38 91.5232Z" fill="#222221"/>
<path d="M195.984 87.8195C200.736 91.6185 205.49 95.4175 210.241 99.2155C211.441 100.174 212.588 98.0025 211.406 97.0575C206.654 93.2585 201.9 89.4595 197.148 85.6615C195.949 84.7025 194.801 86.8745 195.984 87.8195Z" fill="#222221"/>
<path d="M200.514 82.0474C205.026 82.6584 209.538 83.2704 214.05 83.8814C215.523 84.0814 215.506 81.5784 214.05 81.3814C209.538 80.7704 205.026 80.1584 200.514 79.5474C199.041 79.3484 199.058 81.8504 200.514 82.0474Z" fill="#222221"/>
<path d="M171.534 355.999C170.098 351.181 168.663 346.362 167.225 341.545C166.771 340.018 164.544 340.671 165.002 342.209C166.439 347.027 167.874 351.846 169.311 356.663C169.766 358.19 171.993 357.537 171.534 355.999Z" fill="#222221"/>
<path d="M165.439 358.113C162.928 355.537 160.416 352.961 157.905 350.385C156.825 349.278 155.192 351.042 156.274 352.153C158.785 354.729 161.297 357.305 163.808 359.882C164.888 360.988 166.522 359.223 165.439 358.113Z" fill="#222221"/>
<path d="M178.301 356.883C179.496 352.4 180.692 347.916 181.887 343.432C182.302 341.88 180.076 341.222 179.664 342.768C178.469 347.251 177.273 351.735 176.078 356.219C175.663 357.771 177.889 358.429 178.301 356.883Z" fill="#222221"/>
<path d="M225.949 329.503C220.197 329.641 210.67 333.906 216.698 341.325C219.22 344.428 223.429 341.189 226.278 340.898C228.169 340.705 230.862 343.167 229.994 345.308C229.484 346.571 228.209 347.449 227.195 348.155C225.052 349.646 222.389 350.412 219.858 350.293C218.371 350.224 218.377 352.724 219.858 352.793C224.422 353.007 235.854 348.461 231.708 341.595C229.686 338.246 226.082 338.072 222.988 339.219C221.737 339.683 220.504 340.273 219.134 340.034C215.391 339.385 217.465 334.828 219.074 333.713C221.013 332.369 223.708 332.057 225.95 332.003C227.434 331.968 227.437 329.468 225.949 329.503Z" fill="#222221"/>
<path d="M217.824 328.108C222.408 336.782 223.583 346.393 225.604 355.984C225.935 357.555 228.158 356.889 227.828 355.32C225.76 345.505 224.5 335.71 219.816 326.846C219.077 325.448 217.083 326.707 217.824 328.108Z" fill="#222221"/>
<path d="M225.175 122.244C221.947 121.731 218.916 123.16 217.995 126.757C217.155 130.043 219.037 133.124 221.877 134.178C229.107 136.862 232.884 123.971 225.175 122.244C223.724 121.919 223.107 124.329 224.562 124.655C229.16 125.685 227.169 132.825 222.846 131.871C221.044 131.474 219.882 129.695 220.159 127.725C220.491 125.359 222.531 124.331 224.562 124.654C226.016 124.886 226.643 122.478 225.175 122.244Z" fill="#222221"/>
<path d="M239.048 134.277C235.821 133.764 232.789 135.192 231.869 138.79C231.028 142.075 232.911 145.157 235.75 146.21C242.981 148.893 246.758 136.004 239.048 134.277C237.597 133.952 236.98 136.362 238.436 136.688C243.034 137.718 241.043 144.856 236.719 143.903C234.917 143.507 233.756 141.727 234.033 139.758C234.365 137.392 236.404 136.365 238.436 136.688C239.89 136.92 240.516 134.511 239.048 134.277Z" fill="#222221"/>
<path d="M236.462 120.193C231.694 128.973 226.927 137.753 222.159 146.533C221.403 147.926 223.397 149.183 224.15 147.795C228.917 139.015 233.685 130.235 238.452 121.455C239.21 120.062 237.215 118.805 236.462 120.193Z" fill="#222221"/>
<path d="M261.28 78.5361C257.307 85.1801 254.407 88.5001 249.054 95.4131C257.427 100.837 274.253 103.51 283.745 102.459C281.847 96.1211 278.278 88.8811 276.698 81.6681" fill="white"/>
<path d="M260.285 77.9052C256.687 83.8212 252.443 89.1212 248.239 94.5292C247.77 95.1312 247.783 96.0682 248.472 96.4922C258.6 102.726 272.249 104.798 283.744 103.709C284.444 103.643 285.116 102.953 284.856 102.127C282.649 95.1252 279.529 88.5212 277.809 81.3362C277.436 79.7772 275.212 80.4392 275.585 82.0012C277.304 89.1862 280.425 95.7912 282.632 102.792C283.002 102.264 283.374 101.737 283.744 101.21C272.633 102.263 259.437 100.367 249.636 94.3352C249.713 94.9892 249.791 95.6442 249.869 96.2982C254.201 90.7242 258.569 85.2642 262.275 79.1682C263.097 77.8162 261.099 76.5652 260.285 77.9052Z" fill="#222221"/>
<path d="M252.792 91.6932C261.052 98.0032 271.367 97.0742 280.939 98.2982C282.415 98.4862 282.397 95.9852 280.939 95.7982C271.772 94.6252 261.866 95.5762 253.957 89.5342C252.738 88.6042 251.588 90.7722 252.792 91.6932Z" fill="#222221"/>
<path d="M234.948 9.52135C225.577 61.3073 220.91 69.1593 233.76 72.2043C244.94 74.8503 261.124 77.3893 272.688 79.7363C282.324 81.6953 286.537 82.3353 296.136 84.4993C317.577 89.3313 316.102 86.3193 318.712 71.2123C320.577 60.4203 321.854 48.7654 323.207 37.4983C325.474 18.6023 330.309 23.4203 293.055 15.7393C276.362 12.2963 263.175 8.76135 245.641 5.36335C240.768 4.42035 236.031 2.29835 234.948 9.52135Z" fill="white"/>
<path d="M233.836 9.18842C231.618 21.3934 229.147 33.5404 226.88 45.7334C225.785 51.6174 224.397 57.8834 224.789 63.9314C225 67.1954 226.235 69.9884 228.879 71.6784C230.268 72.5654 231.897 73.0264 233.453 73.4084C239.584 74.9154 245.811 76.0074 252.007 77.1464C263.753 79.3064 275.488 81.5094 287.203 83.8564C295.076 85.4344 304.911 89.5484 313.005 87.4334C317.813 86.1774 318.455 79.8964 319.165 75.5344C321.336 62.2034 322.768 48.8064 324.634 35.4304C325.129 31.8814 327.227 26.0054 324.968 22.7214C321.91 18.2784 312.906 18.2794 308.503 17.4654C293.203 14.6384 278.05 11.1284 262.857 7.71243C255.832 6.13243 248.697 4.24142 241.579 3.26142C237.21 2.65942 234.782 4.53742 233.836 9.18842C233.516 10.7594 235.74 11.4274 236.059 9.85342C237.034 5.06542 239.765 5.36142 243.264 6.12242C246.29 6.78042 249.33 7.35542 252.362 7.98142C259.35 9.42442 266.31 11.0384 273.269 12.6394C285.474 15.4464 297.707 17.9914 310.005 20.2674C312.796 20.7844 322.036 21.0474 323.384 24.7014C323.927 26.1734 323.45 28.1304 323.22 29.6154C322.716 32.8674 322.218 36.1074 321.827 39.3794C320.247 52.6004 318.81 65.9204 316.218 78.9674C315.699 81.5804 314.943 84.1374 312.391 85.0244C308.431 86.4004 303.249 84.7344 299.351 83.9304C287.81 81.5484 276.288 79.0894 264.705 76.9384C253.98 74.9474 242.765 73.7664 232.288 70.5074C226.113 68.5864 226.757 62.0214 227.475 56.3014C229.435 40.7024 233.253 25.2894 236.057 9.85342C236.345 8.27942 234.123 7.60842 233.836 9.18842Z" fill="#222221"/>
<path d="M226.785 56.3234C240.924 61.2264 255.806 62.5214 270.308 65.6494C285.9 69.0134 301.451 72.3614 317.283 74.1234C318.762 74.2884 318.748 71.7864 317.283 71.6234C301.666 69.8854 286.289 66.6324 270.92 63.2384C256.423 60.0364 241.549 58.8194 227.398 53.9124C225.977 53.4204 225.375 55.8344 226.785 56.3234Z" fill="#222221"/>
<path d="M272.024 69.2682C266.965 68.2422 264.439 72.7542 269.795 74.9592C275.195 76.8922 277.564 70.3942 272.265 69.3172" fill="#0D7DE8"/>
<path d="M272.33 68.0633C269.885 67.6173 266.848 67.9913 265.798 70.8093C264.677 73.8163 268.431 76.0403 270.561 76.4503C272.9 76.9013 275.479 75.8853 276.26 73.2823C277.07 70.5793 274.732 68.6023 272.572 68.1133C271.121 67.7853 270.503 70.1953 271.959 70.5243C272.813 70.7173 274.287 71.2253 274.074 72.4543C273.846 73.7773 272.406 74.1023 271.368 74.0543C270.464 74.0123 267.696 73.0683 267.975 71.6373C268.262 70.1683 270.779 70.3033 271.717 70.4743C273.171 70.7393 273.795 68.3303 272.33 68.0633Z" fill="#222221"/>
<path d="M239.705 14.3808C233.861 46.0348 230.148 50.6618 241.484 53.2288C251.347 55.4618 265.566 57.8908 275.751 59.9578C284.237 61.6818 287.939 62.3008 296.401 64.1528C315.306 68.2828 313.884 66.3358 315.48 57.1008C316.62 50.4988 317.212 43.3238 317.881 36.4128C319.013 24.7938 323.439 28.0478 290.626 21.3048C275.925 18.2848 264.272 15.4048 248.838 12.3618C244.547 11.5288 240.324 9.95876 239.705 14.3808Z" fill="#222221"/>
<path d="M256.651 13.8047C249.971 18.3117 243.291 22.8197 236.61 27.3267C235.351 28.1767 236.507 30.3397 237.774 29.4847C244.454 24.9777 251.135 20.4697 257.815 15.9617C259.074 15.1137 257.918 12.9497 256.651 13.8047Z" fill="white"/>
<path d="M272.932 16.1488C260.04 25.8178 247.149 35.4868 234.257 45.1568C231.829 46.9778 234.132 51.3138 236.585 49.4738C249.477 39.8038 262.368 30.1358 275.26 20.4658C277.688 18.6458 275.385 14.3098 272.932 16.1488Z" fill="white"/>
<path d="M292.786 21.1435C278.988 32.2105 265.19 43.2775 251.392 54.3445C250.211 55.2915 251.359 57.4635 252.556 56.5025C266.354 45.4355 280.152 34.3685 293.95 23.3015C295.131 22.3545 293.983 20.1835 292.786 21.1435Z" fill="white"/>
<path d="M308.313 24.1008C295.782 35.0528 283.25 46.0038 270.719 56.9558C268.403 58.9798 271.689 62.4948 273.98 60.4908C286.511 49.5388 299.043 38.5878 311.574 27.6358C313.89 25.6118 310.604 22.0978 308.313 24.1008Z" fill="white"/>
<path d="M316.425 39.0328C308.528 46.7368 300.63 54.4408 292.733 62.1448C291.625 63.2258 293.261 64.9878 294.364 63.9128C302.26 56.2088 310.159 48.5048 318.056 40.8008C319.164 39.7198 317.527 37.9578 316.425 39.0328Z" fill="white"/>
<path d="M238.593 14.0485C236.764 23.8655 234.005 33.7325 233.064 43.7155C232.679 47.7915 233.616 51.5125 237.327 53.1965C240.624 54.6925 244.35 55.1385 247.834 55.8505C254.269 57.1645 260.73 58.3345 267.181 59.5545C278.799 61.7515 290.349 64.3405 301.961 66.5625C305.974 67.3305 313.116 69.3165 315.256 64.0205C316.288 61.4665 316.443 58.3335 316.89 55.6205C318.009 48.8035 318.307 41.8795 319.193 35.0315C319.528 32.4455 320.72 29.1055 318.853 26.9065C316.036 23.5895 308.655 23.5605 304.984 22.8595C291.831 20.3505 278.752 17.4845 265.664 14.6125C258.923 13.1335 252.169 11.6915 245.397 10.3895C242.128 9.76154 239.519 10.3675 238.593 14.0485C238.201 15.6065 240.425 16.2665 240.817 14.7135C241.985 10.0715 257.256 15.3445 260.308 15.9955C267.061 17.4365 273.797 18.9665 280.544 20.4385C291.073 22.7365 301.702 24.5015 312.22 26.8425C316.074 27.7005 317.962 28.0135 317.259 32.4275C315.72 42.0905 315.481 51.9435 313.561 61.5575C312.942 64.6555 311.085 65.0215 308.399 64.9405C302.501 64.7615 296.537 62.8835 290.771 61.6855C279.133 59.2685 267.452 57.0995 255.78 54.8775C250.69 53.9085 245.554 53.0135 240.525 51.7115C238.414 51.1645 236.225 50.3115 235.523 47.8795C234.753 45.2085 235.544 41.8695 235.993 39.2275C236.899 33.8775 238.106 28.5815 239.171 23.2685C239.741 20.4215 240.284 17.5695 240.816 14.7145C241.11 13.1395 238.887 12.4685 238.593 14.0485Z" fill="#222221"/>
<path d="M258.789 295.324C257.29 304.814 255.385 313.311 253.886 322.799C251.194 339.849 253.607 336.914 272.971 340.992C310.702 348.933 320.521 350.933 321.72 344.241C322.781 338.322 324.862 328.177 325.739 320.573C327.447 305.775 331.874 301.869 317.069 298.818C267.427 288.593 259.931 284.538 258.789 295.324Z" fill="white"/>
<path d="M257.678 294.992C255.749 306.911 251.905 319.258 251.824 331.424C251.788 336.868 255.323 338.737 259.722 339.742C270.612 342.228 281.677 344.143 292.627 346.33C299.793 347.762 307.158 349.446 314.476 349.529C317.281 349.56 320.682 349.175 322.258 346.302C323.742 343.599 323.778 339.493 324.339 336.487C325.541 330.056 326.394 323.599 327.369 317.131C328.08 312.413 330.936 304.583 326.424 301.026C323.336 298.592 319.251 297.999 315.601 297.245C308.955 295.872 302.318 294.443 295.682 293.006C285.848 290.876 275.133 287.288 264.995 287.719C260.465 287.911 258.181 290.588 257.637 295.323C257.454 296.92 259.763 296.901 259.943 295.323C261.04 285.774 276.164 291.421 281.417 292.497C292.624 294.791 303.787 297.329 314.987 299.656C318.252 300.334 324.795 300.786 326.288 304.782C327.514 308.067 325.677 313.172 325.145 316.467C324.186 322.402 323.478 328.362 322.4 334.28C321.843 337.339 321.892 342.978 319.993 345.492C317.658 348.58 310.59 346.85 307.622 346.462C296.691 345.031 285.853 342.432 275.054 340.16C270.423 339.186 265.765 338.412 261.124 337.497C258.633 337.007 255.222 336.54 254.356 333.517C253.155 329.329 254.927 323.482 255.619 319.384C256.957 311.455 258.618 303.596 259.902 295.655C260.156 294.08 257.934 293.406 257.678 294.992Z" fill="#222221"/>
<path d="M257.645 302.57C257.407 304.076 256.644 305.343 256.406 306.852C255.979 309.559 257.954 309.393 277.38 313.072C315.233 320.251 325.074 322.103 325.38 321.064C325.652 320.141 326.375 318.6 326.248 317.346C326.007 314.897 329.823 314.855 314.978 312.051C265.206 302.651 257.366 300.771 257.645 302.57Z" fill="#222221"/>
<path d="M256.533 302.238C255.361 306.759 254.061 309.338 258.888 310.735C269.032 313.671 279.845 314.806 290.176 316.759C298.828 318.395 307.477 320.065 316.155 321.524C318.975 321.998 322.331 322.99 325.207 322.505C327.218 322.166 328.213 316.903 327.618 315.064C327.159 313.64 325.762 313.245 324.549 312.859C318.799 311.027 312.63 310.345 306.74 309.228C291.797 306.394 276.833 302.954 261.768 300.946C260.574 300.787 256.22 299.915 256.491 302.57C256.653 304.154 258.961 304.172 258.798 302.57C258.869 303.266 257.846 303.251 258.786 303.211C259.777 303.168 260.786 303.321 261.767 303.446C266.38 304.032 270.964 304.975 275.539 305.83C284.682 307.537 293.815 309.3 302.954 311.037C308.79 312.146 314.642 313.181 320.458 314.412C321.989 314.736 325.476 315.009 325.186 316.228C324.86 317.602 325.255 320.056 324.44 320.081C323.225 320.118 321.986 319.904 320.784 319.741C314.688 318.913 308.626 317.687 302.574 316.562C291.289 314.465 280.018 312.28 268.731 310.201C265.495 309.605 262.208 309.107 259.032 308.188C256.233 307.378 258.058 305.6 258.756 302.902C259.159 301.347 256.934 300.688 256.533 302.238Z" fill="#222221"/>
<path d="M264.363 322.259C261.135 321.745 258.104 323.174 257.184 326.771C256.344 330.057 258.226 333.138 261.065 334.193C268.295 336.878 272.074 323.986 264.363 322.259C262.912 321.934 262.294 324.343 263.75 324.669C268.35 325.699 266.358 332.84 262.034 331.886C260.232 331.489 259.071 329.708 259.348 327.74C259.68 325.375 261.719 324.346 263.75 324.67C265.204 324.901 265.83 322.493 264.363 322.259Z" fill="#222221"/>
<path d="M269.8 324.531C263.037 323.244 261.691 333.097 267.846 334.24C273.588 335.306 275.748 325.635 269.8 324.531Z" fill="#0D7DE8"/>
<path d="M270.106 323.326C266.879 322.812 263.847 324.241 262.927 327.839C262.086 331.124 263.969 334.205 266.809 335.259C274.039 337.941 277.816 325.051 270.106 323.326C268.655 323.001 268.038 325.41 269.494 325.736C274.093 326.766 272.101 333.904 267.777 332.952C265.976 332.556 264.814 330.776 265.091 328.807C265.423 326.442 267.463 325.413 269.494 325.737C270.948 325.967 271.574 323.559 270.106 323.326Z" fill="#222221"/>
<path d="M287.876 322.968C297.874 325.577 308.114 326.729 318.163 329.048C319.613 329.383 320.23 326.973 318.776 326.638C308.727 324.318 298.487 323.166 288.489 320.558C287.043 320.18 286.43 322.591 287.876 322.968Z" fill="#222221"/>
<path d="M287.174 327.416C297.172 330.025 307.412 331.177 317.46 333.497C318.91 333.832 319.527 331.423 318.073 331.087C308.024 328.766 297.784 327.614 287.786 325.006C286.341 324.628 285.728 327.039 287.174 327.416Z" fill="#222221"/>
<path d="M296.576 337.403C303.019 339.329 309.698 339.862 316.196 341.502C317.643 341.867 318.257 339.457 316.809 339.092C310.312 337.451 303.634 336.918 297.189 334.993C295.753 334.563 295.144 336.975 296.576 337.403Z" fill="#222221"/>
<path d="M282.742 166.242C280.89 158.327 275.776 140.365 287.788 139.289C297.166 138.449 298.621 156.353 298.708 163.182C298.728 164.793 301.034 164.795 301.014 163.182C300.896 153.885 298.693 135.813 286.872 136.871C273.437 138.074 278.481 158.202 280.519 166.907C280.885 168.469 283.108 167.806 282.742 166.242Z" fill="#222221"/>
<path d="M262 167.176C264.294 181.672 266.087 196.939 268.382 211.433C269.216 216.704 273.067 239.048 273.067 239.048C273.067 239.048 319.857 231.187 327.257 229.641C327.257 229.641 327.257 229.641 325.256 213.057C323.274 200.538 321.291 188.02 319.204 174.844C318.788 172.207 317.157 160.809 316.336 156.723C316.336 156.723 261.896 166.517 262 167.176Z" fill="#0D7DE8"/>
<path d="M260.888 167.509C264.639 191.471 267.837 215.484 271.956 239.381C272.08 240.105 272.796 240.352 273.373 240.254C291.434 237.219 309.606 234.542 327.563 230.847C328.015 230.754 328.471 230.153 328.41 229.642C325.462 205.206 322.109 180.525 317.448 156.391C317.31 155.675 316.618 155.412 316.03 155.518C306.654 157.206 297.283 158.922 287.916 160.666C281.654 161.833 275.393 163.009 269.144 164.258C267.314 164.624 262.24 164.656 261.004 166.546C260.14 167.864 262.142 169.111 262.994 167.808C262.484 168.587 262.449 168.273 263.22 168.072C263.924 167.888 264.636 167.738 265.346 167.582C267.489 167.113 269.641 166.69 271.791 166.266C277.967 165.046 284.154 163.892 290.34 162.741C299.103 161.111 307.87 159.509 316.642 157.93C316.168 157.639 315.697 157.348 315.224 157.057C318.361 173.302 320.42 189.877 323.01 206.233C324.154 213.469 325.028 220.734 325.906 228.012C325.97 228.547 326.035 229.082 326.1 229.617C326.003 228.814 327.252 228.378 326.295 228.57C325.537 228.722 324.778 228.863 324.019 229.005C306.972 232.191 289.854 234.972 272.76 237.845C273.233 238.136 273.705 238.427 274.178 238.718C270.06 214.821 266.862 190.808 263.111 166.845C262.864 165.257 260.641 165.932 260.888 167.509Z" fill="#222221"/>
<path d="M257.469 174.123C259.764 188.618 261.556 203.885 263.851 218.38C264.686 223.651 268.538 245.994 268.538 245.994C268.538 245.994 315.326 238.134 322.725 236.587C322.725 236.587 322.725 236.587 320.725 220.003C318.744 207.485 316.761 194.966 314.675 181.79C314.257 179.153 312.628 167.757 311.806 163.67C311.806 163.67 257.365 173.464 257.469 174.123Z" fill="white"/>
<path d="M256.358 174.456C260.109 198.418 263.307 222.43 267.426 246.327C267.55 247.051 268.266 247.298 268.844 247.2C286.904 244.166 305.075 241.49 323.031 237.793C323.483 237.7 323.939 237.099 323.878 236.588C320.932 212.152 317.582 187.471 312.917 163.338C312.78 162.622 312.087 162.359 311.499 162.465C302.123 164.153 292.752 165.869 283.385 167.613C277.123 168.78 270.862 169.956 264.613 171.205C262.783 171.571 257.709 171.602 256.473 173.493C255.611 174.811 257.611 176.058 258.464 174.755C257.954 175.534 257.919 175.22 258.689 175.019C259.394 174.835 260.105 174.684 260.815 174.529C262.958 174.06 265.11 173.637 267.261 173.213C273.436 171.993 279.623 170.838 285.809 169.688C294.572 168.058 303.34 166.456 312.111 164.877C311.638 164.586 311.166 164.295 310.693 164.004C313.832 180.248 315.89 196.823 318.48 213.179C319.625 220.415 320.498 227.681 321.376 234.958C321.439 235.493 321.505 236.028 321.569 236.563C321.472 235.76 322.721 235.324 321.764 235.516C321.007 235.668 320.248 235.809 319.488 235.951C302.442 239.139 285.325 241.919 268.231 244.791C268.705 245.082 269.176 245.373 269.649 245.664C265.531 221.767 262.332 197.754 258.581 173.792C258.332 172.204 256.111 172.879 256.358 174.456Z" fill="#222221"/>
<path d="M312.614 164.386C314.13 162.691 315.412 160.749 316.38 158.633C317.039 157.194 315.05 155.927 314.389 157.371C313.504 159.306 312.37 161.067 310.983 162.618C309.948 163.776 311.577 165.545 312.614 164.386Z" fill="#222221"/>
<path d="M324.116 237.026C325.882 235.407 326.706 233.11 328.119 231.193C329.038 229.947 327.417 228.166 326.488 229.425C325.086 231.326 324.224 233.664 322.485 235.258C321.347 236.3 322.987 238.06 324.116 237.026Z" fill="#222221"/>
<path d="M258.518 173.982C259.863 171.94 261.344 169.996 262.814 168.06C263.752 166.826 262.13 165.047 261.183 166.292C259.587 168.392 257.985 170.504 256.526 172.72C255.661 174.035 257.663 175.282 258.518 173.982Z" fill="#222221"/>
<path d="M278.213 173.188C276.36 165.273 271.247 147.312 283.259 146.236C292.636 145.396 294.092 163.3 294.178 170.128C294.199 171.739 296.505 171.741 296.485 170.128C296.367 160.831 294.163 142.76 282.343 143.818C268.908 145.021 273.952 165.148 275.99 173.853C276.356 175.415 278.58 174.752 278.213 173.188Z" fill="#222221"/>
<path d="M323.843 417.116C317.391 414.903 288.595 406.454 288.595 406.454L269.859 418.084L280.56 437.878L315.471 449.248L323.843 417.116Z" fill="white"/>
<path d="M324.149 415.91C312.793 412.062 301.227 408.873 289.747 405.496C287.068 404.708 283.919 407.915 281.717 409.282C277.571 411.856 273.424 414.429 269.278 417.004C268.734 417.342 268.548 418.13 268.865 418.714C271.596 423.767 274.328 428.819 277.059 433.871C279.178 437.792 279.482 438.831 283.344 440.089C293.95 443.543 304.557 446.998 315.164 450.452C315.768 450.649 316.414 450.223 316.582 449.579C319.373 438.869 322.164 428.158 324.955 417.447C325.36 415.892 323.135 415.234 322.732 416.783C319.941 427.493 317.149 438.204 314.359 448.915C314.832 448.624 315.304 448.333 315.777 448.042C305.543 444.708 295.307 441.375 285.073 438.042C283.709 437.598 282.345 437.153 280.981 436.709C281.669 436.933 281.593 437.314 280.963 436.149C280.325 434.969 279.687 433.79 279.049 432.609C276.318 427.556 273.586 422.505 270.855 417.452C270.717 418.022 270.579 418.593 270.441 419.162C274.338 416.744 278.233 414.325 282.13 411.907C284.151 410.652 286.172 409.397 288.193 408.143C289.224 407.503 289.216 407.93 288.324 407.668C288.85 407.822 289.377 407.978 289.902 408.132C301.127 411.435 312.435 414.558 323.537 418.32C324.96 418.802 325.564 416.389 324.149 415.91Z" fill="#222221"/>
<path d="M279.359 421.098C279.576 420.655 279.798 420.298 280.208 420.053C280.423 419.924 280.597 419.965 280.853 420.045C281.222 420.16 281.579 420.717 281.509 421.176C281.4 421.904 280.732 422.669 280.13 422.558C279.333 422.412 279.221 421.602 279.475 420.799C279.961 419.271 277.733 418.62 277.252 420.135C276.616 422.14 277.429 424.118 279.244 424.887C281.164 425.7 283.028 424.005 283.656 422.155C284.222 420.491 283.336 418.485 281.861 417.806C280.021 416.961 278.26 418.015 277.368 419.836C276.671 421.259 278.662 422.522 279.359 421.098Z" fill="#222221"/>
<path d="M281.128 419.504C266.029 421.506 275.343 399.654 276.519 391.504C278.387 378.549 270.417 369.931 258.885 369.146C257.4 369.044 257.408 371.546 258.885 371.646C266.485 372.163 272.689 376.011 274.248 384.513C275.451 391.074 272.558 397.429 271.196 403.673C269.212 412.774 270.218 423.449 281.128 422.003C282.584 421.81 282.602 419.308 281.128 419.504Z" fill="#222221"/>
</svg>
