<svg width="14" height="15" viewBox="0 0 14 15" fill="none" xmlns="http://www.w3.org/2000/svg">
<path d="M2.1605 1.36774C2.16024 1.51581 2.18921 1.66247 2.24576 1.79931C2.3023 1.93615 2.3853 2.06049 2.49 2.16519C2.5947 2.26989 2.71903 2.35289 2.85588 2.40943C2.99272 2.46597 3.13938 2.49495 3.28745 2.49469L10.1141 2.49469L0.369309 12.2395C0.15833 12.4505 0.039804 12.7366 0.0398047 13.035C0.0398054 13.3334 0.15833 13.6195 0.369309 13.8305C0.580287 14.0415 0.866437 14.16 1.1648 14.16C1.46317 14.16 1.74932 14.0415 1.9603 13.8305L11.7051 4.08568L11.7064 10.9137C11.7064 11.2126 11.8252 11.4992 12.0365 11.7106C12.2479 11.9219 12.5345 12.0406 12.8334 12.0406C13.1323 12.0406 13.4189 11.9219 13.6303 11.7106C13.8416 11.4992 13.9603 11.2126 13.9603 10.9137L13.9603 1.36774C13.9606 1.21967 13.9316 1.07301 13.8751 0.93617C13.8185 0.799326 13.7355 0.67499 13.6308 0.570292C13.5261 0.465594 13.4018 0.382592 13.265 0.326049C13.1281 0.269505 12.9815 0.240531 12.8334 0.240788L3.28745 0.240789C3.13938 0.240532 2.99272 0.269506 2.85588 0.32605C2.71903 0.382593 2.5947 0.465593 2.49 0.570291C2.3853 0.674989 2.3023 0.799327 2.24576 0.93617C2.18921 1.07301 2.16024 1.21967 2.1605 1.36774Z" fill="#00407E"/>
</svg>
