<svg width="21" height="20" viewBox="0 0 21 20" fill="none" xmlns="http://www.w3.org/2000/svg">
<path d="M17.6119 8.18885L11.4478 14.3529C11.3619 14.4391 11.2599 14.5075 11.1475 14.5542C11.0351 14.6008 10.9146 14.6248 10.7929 14.6248C10.6712 14.6248 10.5507 14.6008 10.4383 14.5542C10.3259 14.5075 10.2239 14.4391 10.138 14.3529L3.97392 8.18885C3.80022 8.01515 3.70264 7.77956 3.70264 7.53392C3.70264 7.28827 3.80022 7.05268 3.97392 6.87899C4.14762 6.70529 4.3832 6.6077 4.62885 6.6077C4.87449 6.6077 5.11008 6.70529 5.28378 6.87899L10.7937 12.3889L16.3036 6.87821C16.4773 6.70452 16.7128 6.60693 16.9585 6.60693C17.2041 6.60693 17.4397 6.70452 17.6134 6.87821C17.7871 7.05191 17.8847 7.2875 17.8847 7.53315C17.8847 7.77879 17.7871 8.01438 17.6134 8.18808L17.6119 8.18885Z" fill="black"/>
</svg>
