<svg width="24" height="24" viewBox="0 0 24 24" fill="none" xmlns="http://www.w3.org/2000/svg">
<circle cx="12.1225" cy="12.0307" r="11.0518" stroke="white" stroke-width="0.631534"/>
<path d="M12.3012 6.67969C12.8846 6.68124 13.1807 6.68435 13.4363 6.69161L13.5369 6.69524C13.6531 6.69939 13.7677 6.70458 13.9062 6.7108C14.4579 6.73673 14.8344 6.82385 15.1648 6.95194C15.507 7.08366 15.7953 7.26205 16.0837 7.54986C16.3474 7.80909 16.5514 8.12267 16.6816 8.46877C16.8097 8.79911 16.8968 9.17559 16.9227 9.72787C16.9289 9.86582 16.9341 9.98042 16.9383 10.0971L16.9414 10.1977C16.9492 10.4528 16.9523 10.749 16.9533 11.3323L16.9538 11.7192V12.3985C16.9551 12.7768 16.9511 13.155 16.9419 13.5332L16.9388 13.6338C16.9347 13.7505 16.9295 13.8651 16.9232 14.003C16.8973 14.5553 16.8092 14.9313 16.6816 15.2621C16.5518 15.6084 16.3477 15.9221 16.0837 16.181C15.8244 16.4446 15.5108 16.6487 15.1648 16.7789C14.8344 16.907 14.4579 16.9942 13.9062 17.0201C13.7831 17.0259 13.66 17.0311 13.5369 17.0356L13.4363 17.0388C13.1807 17.046 12.8846 17.0496 12.3012 17.0507L11.9143 17.0512H11.2355C10.8571 17.0525 10.4787 17.0485 10.1003 17.0393L9.99974 17.0362C9.87664 17.0315 9.75356 17.0261 9.63052 17.0201C9.07875 16.9942 8.70227 16.907 8.37142 16.7789C8.02535 16.649 7.7119 16.4449 7.45302 16.181C7.18909 15.9219 6.98486 15.6083 6.85458 15.2621C6.72649 14.9318 6.63937 14.5553 6.61344 14.003C6.60767 13.88 6.60248 13.7569 6.59789 13.6338L6.59529 13.5332C6.58574 13.155 6.58142 12.7768 6.58233 12.3985V11.3323C6.58088 10.9541 6.58469 10.5758 6.59374 10.1977L6.59737 10.0971C6.60152 9.98042 6.6067 9.86582 6.61293 9.72787C6.63886 9.17559 6.72598 8.79962 6.85406 8.46877C6.98429 8.12232 7.18892 7.80864 7.45354 7.54986C7.71235 7.28615 8.0256 7.0821 8.37142 6.95194C8.70227 6.82385 9.07823 6.73673 9.63052 6.7108C9.76846 6.70458 9.88358 6.69939 9.99974 6.69524L10.1003 6.69213C10.4785 6.68292 10.8567 6.67894 11.235 6.68021L12.3012 6.67969ZM11.7681 9.27257C11.0804 9.27257 10.4209 9.54574 9.93464 10.032C9.44839 10.5183 9.17521 11.1778 9.17521 11.8654C9.17521 12.5531 9.44839 13.2126 9.93464 13.6989C10.4209 14.1851 11.0804 14.4583 11.7681 14.4583C12.4558 14.4583 13.1153 14.1851 13.6015 13.6989C14.0878 13.2126 14.361 12.5531 14.361 11.8654C14.361 11.1778 14.0878 10.5183 13.6015 10.032C13.1153 9.54574 12.4558 9.27257 11.7681 9.27257ZM11.7681 10.3097C11.9724 10.3097 12.1747 10.3499 12.3635 10.428C12.5522 10.5062 12.7237 10.6208 12.8682 10.7652C13.0127 10.9096 13.1273 11.0811 13.2055 11.2699C13.2838 11.4586 13.324 11.6609 13.3241 11.8652C13.3241 12.0695 13.2839 12.2718 13.2057 12.4606C13.1276 12.6493 13.013 12.8208 12.8686 12.9653C12.7242 13.1098 12.5527 13.2244 12.3639 13.3026C12.1752 13.3809 11.9729 13.4211 11.7686 13.4212C11.356 13.4212 10.9603 13.2573 10.6685 12.9655C10.3768 12.6738 10.2129 12.278 10.2129 11.8654C10.2129 11.4528 10.3768 11.0571 10.6685 10.7654C10.9603 10.4736 11.356 10.3097 11.7686 10.3097M14.4911 8.4947C14.3192 8.4947 14.1543 8.563 14.0328 8.68456C13.9112 8.80613 13.8429 8.971 13.8429 9.14292C13.8429 9.31484 13.9112 9.47972 14.0328 9.60128C14.1543 9.72285 14.3192 9.79114 14.4911 9.79114C14.663 9.79114 14.8279 9.72285 14.9495 9.60128C15.0711 9.47972 15.1393 9.31484 15.1393 9.14292C15.1393 8.971 15.0711 8.80613 14.9495 8.68456C14.8279 8.563 14.663 8.4947 14.4911 8.4947Z" fill="white"/>
</svg>
