<svg width="23" height="24" viewBox="0 0 23 24" fill="none" xmlns="http://www.w3.org/2000/svg">
<circle cx="11.6323" cy="11.9687" r="11.0518" stroke="white" stroke-width="0.631534"/>
<g clip-path="url(#clip0_1316_999)">
<path fill-rule="evenodd" clip-rule="evenodd" d="M15.1726 6.73877C15.6294 6.73877 16.0674 6.92021 16.3904 7.24317C16.7133 7.56613 16.8948 8.00416 16.8948 8.46089V15.3494C16.8948 15.8061 16.7133 16.2442 16.3904 16.5671C16.0674 16.8901 15.6294 17.0715 15.1726 17.0715H8.28414C7.8274 17.0715 7.38937 16.8901 7.06641 16.5671C6.74345 16.2442 6.56201 15.8061 6.56201 15.3494V8.46089C6.56201 8.00416 6.74345 7.56613 7.06641 7.24317C7.38937 6.92021 7.8274 6.73877 8.28414 6.73877H15.1726ZM9.43222 10.7571C9.27997 10.7571 9.13396 10.8175 9.02631 10.9252C8.91866 11.0328 8.85818 11.1789 8.85818 11.3311V14.2013C8.85818 14.3536 8.91866 14.4996 9.02631 14.6072C9.13396 14.7149 9.27997 14.7754 9.43222 14.7754C9.58447 14.7754 9.73047 14.7149 9.83813 14.6072C9.94578 14.4996 10.0063 14.3536 10.0063 14.2013V11.3311C10.0063 11.1789 9.94578 11.0328 9.83813 10.9252C9.73047 10.8175 9.58447 10.7571 9.43222 10.7571ZM11.1543 10.183C11.0021 10.183 10.8561 10.2435 10.7484 10.3512C10.6408 10.4588 10.5803 10.6048 10.5803 10.7571V14.2013C10.5803 14.3536 10.6408 14.4996 10.7484 14.6072C10.8561 14.7149 11.0021 14.7754 11.1543 14.7754C11.3066 14.7754 11.4526 14.7149 11.5603 14.6072C11.6679 14.4996 11.7284 14.3536 11.7284 14.2013V12.1003C11.9035 11.9028 12.1991 11.6709 12.528 11.5303C12.7192 11.4488 13.0068 11.4155 13.2065 11.4786C13.2728 11.4954 13.3318 11.5333 13.3747 11.5866C13.4046 11.6267 13.4505 11.7163 13.4505 11.9051V14.2013C13.4505 14.3536 13.511 14.4996 13.6186 14.6072C13.7263 14.7149 13.8723 14.7754 14.0246 14.7754C14.1768 14.7754 14.3228 14.7149 14.4305 14.6072C14.5381 14.4996 14.5986 14.3536 14.5986 14.2013V11.9051C14.5986 11.5205 14.501 11.1784 14.2978 10.904C14.1108 10.6552 13.8491 10.4728 13.551 10.3834C13.0332 10.2209 12.4597 10.311 12.0768 10.4752C11.9543 10.5279 11.8348 10.5877 11.7192 10.6543C11.6951 10.522 11.6254 10.4024 11.5222 10.3163C11.419 10.2302 11.2888 10.183 11.1543 10.183ZM9.43222 9.03494C9.27997 9.03494 9.13396 9.09542 9.02631 9.20307C8.91866 9.31072 8.85818 9.45673 8.85818 9.60898C8.85818 9.76122 8.91866 9.90723 9.02631 10.0149C9.13396 10.1225 9.27997 10.183 9.43222 10.183C9.58447 10.183 9.73047 10.1225 9.83813 10.0149C9.94578 9.90723 10.0063 9.76122 10.0063 9.60898C10.0063 9.45673 9.94578 9.31072 9.83813 9.20307C9.73047 9.09542 9.58447 9.03494 9.43222 9.03494Z" fill="white"/>
</g>
<defs>
<clipPath id="clip0_1316_999">
<rect width="13.777" height="13.777" fill="white" transform="translate(4.83984 5.0166)"/>
</clipPath>
</defs>
</svg>
