<svg width="16" height="16" viewBox="0 0 16 16" fill="none" xmlns="http://www.w3.org/2000/svg">
<path d="M13.2681 9.46019C13.2695 9.68101 13.2024 9.89682 13.0761 10.0779C12.9498 10.2591 12.7704 10.3966 12.5627 10.4716L9.07092 11.7619L7.78468 15.2564C7.70851 15.4633 7.5707 15.6419 7.38985 15.7681C7.20899 15.8942 6.99379 15.9618 6.77329 15.9618C6.55279 15.9618 6.33759 15.8942 6.15673 15.7681C5.97588 15.6419 5.83807 15.4633 5.7619 15.2564L4.46754 11.7619L0.973024 10.4756C0.766094 10.3995 0.587508 10.2617 0.461361 10.0808C0.335214 9.89995 0.267578 9.68476 0.267578 9.46425C0.267578 9.24375 0.335214 9.02855 0.461361 8.8477C0.587508 8.66684 0.766094 8.52903 0.973024 8.45286L4.46754 7.1585L5.75378 3.66399C5.82995 3.45706 5.96776 3.27847 6.14861 3.15232C6.32947 3.02618 6.54466 2.95854 6.76517 2.95854C6.98567 2.95854 7.20087 3.02618 7.38172 3.15232C7.56258 3.27847 7.70039 3.45706 7.77656 3.66399L9.07092 7.1585L12.5654 8.44474C12.7733 8.52042 12.9525 8.65875 13.0784 8.84064C13.2042 9.02253 13.2705 9.23901 13.2681 9.46019ZM9.4771 2.96129H10.5603V4.04444C10.5603 4.18808 10.6173 4.32583 10.7189 4.42739C10.8204 4.52896 10.9582 4.58602 11.1018 4.58602C11.2455 4.58602 11.3832 4.52896 11.4848 4.42739C11.5863 4.32583 11.6434 4.18808 11.6434 4.04444V2.96129H12.7266C12.8702 2.96129 13.0079 2.90423 13.1095 2.80267C13.2111 2.7011 13.2681 2.56335 13.2681 2.41972C13.2681 2.27608 13.2111 2.13833 13.1095 2.03677C13.0079 1.9352 12.8702 1.87814 12.7266 1.87814H11.6434V0.794993C11.6434 0.651358 11.5863 0.513607 11.4848 0.412042C11.3832 0.310477 11.2455 0.253418 11.1018 0.253418C10.9582 0.253418 10.8204 0.310477 10.7189 0.412042C10.6173 0.513607 10.5603 0.651358 10.5603 0.794993V1.87814H9.4771C9.33347 1.87814 9.19572 1.9352 9.09415 2.03677C8.99259 2.13833 8.93553 2.27608 8.93553 2.41972C8.93553 2.56335 8.99259 2.7011 9.09415 2.80267C9.19572 2.90423 9.33347 2.96129 9.4771 2.96129ZM15.4344 5.12759H14.8929V4.58602C14.8929 4.44238 14.8358 4.30463 14.7342 4.20307C14.6327 4.1015 14.4949 4.04444 14.3513 4.04444C14.2076 4.04444 14.0699 4.1015 13.9683 4.20307C13.8668 4.30463 13.8097 4.44238 13.8097 4.58602V5.12759H13.2681C13.1245 5.12759 12.9867 5.18465 12.8852 5.28622C12.7836 5.38778 12.7266 5.52553 12.7266 5.66917C12.7266 5.8128 12.7836 5.95055 12.8852 6.05212C12.9867 6.15368 13.1245 6.21074 13.2681 6.21074H13.8097V6.75232C13.8097 6.89595 13.8668 7.0337 13.9683 7.13527C14.0699 7.23683 14.2076 7.29389 14.3513 7.29389C14.4949 7.29389 14.6327 7.23683 14.7342 7.13527C14.8358 7.0337 14.8929 6.89595 14.8929 6.75232V6.21074H15.4344C15.5781 6.21074 15.7158 6.15368 15.8174 6.05212C15.9189 5.95055 15.976 5.8128 15.976 5.66917C15.976 5.52553 15.9189 5.38778 15.8174 5.28622C15.7158 5.18465 15.5781 5.12759 15.4344 5.12759Z" fill="white"/>
</svg>
