<svg width="165" height="26" viewBox="0 0 165 26" fill="none" xmlns="http://www.w3.org/2000/svg">
<path d="M6.39691 21V4.57439H0.660326V1.14895H16.3018V4.57439H10.5515V21H6.39691ZM16.4119 21V6.25272H20.4288V8.82524H20.5114C20.7315 7.91729 21.1304 7.21111 21.7082 6.70669C22.286 6.20228 23.0059 5.95007 23.868 5.95007C24.0881 5.95007 24.2991 5.96383 24.5008 5.99134C24.7026 6.01885 24.8769 6.05554 25.0236 6.10139V9.63689C24.8585 9.57269 24.6476 9.52225 24.3908 9.48556C24.134 9.43971 23.8589 9.41678 23.5654 9.41678C22.9051 9.41678 22.341 9.54518 21.8733 9.80197C21.4056 10.0588 21.0479 10.4348 20.8003 10.93C20.5526 11.4253 20.4288 12.0306 20.4288 12.7459V21H16.4119ZM30.7052 21.2339C29.7238 21.2339 28.8618 21.0459 28.1189 20.6698C27.376 20.2846 26.7936 19.7573 26.3718 19.0878C25.9591 18.4091 25.7527 17.6388 25.7527 16.7767V16.7492C25.7527 15.8504 25.9774 15.0846 26.4268 14.4518C26.8762 13.8098 27.5273 13.3054 28.3803 12.9385C29.2332 12.5717 30.2695 12.347 31.4893 12.2644L37.2396 11.9068V14.4105L32.0946 14.7407C31.3242 14.7865 30.7373 14.9699 30.3337 15.2909C29.9302 15.6028 29.7284 16.02 29.7284 16.5428V16.5703C29.7284 17.1114 29.9348 17.5379 30.3475 17.8497C30.7602 18.1523 31.315 18.3037 32.0121 18.3037C32.6082 18.3037 33.1401 18.189 33.6078 17.9597C34.0847 17.7213 34.4562 17.4003 34.7221 16.9968C34.9973 16.5841 35.1348 16.1209 35.1348 15.6073V11.1364C35.1348 10.4852 34.9285 9.97164 34.5158 9.59562C34.1031 9.21043 33.5024 9.01783 32.7137 9.01783C31.9616 9.01783 31.3655 9.17374 30.9253 9.48556C30.4851 9.79738 30.2145 10.1917 30.1136 10.6686L30.0861 10.7925H26.413L26.4268 10.6274C26.5002 9.71943 26.7982 8.91236 27.321 8.20618C27.8529 7.5 28.5866 6.94973 29.5221 6.55537C30.4667 6.15183 31.5856 5.95007 32.8787 5.95007C34.1535 5.95007 35.2587 6.15642 36.1941 6.56912C37.1296 6.97266 37.8541 7.54586 38.3677 8.28872C38.8905 9.03159 39.1518 9.89827 39.1518 10.8888V21H35.1348V18.7989H35.0523C34.7772 19.3033 34.4195 19.739 33.9793 20.1058C33.5482 20.4635 33.0576 20.7432 32.5073 20.945C31.957 21.1376 31.3563 21.2339 30.7052 21.2339ZM47.2133 21.3026C45.9752 21.3026 44.9068 20.9954 44.008 20.3809C43.1092 19.7665 42.4168 18.886 41.9307 17.7396C41.4538 16.5932 41.2153 15.2221 41.2153 13.6264V13.6126C41.2153 12.0076 41.4584 10.6365 41.9445 9.49932C42.4305 8.35292 43.1184 7.47707 44.008 6.87177C44.9068 6.2573 45.9752 5.95007 47.2133 5.95007C47.9103 5.95007 48.5523 6.06471 49.1393 6.29399C49.7262 6.52327 50.2398 6.85343 50.68 7.28448C51.1294 7.70635 51.4871 8.21535 51.7531 8.81148H51.8356V1.14895H55.8526V21H51.8356V18.4825H51.7531C51.4963 19.0695 51.1478 19.5739 50.7075 19.9958C50.2673 20.4085 49.7537 20.7294 49.1668 20.9587C48.5798 21.188 47.9287 21.3026 47.2133 21.3026ZM48.5615 17.9735C49.2126 17.9735 49.7858 17.7993 50.2811 17.4507C50.7763 17.0931 51.1615 16.5887 51.4366 15.9375C51.7118 15.2863 51.8494 14.516 51.8494 13.6264V13.6126C51.8494 12.723 51.7072 11.9572 51.4229 11.3152C51.1478 10.6641 50.7626 10.1642 50.2673 9.81573C49.7812 9.45805 49.2126 9.27921 48.5615 9.27921C47.892 9.27921 47.3142 9.45347 46.8281 9.80197C46.342 10.1505 45.966 10.6503 45.7001 11.3015C45.4341 11.9434 45.3011 12.7138 45.3011 13.6126V13.6264C45.3011 14.516 45.4295 15.2863 45.6863 15.9375C45.9523 16.5887 46.3283 17.0931 46.8144 17.4507C47.3096 17.7993 47.892 17.9735 48.5615 17.9735ZM65.2485 21.3026C63.7444 21.3026 62.4513 20.9954 61.3691 20.3809C60.2868 19.7573 59.4523 18.8723 58.8653 17.7259C58.2875 16.5795 57.9986 15.2221 57.9986 13.6539V13.6401C57.9986 12.0718 58.2875 10.7145 58.8653 9.56811C59.4523 8.41253 60.2731 7.52293 61.3278 6.89929C62.3916 6.26647 63.6435 5.95007 65.0834 5.95007C66.5233 5.95007 67.766 6.2573 68.8115 6.87177C69.8662 7.47707 70.6778 8.33458 71.2464 9.44429C71.8242 10.554 72.1131 11.8517 72.1131 13.3375V14.5756H59.9659V12.0443H70.2147L68.3025 14.4105V12.8697C68.3025 12.0076 68.1695 11.2877 67.9035 10.7099C67.6376 10.123 67.2661 9.68274 66.7892 9.38927C66.3215 9.09579 65.7758 8.94905 65.1522 8.94905C64.5285 8.94905 63.9737 9.10037 63.4876 9.40302C63.0107 9.70567 62.6347 10.1505 62.3595 10.7374C62.0936 11.3152 61.9606 12.026 61.9606 12.8697V14.4243C61.9606 15.2405 62.0936 15.9375 62.3595 16.5153C62.6347 17.0931 63.0245 17.5379 63.5289 17.8497C64.0333 18.1523 64.634 18.3037 65.331 18.3037C65.8813 18.3037 66.3582 18.2165 66.7617 18.0423C67.1652 17.868 67.4954 17.6479 67.7522 17.382C68.009 17.116 68.1832 16.8454 68.275 16.5703L68.3025 16.4878H71.9893L71.948 16.6391C71.838 17.1802 71.6224 17.7259 71.3015 18.2762C70.9805 18.8264 70.5448 19.3308 69.9946 19.7894C69.4535 20.248 68.7885 20.6148 67.9998 20.8899C67.2203 21.1651 66.3032 21.3026 65.2485 21.3026ZM81.7841 21.3439C80.2159 21.3439 78.8448 21.1146 77.6709 20.6561C76.5061 20.1883 75.589 19.5234 74.9195 18.6613C74.25 17.7901 73.874 16.7446 73.7914 15.5248L73.7777 15.3047H77.6984L77.7259 15.456C77.8176 15.9696 78.0469 16.4144 78.4137 16.7904C78.7897 17.1573 79.2758 17.4462 79.8719 17.6571C80.4681 17.8589 81.1422 17.9597 81.8942 17.9597C82.6646 17.9597 83.3249 17.8589 83.8752 17.6571C84.4346 17.4462 84.8657 17.1527 85.1683 16.7767C85.4801 16.3915 85.636 15.9467 85.636 15.4423V15.4285C85.636 14.759 85.3701 14.2362 84.8381 13.8602C84.3154 13.475 83.435 13.154 82.1968 12.8972L80.1058 12.4845C78.1523 12.0902 76.6804 11.4253 75.6899 10.4898C74.6994 9.55435 74.2041 8.33916 74.2041 6.84426V6.8305C74.2041 5.61991 74.5297 4.56522 75.1809 3.66644C75.832 2.75849 76.7262 2.0569 77.8635 1.56165C79.0007 1.05724 80.303 0.805028 81.7704 0.805028C83.302 0.805028 84.6226 1.04348 85.7323 1.52038C86.8512 1.99728 87.7225 2.67137 88.3461 3.54263C88.9698 4.41389 89.3137 5.42731 89.3779 6.58288L89.3916 6.84426H85.471L85.4572 6.67918C85.3838 6.15642 85.1867 5.71162 84.8657 5.34477C84.5447 4.96875 84.1182 4.67986 83.5863 4.47809C83.0635 4.27633 82.4582 4.17544 81.7704 4.17544C81.0642 4.17544 80.4543 4.28091 79.9407 4.49185C79.4271 4.69361 79.0328 4.97334 78.7576 5.33101C78.4917 5.68869 78.3587 6.10598 78.3587 6.58288V6.59664C78.3587 7.22028 78.6247 7.72469 79.1566 8.10988C79.6885 8.49508 80.5231 8.80231 81.6603 9.03159L83.7651 9.45805C85.15 9.73319 86.2872 10.1138 87.1768 10.5999C88.0664 11.0859 88.7221 11.7004 89.144 12.4433C89.5751 13.177 89.7906 14.062 89.7906 15.0983V15.1121C89.7906 16.3869 89.4696 17.492 88.8276 18.4275C88.1948 19.3538 87.2777 20.0737 86.0763 20.5873C84.884 21.0917 83.4533 21.3439 81.7841 21.3439ZM91.9917 25.8149V6.25272H96.0087V8.82524H96.105C96.3709 8.22911 96.7194 7.71552 97.1505 7.28448C97.5907 6.85343 98.0997 6.52327 98.6775 6.29399C99.2644 6.06471 99.9064 5.95007 100.603 5.95007C101.851 5.95007 102.924 6.2573 103.823 6.87177C104.721 7.47707 105.414 8.35292 105.9 9.49932C106.386 10.6457 106.629 12.0168 106.629 13.6126V13.6264C106.629 15.2221 106.386 16.5932 105.9 17.7396C105.423 18.886 104.74 19.7665 103.85 20.3809C102.96 20.9954 101.897 21.3026 100.658 21.3026C99.9614 21.3026 99.3149 21.188 98.7187 20.9587C98.1226 20.7294 97.6044 20.4085 97.1642 19.9958C96.724 19.5739 96.3663 19.0695 96.0912 18.4825H96.0087V25.8149H91.9917ZM99.2828 17.9735C99.9523 17.9735 100.53 17.7993 101.016 17.4507C101.502 17.0931 101.878 16.5887 102.144 15.9375C102.41 15.2863 102.543 14.516 102.543 13.6264V13.6126C102.543 12.7138 102.41 11.9389 102.144 11.2877C101.878 10.6365 101.498 10.1413 101.002 9.80197C100.516 9.45347 99.9431 9.27921 99.2828 9.27921C98.6316 9.27921 98.0584 9.45805 97.5632 9.81573C97.0679 10.1642 96.6827 10.6641 96.4076 11.3152C96.1325 11.9572 95.9949 12.7276 95.9949 13.6264V13.6401C95.9949 14.5206 96.1325 15.2863 96.4076 15.9375C96.6919 16.5887 97.0771 17.0931 97.5632 17.4507C98.0584 17.7993 98.6316 17.9735 99.2828 17.9735ZM108.816 21V1.14895H112.833V8.79772H112.916C113.301 7.88061 113.874 7.17901 114.635 6.69294C115.406 6.19769 116.341 5.95007 117.442 5.95007C118.515 5.95007 119.436 6.18852 120.207 6.66542C120.977 7.13315 121.569 7.79806 121.981 8.66016C122.403 9.52225 122.614 10.5494 122.614 11.7417V21H118.597V12.5671C118.597 11.5399 118.35 10.7374 117.854 10.1596C117.368 9.57269 116.667 9.27921 115.75 9.27921C115.163 9.27921 114.649 9.42137 114.209 9.70567C113.778 9.98081 113.439 10.366 113.191 10.8612C112.952 11.3473 112.833 11.9113 112.833 12.5533V21H108.816ZM131.914 21.3026C130.41 21.3026 129.117 20.9954 128.034 20.3809C126.952 19.7573 126.118 18.8723 125.531 17.7259C124.953 16.5795 124.664 15.2221 124.664 13.6539V13.6401C124.664 12.0718 124.953 10.7145 125.531 9.56811C126.118 8.41253 126.939 7.52293 127.993 6.89929C129.057 6.26647 130.309 5.95007 131.749 5.95007C133.189 5.95007 134.431 6.2573 135.477 6.87177C136.532 7.47707 137.343 8.33458 137.912 9.44429C138.49 10.554 138.779 11.8517 138.779 13.3375V14.5756H126.631V12.0443H136.88L134.968 14.4105V12.8697C134.968 12.0076 134.835 11.2877 134.569 10.7099C134.303 10.123 133.932 9.68274 133.455 9.38927C132.987 9.09579 132.441 8.94905 131.818 8.94905C131.194 8.94905 130.639 9.10037 130.153 9.40302C129.676 9.70567 129.3 10.1505 129.025 10.7374C128.759 11.3152 128.626 12.026 128.626 12.8697V14.4243C128.626 15.2405 128.759 15.9375 129.025 16.5153C129.3 17.0931 129.69 17.5379 130.194 17.8497C130.699 18.1523 131.299 18.3037 131.996 18.3037C132.547 18.3037 133.024 18.2165 133.427 18.0423C133.831 17.868 134.161 17.6479 134.418 17.382C134.674 17.116 134.849 16.8454 134.94 16.5703L134.968 16.4878H138.655L138.613 16.6391C138.503 17.1802 138.288 17.7259 137.967 18.2762C137.646 18.8264 137.21 19.3308 136.66 19.7894C136.119 20.248 135.454 20.6148 134.665 20.8899C133.886 21.1651 132.969 21.3026 131.914 21.3026ZM140.856 21V6.25272H144.873V8.82524H144.955C145.175 7.91729 145.574 7.21111 146.152 6.70669C146.73 6.20228 147.45 5.95007 148.312 5.95007C148.532 5.95007 148.743 5.96383 148.945 5.99134C149.147 6.01885 149.321 6.05554 149.468 6.10139V9.63689C149.302 9.57269 149.092 9.52225 148.835 9.48556C148.578 9.43971 148.303 9.41678 148.009 9.41678C147.349 9.41678 146.785 9.54518 146.317 9.80197C145.85 10.0588 145.492 10.4348 145.244 10.93C144.997 11.4253 144.873 12.0306 144.873 12.7459V21H140.856ZM157.364 21.3026C155.86 21.3026 154.567 20.9954 153.485 20.3809C152.402 19.7573 151.568 18.8723 150.981 17.7259C150.403 16.5795 150.114 15.2221 150.114 13.6539V13.6401C150.114 12.0718 150.403 10.7145 150.981 9.56811C151.568 8.41253 152.389 7.52293 153.443 6.89929C154.507 6.26647 155.759 5.95007 157.199 5.95007C158.639 5.95007 159.881 6.2573 160.927 6.87177C161.982 7.47707 162.793 8.33458 163.362 9.44429C163.94 10.554 164.229 11.8517 164.229 13.3375V14.5756H152.081V12.0443H162.33L160.418 14.4105V12.8697C160.418 12.0076 160.285 11.2877 160.019 10.7099C159.753 10.123 159.382 9.68274 158.905 9.38927C158.437 9.09579 157.891 8.94905 157.268 8.94905C156.644 8.94905 156.089 9.10037 155.603 9.40302C155.126 9.70567 154.75 10.1505 154.475 10.7374C154.209 11.3152 154.076 12.026 154.076 12.8697V14.4243C154.076 15.2405 154.209 15.9375 154.475 16.5153C154.75 17.0931 155.14 17.5379 155.644 17.8497C156.149 18.1523 156.749 18.3037 157.447 18.3037C157.997 18.3037 158.474 18.2165 158.877 18.0423C159.281 17.868 159.611 17.6479 159.868 17.382C160.124 17.116 160.299 16.8454 160.39 16.5703L160.418 16.4878H164.105L164.064 16.6391C163.953 17.1802 163.738 17.7259 163.417 18.2762C163.096 18.8264 162.66 19.3308 162.11 19.7894C161.569 20.248 160.904 20.6148 160.115 20.8899C159.336 21.1651 158.419 21.3026 157.364 21.3026Z" fill="#00376B"/>
</svg>
