<svg width="19" height="18" viewBox="0 0 19 18" fill="none" xmlns="http://www.w3.org/2000/svg">
<path fill-rule="evenodd" clip-rule="evenodd" d="M1.40625 9C1.40625 4.44365 5.0999 0.75 9.65625 0.75C14.2126 0.75 17.9062 4.44365 17.9062 9C17.9062 13.5563 14.2126 17.25 9.65625 17.25C5.0999 17.25 1.40625 13.5563 1.40625 9ZM8.94457 2.62099C9.23228 2.33467 9.47205 2.25 9.65625 2.25C9.84045 2.25 10.0802 2.33467 10.3679 2.62099C10.6586 2.91034 10.955 3.36662 11.2199 3.99005C11.6813 5.0758 12.0029 6.56279 12.0773 8.25H7.23518C7.30955 6.56279 7.63115 5.0758 8.0926 3.99005C8.35755 3.36662 8.65387 2.91034 8.94457 2.62099ZM5.73386 8.25C5.80895 6.3945 6.16066 4.70086 6.7121 3.40334C6.80229 3.19113 6.89906 2.98658 7.00249 2.79167C4.81304 3.72877 3.21936 5.7902 2.94745 8.25H5.73386ZM2.94745 9.75H5.73386C5.80895 11.6055 6.16066 13.2992 6.7121 14.5967C6.80229 14.8089 6.89906 15.0134 7.00249 15.2083C4.81304 14.2712 3.21936 12.2098 2.94745 9.75ZM7.23518 9.75H12.0773C12.0029 11.4372 11.6813 12.9242 11.2199 14.0099C10.955 14.6334 10.6586 15.0896 10.3679 15.379C10.0802 15.6653 9.84045 15.75 9.65625 15.75C9.47205 15.75 9.23228 15.6653 8.94457 15.379C8.65387 15.0896 8.35755 14.6334 8.0926 14.0099C7.63115 12.9242 7.30955 11.4372 7.23518 9.75ZM13.5787 9.75C13.5035 11.6055 13.1518 13.2992 12.6004 14.5967C12.5102 14.8089 12.4134 15.0134 12.3101 15.2083C14.4994 14.2712 16.0931 12.2098 16.3651 9.75H13.5787ZM16.3651 8.25C16.0931 5.7902 14.4994 3.72877 12.3101 2.79167C12.4134 2.98658 12.5102 3.19113 12.6004 3.40334C13.1518 4.70086 13.5035 6.3945 13.5787 8.25H16.3651Z" fill="#2F313F"/>
</svg>
