<svg width="206" height="40" viewBox="0 0 206 40" fill="none" xmlns="http://www.w3.org/2000/svg">
<path d="M41.5967 30.4669L51.0044 30.5246L74.1588 7.52285L64.5474 7.46387L41.5967 30.4669Z" fill="#1D1D1D"/>
<path d="M54.0522 13.4183L60.0747 7.49951L42.3746 7.57097L30.7705 19.0335L35.3616 23.6246L43.8816 23.7428L39.2576 19.1559L45.0656 13.4183H54.0522Z" fill="#1D1D1D"/>
<path d="M55.7181 28.5535C55.4412 28.8304 55.3057 29.1603 55.3057 29.5491C55.3057 29.9379 55.4412 30.2738 55.7181 30.5506C55.995 30.8275 56.3307 30.963 56.7196 30.963C57.1084 30.963 57.4383 30.8275 57.7152 30.5506C57.992 30.2738 58.1335 29.9379 58.1335 29.5491C58.1335 29.1603 57.992 28.8304 57.7152 28.5535C57.4383 28.2766 57.1084 28.1353 56.7196 28.1353C56.3307 28.1353 55.995 28.2766 55.7181 28.5535ZM55.9243 30.3444C55.7063 30.1264 55.5943 29.8613 55.5943 29.5491C55.5943 29.2369 55.7063 28.9718 55.9243 28.7538C56.1422 28.5359 56.4073 28.4239 56.7196 28.4239C57.0318 28.4239 57.2969 28.5359 57.5148 28.7538C57.7329 28.9718 57.8448 29.2369 57.8448 29.5491C57.8448 29.8613 57.7329 30.1264 57.5148 30.3444C57.2969 30.5624 57.0318 30.6743 56.7196 30.6743C56.4073 30.6743 56.1422 30.5624 55.9243 30.3444ZM57.2851 29.2958C57.2851 29.0189 57.079 28.8245 56.7962 28.8245H56.2247V30.2443H56.4957V29.7612H56.7314L57.0141 30.2443H57.3205L57.0141 29.7141C57.1967 29.6375 57.2851 29.4961 57.2851 29.2958ZM56.7314 29.0543C56.9199 29.0543 57.0141 29.1308 57.0141 29.2899C57.0141 29.4549 56.9199 29.5374 56.7314 29.5374H56.4957V29.0543H56.7314Z" fill="#1D1D1D"/>
<path d="M85.6401 18.5991C84.2217 18.5991 83.0159 18.1351 82.0482 17.2073C81.0806 16.2662 80.603 15.06 80.603 13.5886C80.603 12.1041 81.0937 10.8845 82.0745 9.9302C83.069 8.96255 84.2617 8.48535 85.6669 8.48535C87.4297 8.48535 89.0206 9.29392 89.882 10.5134L88.5699 11.7992C87.801 10.858 86.8728 10.3808 85.7726 10.3808C84.8849 10.3808 84.1423 10.6857 83.546 11.2955C82.9496 11.892 82.6446 12.6608 82.6446 13.5886C82.6446 14.49 82.9359 15.2322 83.5329 15.8287C84.1292 16.4252 84.8712 16.7168 85.7595 16.7168C86.8996 16.7168 87.8536 16.2396 88.6093 15.2852L89.9614 16.518C89.06 17.7508 87.456 18.5991 85.6401 18.5991Z" fill="#1D1D1D"/>
<path d="M90.5947 14.8345C90.5947 13.7741 90.9529 12.8728 91.6818 12.1437C92.4106 11.4014 93.3389 11.0303 94.4653 11.0303C95.5918 11.0303 96.52 11.4014 97.2489 12.1437C97.9778 12.8728 98.3359 13.7741 98.3359 14.8345C98.3359 15.9082 97.9778 16.8095 97.2489 17.5386C96.52 18.2675 95.5918 18.6387 94.4653 18.6387C93.3389 18.6387 92.4106 18.2675 91.6818 17.5386C90.9529 16.8095 90.5947 15.9082 90.5947 14.8345ZM93.0339 16.3058C93.4183 16.7035 93.8952 16.9023 94.4653 16.9023C95.0354 16.9023 95.4993 16.7035 95.8837 16.3058C96.2681 15.8949 96.4669 15.4045 96.4669 14.8345C96.4669 14.2645 96.2681 13.7741 95.8837 13.3764C95.4993 12.9788 95.0354 12.7799 94.4653 12.7799C93.8952 12.7799 93.4183 12.9788 93.0339 13.3764C92.6494 13.7741 92.4638 14.2645 92.4638 14.8345C92.4638 15.4045 92.6494 15.8949 93.0339 16.3058Z" fill="#1D1D1D"/>
<path d="M108.387 11.0305C109.248 11.0305 109.951 11.2956 110.494 11.8391C111.051 12.3826 111.329 13.1249 111.329 14.0925V18.4534H109.46V14.4371C109.46 13.3369 108.877 12.7537 108.016 12.7537C107.075 12.7537 106.425 13.4297 106.425 14.4901V18.4534H104.556V14.4503C104.556 13.3767 103.986 12.7537 103.098 12.7537C102.184 12.7537 101.521 13.4297 101.521 14.5034V18.4534H99.6519V11.2293H101.481V12.2632C101.892 11.5077 102.74 11.0173 103.681 11.0305C104.583 11.0305 105.418 11.4679 105.802 12.303C106.332 11.5077 107.313 11.0305 108.387 11.0305Z" fill="#1D1D1D"/>
<path d="M117.082 11.0435C118.103 11.0435 118.951 11.4146 119.627 12.1436C120.303 12.8727 120.634 13.774 120.634 14.8344C120.634 15.8949 120.29 16.7962 119.614 17.5252C118.938 18.2542 118.09 18.6254 117.069 18.6254C116.181 18.6254 115.425 18.294 114.802 17.618V21.4222H112.933V11.229H114.789V12.1171C115.412 11.4013 116.167 11.0435 117.082 11.0435ZM116.751 16.9155C117.347 16.9155 117.824 16.7167 118.195 16.319C118.567 15.9214 118.752 15.4309 118.752 14.8477C118.752 14.2645 118.567 13.774 118.195 13.3763C117.824 12.9787 117.347 12.7799 116.751 12.7799C116.167 12.7799 115.69 12.9787 115.319 13.3763C114.948 13.774 114.762 14.2645 114.762 14.8477C114.762 15.4309 114.948 15.9214 115.319 16.319C115.69 16.7167 116.167 16.9155 116.751 16.9155Z" fill="#1D1D1D"/>
<path d="M127.456 12.0906V11.229H129.233V18.4531H127.456V17.618C126.833 18.294 126.065 18.6254 125.15 18.6254C124.116 18.6254 123.254 18.2675 122.578 17.5385C121.902 16.8094 121.571 15.8949 121.571 14.8079C121.571 13.721 121.915 12.8196 122.592 12.1171C123.267 11.4013 124.129 11.0435 125.15 11.0435C126.051 11.0435 126.82 11.3881 127.456 12.0906ZM127.483 14.8344C127.483 14.2645 127.284 13.774 126.9 13.3631C126.515 12.9522 126.038 12.7534 125.455 12.7534C124.858 12.7534 124.381 12.9522 123.997 13.3631C123.626 13.774 123.44 14.2645 123.44 14.8344C123.44 15.4177 123.625 15.9081 124.01 16.319C124.394 16.7299 124.871 16.9288 125.455 16.9288C126.038 16.9288 126.515 16.7299 126.9 16.319C127.284 15.9081 127.483 15.4177 127.483 14.8344Z" fill="#1D1D1D"/>
<path d="M132.782 18.4531H130.913V11.2291H132.702V12.1967C133.14 11.4146 133.802 11.0303 134.691 11.0303C134.982 11.0303 135.274 11.0833 135.566 11.1893L135.406 12.9788C135.102 12.886 134.81 12.8329 134.545 12.8329C133.485 12.8329 132.782 13.5222 132.782 15.0201V18.4531Z" fill="#1D1D1D"/>
<path d="M143.258 14.6753C143.258 14.9272 143.232 15.2056 143.192 15.4972H137.77C138.035 16.5178 138.738 17.0348 139.878 17.0348C140.66 17.0348 141.588 16.7299 142.211 16.3057L142.953 17.618C142.038 18.2808 140.991 18.6122 139.799 18.6122C138.526 18.6122 137.558 18.241 136.883 17.512C136.206 16.7829 135.875 15.8816 135.875 14.8344C135.875 13.7343 136.219 12.8329 136.922 12.1171C137.625 11.4013 138.526 11.0435 139.639 11.0435C140.686 11.0435 141.562 11.3748 142.237 12.0243C142.914 12.6738 143.258 13.5487 143.258 14.6753ZM139.639 12.5943C138.699 12.5943 137.996 13.1643 137.77 14.1054H141.442C141.27 13.1643 140.594 12.5943 139.639 12.5943Z" fill="#1D1D1D"/>
<path d="M147.53 16.1027L150.324 10.8345H152.066L147.798 18.4533H146.582L144.551 10.8345H146.303L147.53 16.1027Z" fill="#1D1D1D"/>
<path d="M156.963 18.4533H155.365L155.045 16.8037H152.395L151.56 18.4533H149.942L153.983 10.8345H155.23L156.963 18.4533ZM154.818 15.4429L154.313 12.9067L153.035 15.4429H154.818Z" fill="#1D1D1D"/>
<path d="M160.207 18.5873C159.331 18.5873 158.651 18.3296 158.156 17.8038C157.661 17.278 157.486 16.5048 157.64 15.4841L158.352 10.8345H159.888L159.176 15.5048C159.012 16.5873 159.465 17.1027 160.321 17.1027C161.228 17.1027 161.898 16.5357 162.053 15.4738L162.754 10.8345H164.301L163.589 15.5254C163.434 16.5563 163.043 17.3295 162.414 17.8347C161.795 18.3398 161.063 18.5873 160.207 18.5873Z" fill="#1D1D1D"/>
<path d="M169.76 18.4533H164.358L165.492 10.8345H167.029L166.111 16.9893H169.977L169.76 18.4533Z" fill="#1D1D1D"/>
<path d="M170.655 18.4533L171.573 12.3088H169.397L169.614 10.8345H175.511L175.284 12.3088H173.119L172.191 18.4533H170.655Z" fill="#1D1D1D"/>
<path d="M84.8477 28.3125C84.8477 28.3709 84.8393 28.5044 84.8226 28.7214H81.2588C81.3926 29.4809 81.8928 29.9983 82.8276 29.9983C83.3619 29.9983 83.9797 29.7981 84.3886 29.4976L84.7307 30.1069C84.2884 30.449 83.5541 30.7328 82.8109 30.7328C81.1251 30.7328 80.4243 29.5393 80.4243 28.3792C80.4243 27.7033 80.6327 27.1524 81.0499 26.7101C81.4755 26.2678 82.0182 26.0508 82.6862 26.0508C83.3201 26.0508 83.8377 26.2511 84.2382 26.66C84.6471 27.0689 84.8477 27.6198 84.8477 28.3125ZM81.2588 28.0287H84.0215C83.9797 27.2526 83.4204 26.7601 82.6862 26.7601C81.9513 26.7601 81.3926 27.2859 81.2588 28.0287Z" fill="#1D1D1D"/>
<path d="M86.5111 30.6327H85.71V26.1593H86.4943V26.7936C86.7785 26.2928 87.2543 26.0425 87.9133 26.0425C88.4141 26.0425 88.8314 26.201 89.1734 26.5265C89.5161 26.852 89.6826 27.3111 89.6826 27.9203V30.6327H88.8899V28.1456C88.8899 27.2777 88.4225 26.7853 87.7467 26.7853C87.3874 26.7853 87.0871 26.9104 86.8537 27.1692C86.6281 27.4279 86.5111 27.7534 86.5111 28.1539V30.6327Z" fill="#1D1D1D"/>
<path d="M94.9413 28.3125C94.9413 28.3709 94.933 28.5044 94.9163 28.7214H91.3531C91.4862 29.4809 91.987 29.9983 92.9219 29.9983C93.4561 29.9983 94.0734 29.7981 94.4823 29.4976L94.8249 30.1069C94.3826 30.449 93.6478 30.7328 92.9052 30.7328C91.2194 30.7328 90.5186 29.5393 90.5186 28.3792C90.5186 27.7033 90.7269 27.1524 91.1441 26.7101C91.5698 26.2678 92.1124 26.0508 92.7798 26.0508C93.4143 26.0508 93.9319 26.2511 94.3325 26.66C94.7414 27.0689 94.9413 27.6198 94.9413 28.3125ZM91.3531 28.0287H94.1152C94.0734 27.2526 93.5146 26.7601 92.7798 26.7601C92.0455 26.7601 91.4862 27.2859 91.3531 28.0287Z" fill="#1D1D1D"/>
<path d="M96.6053 30.6327H95.8042V26.1593H96.5635V26.8186C96.8226 26.3012 97.2566 26.0425 97.8487 26.0425C98.0243 26.0425 98.1998 26.0675 98.3747 26.1092L98.2994 26.8854C98.1413 26.8353 97.9825 26.8103 97.832 26.8103C97.1229 26.8103 96.6053 27.3027 96.6053 28.2625V30.6327Z" fill="#1D1D1D"/>
<path d="M102.291 26.7435V26.1592H103.084V30.1736C103.084 30.8997 102.867 31.4672 102.434 31.8929C102 32.3185 101.415 32.5355 100.689 32.5355C99.9627 32.5355 99.3037 32.3269 98.7109 31.9012L99.0864 31.2669C99.5705 31.6258 100.105 31.8094 100.681 31.8094C101.173 31.8094 101.566 31.6675 101.857 31.3837C102.149 31.1084 102.291 30.7495 102.291 30.3071V29.9399C101.891 30.4073 101.365 30.641 100.723 30.641C100.08 30.641 99.5455 30.424 99.1198 29.9817C98.6942 29.5393 98.4775 28.9968 98.4775 28.3375C98.4775 27.6865 98.6942 27.1441 99.1366 26.7101C99.5789 26.2678 100.122 26.0508 100.764 26.0508C101.382 26.0508 101.891 26.2844 102.291 26.7435ZM99.721 29.4725C100.013 29.773 100.372 29.9232 100.814 29.9232C101.256 29.9232 101.616 29.773 101.908 29.4725C102.2 29.1721 102.342 28.7966 102.342 28.3459C102.342 27.8952 102.2 27.5196 101.908 27.2275C101.616 26.9271 101.256 26.7768 100.814 26.7768C100.372 26.7768 100.013 26.9271 99.721 27.2275C99.4291 27.5196 99.287 27.8952 99.287 28.3459C99.287 28.7966 99.4291 29.1721 99.721 29.4725Z" fill="#1D1D1D"/>
<path d="M106.038 29.5147L107.241 26.1597H108.125L106.247 31.1338C105.872 32.1353 105.396 32.5359 104.695 32.5359C104.403 32.5359 104.169 32.4775 103.977 32.3606L104.077 31.6596C104.286 31.7514 104.47 31.7931 104.62 31.7931C104.987 31.7931 105.279 31.5344 105.505 31.0086L105.671 30.6164L103.727 26.1597H104.654L106.038 29.5147Z" fill="#1D1D1D"/>
<path d="M112.004 30.733C111.336 30.733 110.685 30.4075 110.343 29.7649L110.919 29.3226C111.178 29.7983 111.62 30.0319 112.029 30.0319C112.505 30.0319 112.822 29.7566 112.822 29.4144C112.822 29.1807 112.688 28.9887 112.413 28.8469C112.321 28.7968 112.129 28.7133 111.854 28.5964C111.578 28.4796 111.395 28.3962 111.303 28.3461C110.844 28.0957 110.619 27.7368 110.619 27.2611C110.619 26.9023 110.752 26.6018 111.019 26.3681C111.286 26.1261 111.636 26.0093 112.079 26.0093C112.646 26.0093 113.197 26.2513 113.498 26.7186L112.988 27.2027C112.747 26.8605 112.43 26.6853 112.029 26.6853C111.629 26.6853 111.386 26.9273 111.386 27.2278C111.386 27.4614 111.512 27.6367 111.762 27.7536L112.254 27.9705C112.521 28.079 112.722 28.1708 112.855 28.2459C113.365 28.5046 113.615 28.8802 113.615 29.3726C113.615 29.7566 113.464 30.082 113.164 30.3407C112.864 30.5994 112.48 30.733 112.004 30.733Z" fill="#1D1D1D"/>
<path d="M117.997 26.8102V26.1592H118.765V30.6327H117.997V29.9983C117.596 30.4908 117.071 30.7411 116.42 30.7411C115.777 30.7411 115.243 30.5158 114.818 30.0568C114.392 29.5977 114.183 29.0386 114.183 28.3626C114.183 27.6949 114.392 27.1441 114.818 26.7101C115.243 26.2678 115.777 26.0508 116.42 26.0508C117.054 26.0508 117.58 26.3011 117.997 26.8102ZM118.047 28.3876C118.047 27.9453 117.906 27.5614 117.622 27.2526C117.338 26.9438 116.971 26.7852 116.512 26.7852C116.053 26.7852 115.686 26.9438 115.41 27.2526C115.135 27.5614 114.993 27.9453 114.993 28.3959C114.993 28.8466 115.135 29.2305 115.41 29.5393C115.686 29.8481 116.053 30.0067 116.512 30.0067C116.971 30.0067 117.338 29.8481 117.622 29.5393C117.906 29.2305 118.047 28.8466 118.047 28.3876Z" fill="#1D1D1D"/>
<path d="M121.669 29.5063L123.022 26.1597H123.906L121.937 30.6247H121.378L119.408 26.1597H120.301L121.669 29.5063Z" fill="#1D1D1D"/>
<path d="M124.962 25.5252C124.628 25.5252 124.378 25.2831 124.378 24.9493C124.378 24.6238 124.628 24.3901 124.962 24.3901C125.271 24.3901 125.529 24.6405 125.529 24.9493C125.529 25.2831 125.271 25.5252 124.962 25.5252ZM125.346 26.1594V30.6328H124.545V26.1594H125.346Z" fill="#1D1D1D"/>
<path d="M127.308 30.6327H126.507V26.1593H127.291V26.7936C127.575 26.2928 128.051 26.0425 128.71 26.0425C129.21 26.0425 129.628 26.201 129.97 26.5265C130.312 26.852 130.48 27.3111 130.48 27.9203V30.6327H129.686V28.1456C129.686 27.2777 129.219 26.7853 128.543 26.7853C128.184 26.7853 127.884 26.9104 127.65 27.1692C127.425 27.4279 127.308 27.7534 127.308 28.1539V30.6327Z" fill="#1D1D1D"/>
<path d="M135.121 26.7435V26.1592H135.914V30.1736C135.914 30.8997 135.697 31.4672 135.263 31.8929C134.829 32.3185 134.245 32.5355 133.519 32.5355C132.793 32.5355 132.133 32.3269 131.541 31.9012L131.917 31.2669C132.4 31.6258 132.934 31.8094 133.51 31.8094C134.003 31.8094 134.395 31.6675 134.687 31.3837C134.98 31.1084 135.121 30.7495 135.121 30.3071V29.9399C134.72 30.4073 134.195 30.641 133.552 30.641C132.909 30.641 132.376 30.424 131.949 29.9817C131.524 29.5393 131.307 28.9968 131.307 28.3375C131.307 27.6865 131.524 27.1441 131.966 26.7101C132.409 26.2678 132.951 26.0508 133.594 26.0508C134.211 26.0508 134.72 26.2844 135.121 26.7435ZM132.551 29.4725C132.842 29.773 133.202 29.9232 133.644 29.9232C134.087 29.9232 134.445 29.773 134.737 29.4725C135.029 29.1721 135.171 28.7966 135.171 28.3459C135.171 27.8952 135.029 27.5196 134.737 27.2275C134.445 26.9271 134.087 26.7768 133.644 26.7768C133.202 26.7768 132.842 26.9271 132.551 27.2275C132.259 27.5196 132.117 27.8952 132.117 28.3459C132.117 28.7966 132.259 29.1721 132.551 29.4725Z" fill="#1D1D1D"/>
<path d="M141.439 26.0508C142.073 26.0508 142.608 26.2761 143.033 26.7351C143.459 27.1941 143.676 27.745 143.676 28.3959C143.676 29.0553 143.459 29.6061 143.033 30.0651C142.608 30.5158 142.073 30.7411 141.431 30.7411C140.78 30.7411 140.254 30.4908 139.845 29.9817V32.477H139.044V26.1592H139.845V26.8353C140.262 26.3095 140.797 26.0508 141.439 26.0508ZM142.875 28.3876C142.875 27.9369 142.733 27.5614 142.449 27.2526C142.165 26.9438 141.798 26.7852 141.339 26.7852C140.88 26.7852 140.513 26.9438 140.229 27.2526C139.954 27.5614 139.812 27.9453 139.812 28.3876C139.812 28.8466 139.954 29.2305 140.229 29.5393C140.513 29.8481 140.88 30.0067 141.339 30.0067C141.798 30.0067 142.165 29.8481 142.449 29.5393C142.733 29.2305 142.875 28.8466 142.875 28.3876Z" fill="#1D1D1D"/>
<path d="M145.353 30.6327H144.552V26.1593H145.312V26.8186C145.57 26.3012 146.004 26.0425 146.597 26.0425C146.772 26.0425 146.947 26.0675 147.122 26.1092L147.048 26.8854C146.889 26.8353 146.73 26.8103 146.58 26.8103C145.87 26.8103 145.353 27.3027 145.353 28.2625V30.6327Z" fill="#1D1D1D"/>
<path d="M149.578 30.7412C148.894 30.7412 148.327 30.5158 147.884 30.0652C147.442 29.6061 147.225 29.047 147.225 28.3877C147.225 27.7283 147.442 27.1775 147.884 26.7268C148.327 26.2678 148.894 26.0425 149.578 26.0425C150.254 26.0425 150.813 26.2678 151.256 26.7268C151.698 27.1859 151.923 27.7367 151.923 28.3877C151.923 29.047 151.698 29.6061 151.256 30.0652C150.813 30.5158 150.254 30.7412 149.578 30.7412ZM151.122 28.3877C151.122 27.9453 150.972 27.5698 150.671 27.261C150.371 26.9438 150.004 26.7853 149.578 26.7853C149.153 26.7853 148.786 26.9438 148.485 27.261C148.184 27.5698 148.034 27.9453 148.034 28.3877C148.034 28.83 148.184 29.2139 148.485 29.531C148.786 29.8482 149.153 30.0068 149.578 30.0068C150.004 30.0068 150.371 29.8482 150.671 29.531C150.972 29.2139 151.122 28.83 151.122 28.3877Z" fill="#1D1D1D"/>
<path d="M156.335 26.7435V26.1592H157.128V30.1736C157.128 30.8997 156.91 31.4672 156.476 31.8929C156.042 32.3185 155.459 32.5355 154.732 32.5355C154.006 32.5355 153.347 32.3269 152.755 31.9012L153.13 31.2669C153.614 31.6258 154.148 31.8094 154.724 31.8094C155.216 31.8094 155.609 31.6675 155.901 31.3837C156.193 31.1084 156.335 30.7495 156.335 30.3071V29.9399C155.934 30.4073 155.409 30.641 154.766 30.641C154.123 30.641 153.589 30.424 153.163 29.9817C152.738 29.5393 152.521 28.9968 152.521 28.3375C152.521 27.6865 152.738 27.1441 153.18 26.7101C153.622 26.2678 154.165 26.0508 154.807 26.0508C155.425 26.0508 155.934 26.2844 156.335 26.7435ZM153.765 29.4725C154.056 29.773 154.415 29.9232 154.858 29.9232C155.3 29.9232 155.659 29.773 155.951 29.4725C156.243 29.1721 156.385 28.7966 156.385 28.3459C156.385 27.8952 156.243 27.5196 155.951 27.2275C155.659 26.9271 155.3 26.7768 154.858 26.7768C154.415 26.7768 154.056 26.9271 153.765 27.2275C153.472 27.5196 153.331 27.8952 153.331 28.3459C153.331 28.7966 153.472 29.1721 153.765 29.4725Z" fill="#1D1D1D"/>
<path d="M159.08 30.6327H158.279V26.1593H159.038V26.8186C159.297 26.3012 159.731 26.0425 160.323 26.0425C160.499 26.0425 160.674 26.0675 160.849 26.1092L160.774 26.8854C160.616 26.8353 160.457 26.8103 160.307 26.8103C159.597 26.8103 159.08 27.3027 159.08 28.2625V30.6327Z" fill="#1D1D1D"/>
<path d="M164.766 26.8102V26.1592H165.534V30.6327H164.766V29.9983C164.366 30.4908 163.84 30.7411 163.189 30.7411C162.546 30.7411 162.012 30.5158 161.587 30.0568C161.16 29.5977 160.952 29.0386 160.952 28.3626C160.952 27.6949 161.16 27.1441 161.587 26.7101C162.012 26.2678 162.546 26.0508 163.189 26.0508C163.823 26.0508 164.349 26.3011 164.766 26.8102ZM164.816 28.3876C164.816 27.9453 164.674 27.5614 164.391 27.2526C164.107 26.9438 163.74 26.7852 163.281 26.7852C162.822 26.7852 162.455 26.9438 162.179 27.2526C161.904 27.5614 161.762 27.9453 161.762 28.3959C161.762 28.8466 161.904 29.2305 162.179 29.5393C162.455 29.8481 162.822 30.0067 163.281 30.0067C163.74 30.0067 164.107 29.8481 164.391 29.5393C164.674 29.2305 164.816 28.8466 164.816 28.3876Z" fill="#1D1D1D"/>
<path d="M171.861 26.0427C172.403 26.0427 172.837 26.2179 173.163 26.5684C173.488 26.9106 173.646 27.378 173.646 27.9706V30.6329H172.845V28.0957C172.845 27.2611 172.436 26.7854 171.769 26.7854C171.068 26.7854 170.575 27.3196 170.575 28.1124V30.6329H169.782V28.1124C169.782 27.2779 169.365 26.7854 168.698 26.7854C167.996 26.7854 167.496 27.3196 167.496 28.1291V30.6329H166.694V26.1595H167.479V26.8188C167.746 26.3264 168.239 26.0343 168.831 26.0427C169.432 26.0427 169.991 26.3515 170.233 26.8772C170.534 26.3681 171.16 26.0427 171.861 26.0427Z" fill="#1D1D1D"/>
<path d="M174.553 30.224C174.553 29.9319 174.787 29.7065 175.087 29.7065C175.387 29.7065 175.621 29.9319 175.621 30.224C175.621 30.5328 175.387 30.7665 175.087 30.7665C174.787 30.7665 174.553 30.5328 174.553 30.224Z" fill="#1D1D1D"/>
</svg>
