<svg width="206" height="40" viewBox="0 0 206 40" fill="none" xmlns="http://www.w3.org/2000/svg">
<path d="M78.1157 12.9414H70.5106V17.5566H77.8948V20.2873H70.5106V26.7071H78.1157V29.4219H67.6548V10.2266H78.1157V12.9414Z" fill="#1D1D1D"/>
<path d="M81.8495 29.4222H78.4731L88.161 17.3174H91.5535L81.8495 29.4222ZM87.893 23.8329L92.2477 29.4222H88.9657L86.2203 25.861L87.893 23.8329ZM82.9855 21.7888L79.4987 17.3174H82.7962L84.6426 19.7607L82.9855 21.7888Z" fill="#1D1D1D"/>
<path d="M101.256 17.3172H104.033V29.4221H101.256V28.1606C100.12 29.2465 98.889 29.7735 97.5799 29.7735C95.9227 29.7735 94.5659 29.1666 93.477 27.9529C92.4043 26.7233 91.8677 25.1743 91.8677 23.3218C91.8677 21.5012 92.4043 20.0002 93.477 18.7864C94.4871 17.6047 95.9705 16.934 97.5005 16.9659C98.889 16.9659 100.136 17.5409 101.24 18.7066L101.256 17.3172ZM94.6924 23.3378C94.6924 24.5035 94.9921 25.4458 95.6076 26.1803C96.1914 26.899 97.0749 27.2982 97.99 27.2822C99.0155 27.2822 99.8357 26.9309 100.467 26.2122C101.098 25.4777 101.413 24.5355 101.413 23.4016C101.413 22.2678 101.098 21.3256 100.467 20.591C99.8518 19.8724 98.9523 19.4732 98.0055 19.5051C97.0904 19.4891 96.2069 19.8884 95.6231 20.607C95.0076 21.3256 94.6924 22.2359 94.6924 23.3378Z" fill="#1D1D1D"/>
<path d="M106.266 17.3167H109.027V18.4346C109.563 17.8756 110.021 17.4923 110.384 17.2848C110.857 17.0612 111.378 16.9494 111.898 16.9654C113.255 16.9654 114.312 17.5562 115.102 18.7539C115.969 17.5562 117.137 16.9654 118.62 16.9654C121.318 16.9654 122.659 18.6262 122.659 21.9319V29.4216H119.882V22.6985C119.882 21.5327 119.74 20.7182 119.472 20.2391C119.188 19.76 118.715 19.5205 118.052 19.5045C117.295 19.5045 116.743 19.792 116.395 20.3828C116.048 20.9577 115.875 21.9 115.875 23.1775V29.4376H113.098V22.7304C113.098 20.5745 112.482 19.5045 111.251 19.5045C110.478 19.5045 109.91 19.792 109.548 20.3828C109.185 20.9737 109.011 21.9 109.011 23.1616V29.4216H106.25L106.266 17.3167Z" fill="#1D1D1D"/>
<path d="M124.489 12.2707C124.489 11.7916 124.678 11.3285 125.025 11.0091C125.719 10.3064 126.855 10.2905 127.565 11.0091C127.912 11.3444 128.101 11.8075 128.101 12.2867C128.118 12.7657 127.912 13.2448 127.565 13.5802C127.234 13.9315 126.776 14.1231 126.303 14.1231C125.814 14.1391 125.356 13.9315 125.025 13.5802C124.678 13.2448 124.489 12.7657 124.489 12.2707ZM127.676 17.317V29.4219H124.914V17.317H127.676Z" fill="#1D1D1D"/>
<path d="M129.912 17.3173H132.689V18.4351C133.651 17.461 134.74 16.9819 135.955 16.9819C137.343 16.9819 138.432 17.4291 139.205 18.3074C139.884 19.058 140.215 20.2876 140.215 21.9964V29.4222H137.438V22.6671C137.438 21.4694 137.28 20.6549 136.949 20.1918C136.618 19.7447 136.034 19.5051 135.213 19.4892C134.298 19.4892 133.651 19.7925 133.257 20.4154C132.862 21.0382 132.689 22.0762 132.689 23.5773V29.4062H129.912V17.3173Z" fill="#1D1D1D"/>
<path d="M153.349 24.0246H144.782C144.861 25.0147 145.177 25.8132 145.744 26.4041C146.313 26.995 147.101 27.2983 147.922 27.2664C148.521 27.2983 149.121 27.1227 149.626 26.7714C150.067 26.436 150.572 25.8292 151.141 24.9349L153.476 26.2444C153.144 26.8193 152.766 27.3463 152.339 27.8413C151.961 28.2725 151.535 28.6398 151.046 28.9432C150.589 29.2307 150.084 29.4383 149.563 29.566C148.995 29.7098 148.411 29.7737 147.827 29.7577C146.044 29.7577 144.608 29.1828 143.536 28.017C142.462 26.8512 141.91 25.3022 141.91 23.3699C141.91 21.4535 142.431 19.9045 143.488 18.7228C144.545 17.541 145.934 16.9501 147.685 16.9661C149.452 16.9661 150.84 17.541 151.867 18.6748C152.892 19.8087 153.397 21.3737 153.397 23.3699L153.349 24.0246ZM150.509 21.741C150.131 20.2559 149.2 19.5053 147.717 19.5053C147.401 19.5053 147.07 19.5532 146.77 19.6649C146.486 19.7607 146.202 19.9205 145.965 20.1121C145.729 20.3037 145.508 20.5433 145.35 20.8148C145.177 21.1022 145.035 21.4216 144.956 21.741H150.509Z" fill="#1D1D1D"/>
<path d="M152.451 14.1553H151.852V13.9316H153.319V14.1553H152.703V15.9598H152.451V14.1553Z" fill="#1D1D1D"/>
<path d="M153.663 13.9316H153.963L154.342 15.0176C154.389 15.1613 154.436 15.305 154.483 15.4328H154.499C154.546 15.289 154.594 15.1454 154.641 15.0176L155.02 13.9316H155.32V15.9598H155.083V14.8419C155.083 14.6662 155.099 14.4267 155.115 14.2511H155.099L154.941 14.7142L154.563 15.7682H154.389L154.01 14.7142L153.852 14.2511H153.837C153.852 14.4267 153.868 14.6662 153.868 14.8419V15.9598H153.647V13.9316H153.663Z" fill="#1D1D1D"/>
</svg>
