<svg width="171" height="40" viewBox="0 0 171 40" fill="none" xmlns="http://www.w3.org/2000/svg">
<path d="M72.545 21.5596C72.5384 21.5489 72.5349 21.5369 72.5337 21.5245C72.5325 21.5121 72.5343 21.4996 72.5384 21.488C72.5432 21.4763 72.5498 21.4657 72.5587 21.457C72.5677 21.4484 72.5784 21.4418 72.5904 21.4379C72.9999 21.2958 73.3795 21.08 73.7108 20.8013C74.0242 20.5389 74.2929 20.2276 74.5066 19.8795C74.6988 19.5559 74.8379 19.2036 74.9185 18.8359C74.9907 18.522 75.0295 18.2014 75.0337 17.8793C75.0379 17.364 74.9346 16.8534 74.7298 16.3801C74.5305 15.9173 74.2338 15.5023 73.8607 15.1625C73.4607 14.8039 72.9933 14.5273 72.4859 14.3486C71.9045 14.1435 71.2908 14.0434 70.6742 14.0529H65.0139C64.9608 14.0527 64.9088 14.0634 64.8605 14.0844C64.8121 14.1054 64.7686 14.1362 64.7327 14.1748C64.6969 14.2134 64.6701 14.2589 64.6528 14.3086C64.6354 14.3583 64.6289 14.411 64.6331 14.4634V26.1931C64.6325 26.2448 64.6426 26.2961 64.6623 26.344C64.682 26.392 64.7113 26.4355 64.7477 26.4721C64.7847 26.5087 64.8283 26.5376 64.876 26.5572C64.9244 26.5768 64.9757 26.5866 65.0276 26.5861H66.9194C66.9719 26.5866 67.0244 26.5766 67.074 26.5567C67.1229 26.5368 67.1677 26.5074 67.2053 26.4702C67.2429 26.433 67.2728 26.3888 67.2931 26.34C67.3134 26.2912 67.3241 26.239 67.3241 26.1861V22.0118C67.3241 21.9897 67.3331 21.9685 67.3486 21.9528C67.3641 21.9372 67.3856 21.9283 67.4077 21.9283H69.6797C69.6946 21.9282 69.7089 21.932 69.722 21.9393C69.7352 21.9467 69.7459 21.9573 69.7531 21.9701L72.3426 26.2348C72.4119 26.3426 72.5074 26.4311 72.6202 26.4919C72.733 26.5528 72.8602 26.584 72.9885 26.5827H75.082C75.1435 26.5814 75.2032 26.5643 75.2551 26.533C75.3077 26.5016 75.3507 26.4571 75.3805 26.404C75.4098 26.3508 75.4253 26.2909 75.4241 26.2301C75.4235 26.1692 75.4068 26.1097 75.3757 26.0574L72.545 21.5596ZM71.6758 19.2812C71.3004 19.6048 70.815 19.774 70.3184 19.7543H67.3241V16.4287H70.3566C70.8359 16.4091 71.3063 16.5609 71.683 16.8566C71.8567 17.0032 71.994 17.1877 72.0842 17.3959C72.1743 17.6041 72.2149 17.8303 72.203 18.0567C72.2107 18.2868 72.1677 18.5158 72.0764 18.7274C71.9851 18.9391 71.8484 19.1281 71.6758 19.2812Z" fill="#1D1D1D"/>
<path d="M99.2531 18.7111C98.9206 18.3642 98.517 18.0926 98.0699 17.9145C97.578 17.7203 97.0527 17.6234 96.5238 17.6293C95.9227 17.6083 95.3251 17.7275 94.7789 17.9772C94.3581 18.1707 93.982 18.4477 93.6722 18.7912V18.2589C93.6722 18.1583 93.6322 18.0619 93.5612 17.9908C93.4895 17.9197 93.3928 17.8797 93.2919 17.8797H91.6133C91.5465 17.8797 91.4802 17.8929 91.4181 17.9184C91.3566 17.944 91.3005 17.9813 91.2528 18.0285C91.2056 18.0757 91.168 18.1317 91.1423 18.1933C91.1166 18.2549 91.1035 18.3209 91.1035 18.3876V26.2179C91.1035 26.2664 91.1125 26.3146 91.131 26.3595C91.1495 26.4045 91.1763 26.4453 91.211 26.4797C91.2456 26.514 91.2862 26.5411 91.3316 26.5595C91.3769 26.5779 91.4247 26.5871 91.4736 26.5866H93.3092C93.4018 26.5866 93.4907 26.5499 93.5564 26.4847C93.6214 26.4195 93.6585 26.331 93.6585 26.2387V22.1166C93.6465 21.8407 93.6901 21.5652 93.7856 21.306C93.8817 21.0468 94.028 20.8093 94.2166 20.607C94.4064 20.4119 94.6357 20.2592 94.8888 20.1591C95.1419 20.0589 95.4141 20.0136 95.6863 20.026C95.9436 20.0053 96.2021 20.0416 96.4432 20.1324C96.6844 20.2232 96.9029 20.3663 97.0819 20.5513C97.4515 20.9886 97.6473 21.5453 97.6335 22.1166V26.2283C97.6335 26.3206 97.6705 26.4091 97.7356 26.4743C97.8013 26.5395 97.8902 26.5762 97.9827 26.5762H99.8601C99.9527 26.5762 100.042 26.5395 100.107 26.4743C100.172 26.4091 100.209 26.3206 100.209 26.2283V21.421C100.214 20.9106 100.126 20.4036 99.9473 19.9252C99.7999 19.4781 99.5641 19.0652 99.2531 18.7111Z" fill="#1D1D1D"/>
<path d="M111.991 21.1145C111.8 20.8278 111.565 20.574 111.292 20.3631C110.977 20.1211 110.623 19.9331 110.246 19.8066C110.771 19.6109 111.214 19.2429 111.502 18.763C111.76 18.2995 111.892 17.7764 111.883 17.2463C111.879 16.8708 111.809 16.4987 111.677 16.1471C111.526 15.7508 111.288 15.3939 110.978 15.1036C110.609 14.7676 110.176 14.5097 109.704 14.3452C109.075 14.1312 108.412 14.031 107.747 14.0495H102.149C102.051 14.0495 101.958 14.0879 101.889 14.1563C101.819 14.2247 101.78 14.3176 101.779 14.4148V26.2454C101.779 26.291 101.788 26.3363 101.806 26.3785C101.823 26.4207 101.849 26.4591 101.881 26.4914C101.914 26.5237 101.952 26.5493 101.994 26.5668C102.037 26.5842 102.082 26.5932 102.128 26.5932H108.281C108.899 26.6041 109.513 26.4978 110.092 26.2802C110.584 26.092 111.035 25.8095 111.418 25.4488C111.763 25.1208 112.037 24.7268 112.226 24.2905C112.414 23.8541 112.513 23.3844 112.514 22.9094C112.514 22.5979 112.471 22.2879 112.388 21.9876C112.302 21.6779 112.167 21.3835 111.991 21.1145ZM104.473 16.161H107.377C107.847 16.1252 108.312 16.2752 108.672 16.5784C108.945 16.8578 109.097 17.2322 109.097 17.622C109.097 18.0118 108.945 18.3863 108.672 18.6656C108.313 18.9714 107.847 19.1228 107.377 19.0865H104.473V16.161ZM109.164 24.0191C108.787 24.3389 108.304 24.5075 107.81 24.4922H104.473V21.0727H107.81C108.308 21.055 108.795 21.2252 109.174 21.5493C109.345 21.7063 109.482 21.897 109.575 22.1092C109.669 22.3215 109.716 22.5507 109.716 22.7825C109.716 23.0142 109.669 23.2434 109.575 23.4557C109.482 23.6679 109.345 23.8586 109.174 24.0156L109.164 24.0191Z" fill="#1D1D1D"/>
<path d="M144.676 18.9648C144.277 18.5568 143.803 18.2285 143.28 17.9977C142.69 17.7523 142.055 17.6337 141.416 17.6499C140.796 17.6361 140.179 17.7473 139.603 17.9768C139.027 18.2063 138.502 18.5495 138.062 18.9857C137.646 19.4081 137.32 19.9097 137.103 20.4606C136.871 21.0381 136.753 21.6545 136.754 22.2764C136.751 22.8917 136.87 23.5015 137.103 24.0713C137.323 24.6185 137.654 25.1149 138.074 25.5301C138.494 25.9453 138.995 26.2704 139.546 26.4854C140.147 26.7246 140.79 26.8428 141.437 26.8333C142.258 26.8647 143.074 26.6952 143.814 26.3394C144.382 26.0524 144.881 25.6466 145.276 25.1497C145.337 25.0798 145.371 24.9914 145.374 24.8992C145.373 24.8446 145.357 24.7914 145.329 24.7445C145.3 24.6976 145.261 24.6587 145.213 24.6314L143.818 23.7374C143.784 23.7047 143.741 23.6824 143.694 23.6732C143.648 23.6639 143.6 23.6681 143.556 23.6852C143.479 23.72 143.409 23.7683 143.35 23.8278C143.128 24.088 142.857 24.301 142.55 24.454C142.215 24.6047 141.85 24.6773 141.482 24.6662C140.986 24.672 140.504 24.5019 140.121 24.1861C139.923 24.0264 139.758 23.8281 139.638 23.6034C139.518 23.3786 139.445 23.1318 139.424 22.8782H145.416C145.48 22.8857 145.545 22.8783 145.605 22.8565C145.666 22.8348 145.721 22.7993 145.765 22.753C145.825 22.6699 145.857 22.57 145.856 22.4677V21.9772C145.856 21.4196 145.749 20.867 145.542 20.3493C145.345 19.8364 145.052 19.3662 144.676 18.9648ZM139.501 21.2641C139.606 20.8119 139.862 20.4085 140.226 20.1197C140.565 19.8491 140.986 19.703 141.42 19.7057C141.836 19.7115 142.241 19.8425 142.582 20.0814C142.974 20.3638 143.239 20.7887 143.319 21.2641H139.501Z" fill="#1D1D1D"/>
<path d="M88.0631 13.8654C87.8596 13.8624 87.6578 13.9016 87.4704 13.9807C87.2829 14.0598 87.114 14.1768 86.9743 14.3246C86.8286 14.4679 86.7128 14.6391 86.6352 14.828C86.557 15.0169 86.5182 15.2195 86.5206 15.4238C86.5194 15.6248 86.5588 15.824 86.6364 16.0093C86.7146 16.1947 86.8298 16.3623 86.9743 16.5021C87.1146 16.6474 87.2823 16.7629 87.4686 16.8417C87.6542 16.9206 87.8542 16.9613 88.0566 16.9613C88.2583 16.9613 88.4583 16.9206 88.6446 16.8417C88.8302 16.7629 88.998 16.6474 89.1382 16.5021C89.2821 16.3617 89.3961 16.1938 89.4731 16.0086C89.5507 15.8233 89.5901 15.6244 89.5883 15.4238C89.5907 15.2199 89.5525 15.0176 89.4749 14.8288C89.3979 14.64 89.2833 14.4686 89.1382 14.3246C89.0003 14.1783 88.8338 14.0619 88.6487 13.9829C88.4643 13.9039 88.2649 13.8638 88.0631 13.8654Z" fill="#1D1D1D"/>
<path d="M88.9855 17.8828H87.1284C86.9302 17.8828 86.769 18.0432 86.769 18.2411V26.2209C86.769 26.4188 86.9302 26.5792 87.1284 26.5792H88.9855C89.1837 26.5792 89.3449 26.4188 89.3449 26.2209V18.2411C89.3449 18.0432 89.1837 17.8828 88.9855 17.8828Z" fill="#1D1D1D"/>
<path d="M84.6542 17.8838H82.8221C82.7785 17.8838 82.7356 17.8932 82.6956 17.9114C82.6556 17.9295 82.6204 17.956 82.5923 17.9891C82.5636 18.0221 82.5428 18.0608 82.5302 18.1027C82.5183 18.1446 82.5153 18.1885 82.5219 18.2316L82.5953 18.816C82.2705 18.4797 81.8933 18.1978 81.4784 17.9811C81.0355 17.7574 80.5442 17.644 80.0475 17.6507C79.4482 17.6463 78.8542 17.7647 78.3026 17.9986C77.7708 18.227 77.2878 18.554 76.8789 18.9621C76.4658 19.3681 76.1393 19.8533 75.919 20.3883C75.6874 20.9391 75.5686 21.5304 75.5698 22.1276C75.5609 22.7503 75.6796 23.3682 75.919 23.9434C76.1656 24.5012 76.5184 25.0058 76.9589 25.4288C77.3863 25.858 77.8919 26.2017 78.4489 26.441C79.0249 26.6897 79.647 26.8153 80.2743 26.8098C80.771 26.8055 81.2593 26.6864 81.7017 26.4619C82.0306 26.2867 82.3117 26.0349 82.5219 25.7279V26.2914C82.5332 26.3757 82.575 26.4529 82.6389 26.5087C82.7033 26.5644 82.7857 26.5948 82.8711 26.5941H84.6613C84.7539 26.5941 84.8428 26.5574 84.9085 26.4922C84.9735 26.4269 85.0105 26.3385 85.0105 26.2462V18.2455C85.0123 18.1981 85.0046 18.1508 84.9873 18.1065C84.9699 18.0622 84.9443 18.0219 84.9109 17.9879C84.8774 17.9541 84.8374 17.9274 84.7932 17.9094C84.7491 17.8915 84.7019 17.8828 84.6542 17.8838ZM82.0091 23.3521C81.8366 23.6784 81.5817 23.9542 81.2689 24.1521C80.9537 24.3439 80.5913 24.4454 80.2218 24.4454C79.8529 24.4454 79.4906 24.3439 79.1754 24.1521C78.8494 23.948 78.5826 23.6638 78.3987 23.3269C78.2155 22.99 78.1224 22.6117 78.1283 22.2285C78.1224 21.8373 78.2185 21.4513 78.4071 21.1084C78.5844 20.7798 78.8459 20.5038 79.1646 20.3083C79.4792 20.1143 79.8416 20.0119 80.2117 20.0126C80.5818 20.0087 80.9453 20.1114 81.2587 20.3083C81.5721 20.5051 81.827 20.7812 81.9983 21.1084C82.1786 21.4545 82.2723 21.8387 82.2723 22.2285C82.2723 22.6183 82.1786 23.0024 81.9983 23.3486L82.0091 23.3521Z" fill="#1D1D1D"/>
<path d="M122.409 17.8838H120.58C120.536 17.8838 120.493 17.8932 120.453 17.9114C120.413 17.9295 120.378 17.956 120.35 17.9891C120.321 18.0221 120.3 18.0608 120.288 18.1027C120.276 18.1446 120.273 18.1885 120.279 18.2316L120.353 18.816C120.028 18.4797 119.651 18.1978 119.236 17.9811C118.793 17.7574 118.302 17.644 117.805 17.6507C117.206 17.6463 116.612 17.7647 116.06 17.9986C115.533 18.225 115.054 18.5484 114.646 18.9517C114.233 19.3577 113.907 19.8428 113.687 20.3779C113.455 20.9286 113.337 21.52 113.338 22.1172C113.328 22.7398 113.447 23.3578 113.687 23.933C114.167 25.056 115.061 25.9525 116.185 26.4376C116.761 26.6862 117.383 26.8118 118.011 26.8062C118.508 26.802 118.996 26.6829 119.438 26.4584C119.767 26.2832 120.048 26.0313 120.258 25.7245V26.2914C120.27 26.3757 120.311 26.4529 120.375 26.5087C120.44 26.5644 120.522 26.5948 120.608 26.5941H122.398C122.49 26.5941 122.579 26.5574 122.644 26.4922C122.71 26.4269 122.747 26.3385 122.747 26.2462V18.2455C122.749 18.1996 122.742 18.1537 122.726 18.1105C122.709 18.0674 122.685 18.0278 122.653 17.9942C122.622 17.9605 122.584 17.9334 122.542 17.9145C122.5 17.8955 122.455 17.8851 122.409 17.8838ZM119.763 23.3521C119.59 23.6784 119.335 23.9542 119.023 24.1521C118.707 24.3439 118.345 24.4454 117.976 24.4454C117.607 24.4454 117.244 24.3439 116.929 24.1521C116.603 23.948 116.336 23.6638 116.153 23.3269C115.969 22.99 115.876 22.6117 115.882 22.2285C115.876 21.8373 115.972 21.4513 116.161 21.1084C116.338 20.779 116.599 20.5027 116.918 20.3083C117.238 20.1112 117.607 20.0086 117.983 20.0126C118.353 20.0087 118.717 20.1114 119.03 20.3083C119.343 20.5051 119.599 20.7812 119.77 21.1084C119.95 21.4545 120.043 21.8387 120.043 22.2285C120.043 22.6183 119.95 23.0024 119.77 23.3486L119.763 23.3521Z" fill="#1D1D1D"/>
<path d="M135.866 17.6255H135.423C134.376 17.6255 133.695 18.1508 133.5 18.4987V18.2447C133.494 18.1506 133.453 18.0621 133.385 17.9974C133.315 17.9327 133.225 17.8967 133.13 17.8969H131.36C131.313 17.8968 131.266 17.9064 131.223 17.9249C131.179 17.9434 131.14 17.9707 131.107 18.0048C131.074 18.039 131.049 18.0794 131.033 18.1237C131.016 18.1679 131.009 18.215 131.012 18.2621V26.2315C131.012 26.3238 131.048 26.4122 131.114 26.4775C131.179 26.5427 131.268 26.5794 131.36 26.5794H133.133C133.18 26.5817 133.228 26.5745 133.272 26.5581C133.316 26.5416 133.357 26.5164 133.392 26.4839C133.426 26.4513 133.453 26.4122 133.472 26.3688C133.49 26.3254 133.5 26.2787 133.5 26.2315V21.8207C133.496 21.5053 133.569 21.1937 133.713 20.9128C133.853 20.6759 134.051 20.4784 134.288 20.3388C134.579 20.1952 134.9 20.1224 135.224 20.1266H135.87C135.962 20.1266 136.051 20.0899 136.116 20.0248C136.182 19.9595 136.218 19.871 136.218 19.7788V17.9595C136.215 17.8691 136.176 17.7836 136.11 17.7213C136.045 17.6589 135.957 17.6246 135.866 17.6255Z" fill="#1D1D1D"/>
<path d="M129.393 17.6255H128.953C127.888 17.6255 127.208 18.1507 127.026 18.4986V18.2447C127.022 18.1538 126.984 18.0678 126.919 18.0034C126.855 17.9391 126.768 17.901 126.677 17.8968H124.904C124.856 17.8944 124.807 17.9021 124.761 17.9195C124.715 17.937 124.674 17.9638 124.64 17.9982C124.605 18.0327 124.578 18.074 124.561 18.1194C124.543 18.1648 124.535 18.2134 124.538 18.2621V26.2314C124.538 26.3237 124.575 26.4122 124.64 26.4774C124.705 26.5427 124.794 26.5793 124.887 26.5793H126.66C126.752 26.5793 126.841 26.5427 126.906 26.4774C126.972 26.4122 127.009 26.3237 127.009 26.2314V21.8207C127.007 21.5055 127.079 21.1942 127.221 20.9128C127.362 20.6758 127.56 20.4783 127.797 20.3388C128.089 20.1956 128.411 20.1229 128.736 20.1266H129.382C129.474 20.1266 129.563 20.0899 129.629 20.0247C129.694 19.9594 129.731 19.871 129.731 19.7787V17.9594C129.727 17.8714 129.69 17.7879 129.628 17.726C129.565 17.664 129.481 17.6281 129.393 17.6255Z" fill="#1D1D1D"/>
<path d="M149.367 13.5352H147.546C147.334 13.5352 147.162 13.7064 147.162 13.9178V26.1971C147.162 26.4084 147.334 26.5797 147.546 26.5797H149.367C149.58 26.5797 149.752 26.4084 149.752 26.1971V13.9178C149.752 13.7064 149.58 13.5352 149.367 13.5352Z" fill="#1D1D1D"/>
<path d="M41.2961 5.67285H39.394C39.3364 5.67331 39.2795 5.68511 39.2265 5.70761C39.1735 5.7301 39.1255 5.76282 39.0853 5.80389C39.0451 5.84496 39.0134 5.89356 38.9921 5.9469C38.9708 6.00023 38.9604 6.05724 38.9612 6.11463V7.15818C38.9548 8.80725 38.293 10.3865 37.1209 11.5503C35.9487 12.714 34.3616 13.3675 32.7071 13.3675H21.78C21.6658 13.3675 21.5562 13.4124 21.4752 13.4925C21.3941 13.5727 21.3481 13.6815 21.3472 13.7953V15.6911C21.3472 15.7478 21.3584 15.8038 21.3801 15.8562C21.4018 15.9085 21.4337 15.9561 21.474 15.9961C21.5141 16.0362 21.5618 16.0679 21.6143 16.0896C21.6668 16.1113 21.7231 16.1225 21.78 16.1225H32.7071C35.0974 16.1206 37.3891 15.1727 39.0783 13.4871C40.7674 11.8015 41.7158 9.51624 41.7149 7.13382V6.11463C41.7177 6.00081 41.6753 5.89049 41.5968 5.80773C41.5183 5.72497 41.4102 5.67649 41.2961 5.67285Z" fill="#1D1D1D"/>
<path d="M46.7161 6.11463C46.7175 6.05741 46.7074 6.00047 46.6865 5.94716C46.6656 5.89385 46.6342 5.84521 46.5943 5.8041C46.5544 5.76297 46.5066 5.73019 46.4538 5.70766C46.401 5.68513 46.3442 5.6733 46.2868 5.67285H44.3812C44.3238 5.6733 44.267 5.68513 44.2143 5.70766C44.1615 5.73019 44.1137 5.76297 44.0738 5.8041C44.0338 5.84521 44.0025 5.89385 43.9815 5.94716C43.9606 6.00047 43.9506 6.05741 43.952 6.11463V7.15818C43.9446 10.1425 42.7493 13.0018 40.6285 15.1084C38.5078 17.2151 35.6349 18.3967 32.6409 18.3939H21.78C21.6655 18.3949 21.5559 18.4406 21.4749 18.5213C21.394 18.602 21.3481 18.7111 21.3472 18.8253V20.7246C21.3481 20.8387 21.394 20.9479 21.4749 21.0286C21.5559 21.1093 21.6655 21.155 21.78 21.1559H32.6409C36.371 21.1559 39.9485 19.679 42.5862 17.05C45.2238 14.421 46.7056 10.8553 46.7056 7.13734L46.7161 6.11463Z" fill="#1D1D1D"/>
<path d="M40.6649 27.1218C40.603 27.1449 40.548 27.1834 40.5055 27.2338C40.4629 27.2841 40.434 27.3446 40.4217 27.4093C40.4094 27.474 40.4141 27.5408 40.4353 27.6032C40.4565 27.6655 40.4935 27.7214 40.5427 27.7654C41.227 28.3623 41.775 29.0983 42.15 29.9239C42.5251 30.7496 42.7184 31.6456 42.7171 32.5519V33.9433C42.7258 34.0399 42.7711 34.1295 42.8437 34.1941C42.9163 34.2587 43.0107 34.2933 43.1079 34.2912H45.0972C45.199 34.2912 45.2967 34.2509 45.3687 34.1791C45.4407 34.1073 45.4811 34.01 45.4811 33.9085V32.5519C45.4822 30.2542 44.6092 28.0415 43.0381 26.3601C42.9812 26.3019 42.9069 26.2636 42.8264 26.2511C42.7458 26.2385 42.6634 26.2524 42.5914 26.2905C41.9632 26.5943 41.321 26.8714 40.6649 27.1218Z" fill="#1D1D1D"/>
<path d="M45.1696 24.7392C45.124 24.7693 45.0855 24.8088 45.0564 24.855C45.0275 24.9012 45.0087 24.953 45.0015 25.0071C44.9942 25.061 44.9985 25.116 45.0143 25.1682C45.0301 25.2204 45.0568 25.2686 45.0928 25.3097C46.7831 27.3468 47.7064 29.9084 47.7033 32.552V33.9434C47.7033 34.0449 47.7438 34.1422 47.8158 34.214C47.8878 34.2857 47.9854 34.3261 48.0872 34.3261H50.0835C50.1854 34.3261 50.283 34.2857 50.355 34.214C50.427 34.1422 50.4674 34.0449 50.4674 33.9434V32.552C50.4698 29.2852 49.3336 26.119 47.2531 23.5947C47.2209 23.5563 47.1813 23.5247 47.1367 23.5017C47.092 23.4788 47.0433 23.465 46.9932 23.4611C46.9432 23.4572 46.8928 23.4633 46.8451 23.4791C46.7974 23.4949 46.7535 23.52 46.7157 23.553C46.2201 23.9669 45.7035 24.367 45.1696 24.7392Z" fill="#1D1D1D"/>
<path d="M55.4838 31.7559C55.4901 27.2849 53.8539 22.9664 50.884 19.6157C50.8449 19.5723 50.7965 19.5382 50.7423 19.5161C50.6881 19.4939 50.6295 19.4844 50.5711 19.4881C50.5126 19.4917 50.4557 19.5086 50.4047 19.5373C50.3538 19.566 50.31 19.606 50.2768 19.654C49.8347 20.2815 49.3582 20.8843 48.8493 21.4594C48.7874 21.524 48.7529 21.61 48.7529 21.6994C48.7529 21.7888 48.7874 21.8747 48.8493 21.9394C51.3745 24.9022 52.7579 28.665 52.7512 32.5525V33.944C52.7512 34.0454 52.7916 34.1427 52.8636 34.2145C52.9356 34.2862 53.0332 34.3266 53.1351 34.3266H54.9464C55.0605 34.3281 55.1724 34.296 55.2681 34.2341C55.3638 34.1721 55.4389 34.0832 55.4838 33.9787C55.4906 33.9373 55.4906 33.8949 55.4838 33.8535C55.4908 33.2482 55.4838 32.3055 55.4838 31.7559Z" fill="#1D1D1D"/>
<path d="M51.1973 5.67285H49.4278C49.3704 5.6733 49.3136 5.68513 49.2608 5.70766C49.208 5.73019 49.1603 5.76297 49.1203 5.8041C49.0804 5.84521 49.049 5.89385 49.0281 5.94716C49.0072 6.00047 48.9971 6.05741 48.9985 6.11463V7.15818C48.9921 11.4768 47.2654 15.6161 44.198 18.6662C41.1306 21.7164 36.9737 23.4276 32.6409 23.4239H21.78C21.6652 23.4239 21.5551 23.4694 21.474 23.5503C21.3928 23.6312 21.3472 23.7409 21.3472 23.8553V25.7511C21.3481 25.8649 21.3941 25.9737 21.4752 26.0539C21.5562 26.134 21.6658 26.179 21.78 26.179H33.297C36.3176 26.1781 39.2919 25.4388 41.9592 24.0258L42.7619 23.5666L42.7968 23.5492C44.0097 22.8189 45.135 21.9529 46.1507 20.9681L46.7021 20.408C49.9406 17 51.741 12.4818 51.7312 7.78784C51.7312 7.21733 51.7312 6.65033 51.7312 6.09376C51.6996 5.97559 51.6306 5.87076 51.5344 5.7949C51.4381 5.71905 51.3199 5.67624 51.1973 5.67285Z" fill="#1D1D1D"/>
</svg>
