<svg width="224" height="40" viewBox="0 0 224 40" fill="none" xmlns="http://www.w3.org/2000/svg">
<path d="M37.801 20.4037C37.801 22.5234 36.0826 24.2419 33.9628 24.2419C31.8429 24.2419 30.1245 22.5234 30.1245 20.4037C30.1245 18.2839 31.8429 16.5654 33.9628 16.5654C36.0826 16.5654 37.801 18.2839 37.801 20.4037Z" fill="#1D1D1D"/>
<path d="M52.5012 20.4036C52.5012 22.5234 50.7827 24.2419 48.6629 24.2419C46.5431 24.2419 44.8247 22.5234 44.8247 20.4036C44.8247 18.2839 46.5431 16.5654 48.6629 16.5654C50.7827 16.5654 52.5012 18.2839 52.5012 20.4036Z" fill="#1D1D1D"/>
<path d="M67.2098 20.4036C67.2098 22.5234 65.4912 24.2419 63.3714 24.2419C61.2516 24.2419 59.5332 22.5234 59.5332 20.4036C59.5332 18.2839 61.2516 16.5654 63.3714 16.5654C65.4912 16.5654 67.2098 18.2839 67.2098 20.4036Z" fill="#1D1D1D"/>
<path d="M89.2316 25.8167C89.2495 26.0591 89.2585 26.3778 89.2585 26.7727V26.8536H87.1584C87.1584 26.8445 87.1584 26.8266 87.1584 26.7997C87.1674 26.7727 87.1715 26.7503 87.1715 26.7324C87.1715 26.5528 87.1674 26.3643 87.1584 26.1668C87.1495 25.9514 87.122 25.6641 87.0772 25.3051C87.0772 25.2961 87.0683 25.2467 87.0504 25.157C87.0414 25.0672 87.0235 24.9594 86.9966 24.8338C86.9787 24.6992 86.956 24.5735 86.9292 24.4567C86.9113 24.376 86.8844 24.2682 86.8486 24.1336C86.8396 24.1157 86.8259 24.0887 86.808 24.0528C86.799 24.008 86.7859 23.9631 86.7674 23.9182C86.7495 23.8733 86.7316 23.8284 86.7137 23.7835C86.6689 23.6937 86.5704 23.5322 86.4176 23.2988C86.2558 23.0834 86.1394 22.9397 86.0672 22.8679C85.8971 22.6884 85.7036 22.5268 85.4887 22.3832C85.2189 22.1947 84.9545 22.0555 84.6942 21.9657C84.4877 21.885 84.2364 21.8221 83.9403 21.7772C83.9128 21.7772 83.8549 21.7728 83.7648 21.7638C83.6752 21.7458 83.5899 21.7323 83.5093 21.7234C83.0514 21.6874 82.8132 21.6695 82.7953 21.6695C82.67 21.6695 82.4992 21.6695 82.2837 21.6695C82.0682 21.6605 81.9023 21.6516 81.7859 21.6426C81.7316 21.6426 81.6152 21.6426 81.4355 21.6426C81.2647 21.6336 81.1215 21.6291 81.0045 21.6291V26.8536H78.9038V13.3481H85.1921C85.2464 13.3481 85.3001 13.3481 85.3538 13.3481C85.4165 13.3481 85.4661 13.3526 85.5019 13.3616C85.5377 13.3616 85.5604 13.3616 85.5693 13.3616C85.7221 13.3795 85.9329 13.4244 86.2021 13.4962C86.5794 13.622 86.8217 13.7117 86.9292 13.7656C87.3064 13.972 87.6067 14.1785 87.8312 14.385C88.1726 14.6812 88.4281 14.9684 88.5988 15.2467C88.7964 15.5429 88.9582 15.8796 89.0836 16.2566C89.1827 16.5438 89.2406 16.8849 89.2585 17.2799C89.2764 17.8006 89.2227 18.2539 89.0973 18.6399C88.9624 19.1157 88.7427 19.551 88.4371 19.946C88.2126 20.2422 87.9124 20.534 87.5351 20.8212C87.3196 20.9559 87.1984 21.0322 87.1715 21.0501C87.1805 21.0591 87.1984 21.0726 87.2253 21.0905C87.2521 21.1175 87.2706 21.1309 87.2796 21.1309L87.4814 21.3329C87.5082 21.3598 87.6205 21.481 87.818 21.6965L88.1141 22.0465C88.1678 22.1183 88.249 22.244 88.3565 22.4235C88.4824 22.648 88.572 22.823 88.6257 22.9487C88.7158 23.1282 88.7827 23.2898 88.8281 23.4335C88.846 23.4873 88.8949 23.6848 88.9761 24.0259C88.9851 24.0438 89.0119 24.183 89.0567 24.4433C89.0746 24.56 89.0925 24.6632 89.1104 24.753C89.1462 24.9774 89.1737 25.1525 89.1916 25.2781C89.2185 25.5295 89.2316 25.709 89.2316 25.8167ZM87.0772 18.1282C87.1853 17.814 87.2074 17.4819 87.1447 17.1318C87.0999 16.8625 86.9787 16.5887 86.7811 16.3104C86.6104 16.095 86.4128 15.911 86.189 15.7584C86.1526 15.7404 86.1036 15.7135 86.0403 15.6776C85.9776 15.6417 85.9329 15.6148 85.906 15.5968C85.6816 15.5071 85.4482 15.4532 85.2058 15.4353H80.9913V19.5151H85.1789C85.4302 19.4972 85.6589 19.4478 85.8654 19.367C86.2069 19.2144 86.4803 19.0169 86.6868 18.7745C86.8486 18.613 86.9787 18.3975 87.0772 18.1282Z" fill="#1D1D1D"/>
<path d="M107.078 19.6765C107.132 20.7358 106.997 21.6918 106.674 22.5446C106.369 23.3435 105.875 24.0975 105.193 24.8067C104.305 25.6954 103.366 26.2923 102.379 26.5975C101.957 26.7142 101.544 26.795 101.14 26.8399C100.404 26.9207 99.6908 26.8893 98.9995 26.7456C98.3441 26.62 97.7113 26.3866 97.1006 26.0455C96.4727 25.7044 95.9067 25.2555 95.4041 24.699C94.6681 23.8821 94.1696 23.0203 93.9094 22.1137C93.7303 21.5033 93.6401 20.8121 93.6401 20.0401C93.6401 19.3309 93.7482 18.6397 93.9637 17.9665C94.224 17.1945 94.6096 16.4943 95.1212 15.866C95.8482 14.9683 96.755 14.295 97.8415 13.8462C99.1965 13.3076 100.543 13.1954 101.881 13.5096C103.478 13.9315 104.749 14.7528 105.691 15.9737C106.275 16.7187 106.679 17.5356 106.903 18.4243C106.993 18.8013 107.051 19.2187 107.078 19.6765ZM104.601 22.0194C104.996 21.1397 105.112 20.2376 104.951 19.313C104.807 18.4602 104.439 17.6972 103.847 17.0239C103.272 16.3507 102.536 15.8839 101.639 15.6235C100.777 15.3633 99.9057 15.3677 99.0264 15.637C98.6044 15.7717 98.205 15.9647 97.8277 16.216C97.4511 16.4674 97.1771 16.6828 97.0063 16.8623C96.8452 17.0419 96.7013 17.2214 96.5759 17.401C96.1091 18.0562 95.8303 18.7878 95.7408 19.5958C95.6423 20.4126 95.7497 21.1846 96.0637 21.9117C96.441 22.8273 97.0469 23.5455 97.8814 24.0661C98.5817 24.5059 99.3362 24.7438 100.144 24.7798C100.341 24.7977 100.552 24.7977 100.777 24.7798C101.657 24.7169 102.478 24.3848 103.241 23.7833C103.842 23.2986 104.296 22.7106 104.601 22.0194Z" fill="#1D1D1D"/>
<path d="M122.986 13.3481V20.8886C123.004 21.3374 122.968 21.7907 122.878 22.2485C122.726 23.0923 122.361 23.8868 121.787 24.6318C121.078 25.5834 120.18 26.2431 119.094 26.6112C118.367 26.8266 117.653 26.9119 116.953 26.867C116.127 26.8221 115.396 26.6291 114.759 26.288C113.897 25.8571 113.165 25.1928 112.564 24.2952C112.088 23.5591 111.796 22.8095 111.689 22.0465C111.653 21.8132 111.635 21.4496 111.635 20.9559L111.621 13.3481H113.735L113.722 20.9155C113.695 21.6067 113.834 22.2485 114.139 22.841C114.408 23.3616 114.786 23.797 115.27 24.1471C115.791 24.5061 116.361 24.7171 116.98 24.7799C117.698 24.8517 118.371 24.7171 119 24.376C119.538 24.0887 119.987 23.6489 120.347 23.0564C120.544 22.7243 120.688 22.3787 120.777 22.0196C120.813 21.8581 120.853 21.5393 120.898 21.0636L120.885 13.3616L122.986 13.3481Z" fill="#1D1D1D"/>
<path d="M126.923 13.3481H138.005V15.4353L133.521 15.4487V26.8401H131.42L131.433 15.4487H126.923V13.3481Z" fill="#1D1D1D"/>
<path d="M144.272 13.3481L144.285 26.867H142.185V13.3616L144.272 13.3481Z" fill="#1D1D1D"/>
<path d="M162.98 26.867H160.879L151.871 16.5528L151.884 26.8805L149.784 26.867V13.3481H151.871L160.879 23.6623V13.3616L162.966 13.3481L162.98 26.867Z" fill="#1D1D1D"/>
<path d="M179.157 13.3481V15.4487L170.607 15.4353L170.62 18.8149H177.702V20.902L170.593 20.8886L170.62 24.7664H179.157V26.867L168.506 26.8805V13.3616L179.157 13.3481Z" fill="#1D1D1D"/>
<path d="M188.856 19.0707C189.18 19.1605 189.422 19.2278 189.584 19.2727C189.745 19.3175 189.983 19.3938 190.297 19.5016C190.611 19.6003 190.854 19.6901 191.025 19.7709C191.204 19.8427 191.429 19.9459 191.698 20.0806C191.967 20.2152 192.178 20.3454 192.331 20.471C192.484 20.5967 192.649 20.7538 192.829 20.9423C193.017 21.1219 193.161 21.3104 193.26 21.5079C193.359 21.7053 193.439 21.9343 193.502 22.1946C193.574 22.4459 193.61 22.7152 193.61 23.0024C193.61 24.1515 193.098 25.1344 192.075 25.9513C191.051 26.7592 189.822 27.1632 188.385 27.1632C187.183 27.1632 186.11 26.8714 185.167 26.2879C184.234 25.7045 183.619 24.9639 183.323 24.0662L185.275 23.5142C185.445 24.0079 185.823 24.4208 186.406 24.7529C186.99 25.0761 187.649 25.2377 188.385 25.2377C189.256 25.2377 190.006 25.0177 190.634 24.5779C191.263 24.138 191.577 23.6129 191.577 23.0024C191.577 22.4998 191.334 22.1093 190.85 21.831C190.374 21.5528 189.521 21.2475 188.291 20.9154C187.968 20.8256 187.717 20.7583 187.537 20.7135C187.366 20.6595 187.12 20.5833 186.796 20.4845C186.482 20.3768 186.231 20.2826 186.042 20.2017C185.854 20.121 185.625 20.0132 185.356 19.8786C185.087 19.735 184.871 19.5958 184.709 19.4612C184.548 19.3266 184.373 19.165 184.184 18.9765C183.996 18.7879 183.847 18.5905 183.74 18.384C183.642 18.1685 183.556 17.9307 183.484 17.6703C183.421 17.401 183.39 17.1138 183.39 16.8086C183.39 15.7134 183.879 14.7798 184.858 14.0079C185.836 13.2269 187.012 12.8364 188.385 12.8364C189.481 12.8364 190.463 13.0968 191.334 13.6174C192.205 14.1291 192.802 14.7888 193.125 15.5967L191.173 16.1488C190.966 15.7449 190.607 15.4127 190.096 15.1524C189.584 14.8921 189.014 14.7619 188.385 14.7619C187.587 14.7619 186.895 14.9639 186.312 15.3678C185.728 15.7718 185.437 16.252 185.437 16.8086C185.437 17.3741 185.688 17.805 186.191 18.1012C186.693 18.3975 187.582 18.7206 188.856 19.0707Z" fill="#1D1D1D"/>
</svg>
